<svg xmlns="http://www.w3.org/2000/svg" viewBox="0 0 117.94 145.3"><defs><style>.cls-1{fill:#0d4c80;}</style></defs><g id="Layer_2" data-name="Layer 2"><g id="Layer_1-2" data-name="Layer 1"><path class="cls-1" d="M36.34,79a70.08,70.08,0,0,0-13.48,6.3,3,3,0,0,0,0,5.07,146.48,146.48,0,0,0,14.46,7.08A153.33,153.33,0,0,0,53,103.19c1.26.38,2.53.74,3.8,1.08a31.8,31.8,0,0,0,4.3,1,11.33,11.33,0,0,0,5-.5c1.36-.42,2.7-.9,4-1.36q8.15-2.79,16.26-5.71t16.16-6l2-.75a3.69,3.69,0,0,0,1.3-.75,2.91,2.91,0,0,0,.8-1.69,3,3,0,0,0-1.4-2.92L92.69,79.77a3.13,3.13,0,0,0-2.26-.29,3,3,0,0,0-1.76,1.34,2.93,2.93,0,0,0-.29,2.26,2.81,2.81,0,0,0,1.35,1.75l12.54,5.83.7-5.36q-7.83,3-15.71,5.84T71.53,96.71l-4.45,1.53a26.06,26.06,0,0,1-4.42,1.3l.78-.11a7.79,7.79,0,0,1-1.93,0l.78.11a35.29,35.29,0,0,1-4.54-1.09c-1.49-.41-3-.85-4.43-1.3-2.91-.91-5.8-1.9-8.65-3-1.62-.61-3.23-1.26-4.82-1.93l.7.29a146.36,146.36,0,0,1-14.73-7.2v5.07A65.15,65.15,0,0,1,34.38,86l-.7.29c1.39-.58,2.8-1.12,4.22-1.62a3.1,3.1,0,0,0,1.75-1.34A2.93,2.93,0,0,0,36.34,79Z" transform="translate(-6.34 -16.67)"/><path class="cls-1" d="M19.37,88.05l-9.49,10L7.17,100.9a3,3,0,0,0,.6,4.61q5.28,3.33,10.85,6.16,5.85,3,12,5.39,5.79,2.32,11.78,4.1c1,.29,2,.58,3,.85a8.3,8.3,0,0,0,4.46.41,8.13,8.13,0,0,0,3.42-2.31l2.5-2.42,9.81-9.51L66.79,107a2.92,2.92,0,0,0,0-4.14,2.9,2.9,0,0,0-2.07-.86,3,3,0,0,0-2.07.86L51.09,114l-1.61,1.56A20.15,20.15,0,0,1,48,117l.59-.46a4,4,0,0,1-.68.42l.7-.3a2.51,2.51,0,0,1-.59.18l.78-.11a3.47,3.47,0,0,1-.72,0l.78.1a15.42,15.42,0,0,1-2-.48l-1.9-.53c-1.25-.36-2.49-.74-3.73-1.14q-3.73-1.19-7.4-2.6c-1.37-.53-2.73-1.08-4.09-1.65l.7.3A138.17,138.17,0,0,1,14.93,103q-2.13-1.23-4.21-2.54l.6,4.6,9.49-10,2.7-2.85a3,3,0,0,0,.86-2.07,3,3,0,0,0-.86-2.07,2.9,2.9,0,0,0-2.07-.86,3,3,0,0,0-2.07.86Z" transform="translate(-6.34 -16.67)"/><path class="cls-1" d="M66.48,106.64,75.6,114c.92.74,1.83,1.5,2.78,2.21A5.36,5.36,0,0,0,80,117a5.45,5.45,0,0,0,2.63.08c.94-.14,1.86-.42,2.78-.64l2.7-.68q11-2.82,21.89-6.34,6.12-2,12.16-4.18a3.05,3.05,0,0,0,2.05-2.05,2.92,2.92,0,0,0-.76-2.85L111,90l-3.53-3a3.17,3.17,0,0,0-2.08-.86,2.94,2.94,0,0,0-2.93,2.93,2.89,2.89,0,0,0,.86,2.07l12.4,10.4,3.53,3,1.29-4.9q-7.57,2.74-15.27,5.17t-15.49,4.49c-1.45.38-2.89.76-4.34,1.12l-2.24.56c-.72.18-1.45.39-2.18.5l.78-.11a3,3,0,0,1-.67,0l.78.1a2.27,2.27,0,0,1-.51-.14l.7.3a3.74,3.74,0,0,1-.79-.49l.59.46c-3.81-3-7.54-6.07-11.31-9.1a2.14,2.14,0,0,0-.94-.6,2.21,2.21,0,0,0-1.13-.26,3,3,0,0,0-2.07.86,2.9,2.9,0,0,0-.86,2.08,2.82,2.82,0,0,0,.86,2.07Z" transform="translate(-6.34 -16.67)"/><path class="cls-1" d="M104.41,111.65l1,24.74.13,3.39.06,1.7a13.63,13.63,0,0,1,0,1.81l.1-.78a1,1,0,0,1-.07.29l.29-.7a1.08,1.08,0,0,1-.11.18l.46-.59a1.21,1.21,0,0,1-.16.16l.6-.46a2.6,2.6,0,0,1-.4.23l.71-.3a14.5,14.5,0,0,1-1.71.49l-2,.56c-1.27.37-2.54.74-3.8,1.14q-3.87,1.19-7.68,2.55c-5.22,1.86-10.36,3.95-15.4,6.23-1.38.62-2.74,1.26-4.1,1.91s-2.69,1.39-4.07,2l.7-.3a4.27,4.27,0,0,1-1,.3l.78-.1a3.62,3.62,0,0,1-.93,0l.78.11a20.63,20.63,0,0,1-2.55-.63l-2.48-.7c-1.68-.49-3.36-1-5-1.54q-5-1.6-9.9-3.5c-1.86-.71-3.7-1.46-5.54-2.23l.7.29c-6.14-2.59-12.16-5.89-18.77-7.11l2.15,2.83q-.8-11-.71-22c0-2.08.06-4.15.12-6.23a3,3,0,0,0-2.93-2.93,3,3,0,0,0-2.94,2.93q-.32,11,.22,22c.1,2.08.23,4.15.37,6.22A3.18,3.18,0,0,0,22,145.4a2.84,2.84,0,0,0,1.53,1,45.77,45.77,0,0,1,9.36,3l-.7-.29c3.35,1.42,6.65,3,10,4.36q4.8,2,9.71,3.75t9.91,3.2c.86.25,1.71.5,2.57.73a23.57,23.57,0,0,0,2.47.64,6.66,6.66,0,0,0,3.7-.27c1-.39,1.85-.86,2.77-1.32q5.19-2.56,10.53-4.82l-.7.29A193.46,193.46,0,0,1,105,148l2.75-.76a4.92,4.92,0,0,0,3.28-2.19c.7-1.22.46-2.74.41-4.08l-.12-3.05-.48-12.38-.53-13.89a2.94,2.94,0,1,0-5.87,0Z" transform="translate(-6.34 -16.67)"/><path class="cls-1" d="M63.18,108.37q-.49,9.42-.51,18.86t.49,18.86q.27,5.34.71,10.65a3.12,3.12,0,0,0,.86,2.08,2.92,2.92,0,0,0,4.14,0,2.92,2.92,0,0,0,.86-2.08c-.51-6.26-.86-12.55-1-18.83s-.2-12.58-.06-18.87c.09-3.56.22-7.12.41-10.67a2.92,2.92,0,0,0-.86-2.07,3,3,0,0,0-2.07-.86,2.92,2.92,0,0,0-2.07.86,3.17,3.17,0,0,0-.86,2.07Z" transform="translate(-6.34 -16.67)"/><path class="cls-1" d="M30.54,42.23a14.85,14.85,0,0,0,3.09-.62,17.26,17.26,0,0,0,2.83-1.22A19,19,0,0,0,40.87,37a28.77,28.77,0,0,0,6-10.42c.73-2,1.33-4.1,1.92-6.17H43.17A51.5,51.5,0,0,0,48,31.1,22.81,22.81,0,0,0,56,39a18.26,18.26,0,0,0,3.15,1.36,17.07,17.07,0,0,0,3.4.68l-.78-5.76a18.85,18.85,0,0,0-2.61,1.23,20.28,20.28,0,0,0-2.34,1.67,20.86,20.86,0,0,0-3.46,3.69A27.27,27.27,0,0,0,49,51.27,48.27,48.27,0,0,0,47.83,57h5.65a31.59,31.59,0,0,0-2.75-5.56,34,34,0,0,0-3.8-4.9,32.05,32.05,0,0,0-9.38-6.9,31.56,31.56,0,0,0-6.49-2.32,3.09,3.09,0,0,0-2.25.3,2.93,2.93,0,0,0,.7,5.36,28.18,28.18,0,0,1,4.56,1.47l-.7-.29A29,29,0,0,1,39.89,48l-.59-.46a30,30,0,0,1,5.28,5.28l-.45-.59a28.58,28.58,0,0,1,3.68,6.27l-.3-.7.32.77.29.7a2.25,2.25,0,0,0,.76.83,2.83,2.83,0,0,0,1.77.63,3.63,3.63,0,0,0,1.48-.4,2.91,2.91,0,0,0,1.35-1.76A40.39,40.39,0,0,1,56,49l-.3.7a22.48,22.48,0,0,1,2.81-4.9l-.46.59a18.17,18.17,0,0,1,3.21-3.23l-.6.46a14.57,14.57,0,0,1,3.16-1.86l-.7.29.26-.11a3.13,3.13,0,0,0,1.76-1.35,3,3,0,0,0,.34-1.87,2.77,2.77,0,0,0-.8-1.68l-.6-.46a2.92,2.92,0,0,0-1.47-.4l-.3,0,.78.1a13.7,13.7,0,0,1-3.37-.92l.7.29a16.81,16.81,0,0,1-3.61-2.13l.59.45a19.76,19.76,0,0,1-3.47-3.49l.46.59a31.76,31.76,0,0,1-4-7.07l.3.7c-.68-1.6-1.27-3.23-1.84-4.87a3.18,3.18,0,0,0-1-1.52A2.82,2.82,0,0,0,46,16.67a3,3,0,0,0-2.83,2.15A69.66,69.66,0,0,1,40.49,27l.3-.7a25.49,25.49,0,0,1-3.2,5.63l.46-.59a18.29,18.29,0,0,1-3.19,3.21l.59-.46a15,15,0,0,1-3.19,1.88l.7-.3a12.12,12.12,0,0,1-3,.83l.78-.1-.19,0a2.21,2.21,0,0,0-1.13.25,2.16,2.16,0,0,0-.94.61,3,3,0,0,0-.86,2.07,2.9,2.9,0,0,0,.86,2.07,2.78,2.78,0,0,0,2.07.86Z" transform="translate(-6.34 -16.67)"/><path class="cls-1" d="M83,48.58a20.75,20.75,0,0,0,9-4.37,18.82,18.82,0,0,0,3-3.05,21.15,21.15,0,0,0,2.7-4.24,19.64,19.64,0,0,0,1.67-5.29H93.64a43.75,43.75,0,0,0,3.82,9.09,18.77,18.77,0,0,0,3.06,3.87,15.3,15.3,0,0,0,3.91,2.76,12.71,12.71,0,0,0,5.71,1.31l-.78-5.76A19.3,19.3,0,0,0,96.72,55.56a17.92,17.92,0,0,0-.8,5.09l5.76-.78a19.82,19.82,0,0,0-2.49-4.45,32.18,32.18,0,0,0-3.34-3.76c-1.08-1-2.22-2-3.36-3a36,36,0,0,0-4.13-3.15,11.46,11.46,0,0,0-6-1.85,3,3,0,0,0-2.07.86,2.94,2.94,0,0,0-.86,2.07,3,3,0,0,0,2.93,2.94,9.08,9.08,0,0,1,.91,0l-.78-.1a8.47,8.47,0,0,1,2,.57l-.7-.29a15,15,0,0,1,3.26,2l-.59-.46c1.45,1.13,2.86,2.34,4.22,3.58a30.12,30.12,0,0,1,3.77,4l-.45-.6A17.55,17.55,0,0,1,96.28,62l-.29-.7,0,.1a2.24,2.24,0,0,0,.52,1,2.28,2.28,0,0,0,.82.75,3.06,3.06,0,0,0,1.87.35,2.93,2.93,0,0,0,2.54-2.88c0-.6.06-1.19.13-1.79l-.1.78a16,16,0,0,1,1.09-4l-.29.7a17.15,17.15,0,0,1,2.12-3.63l-.46.6a16.81,16.81,0,0,1,3-3l-.6.46a16,16,0,0,1,3.46-2l-.7.3a13.73,13.73,0,0,1,1.52-.54,2.94,2.94,0,0,0-.78-5.76,9.93,9.93,0,0,1-1.44-.08l.78.11a10,10,0,0,1-2.39-.67l.7.3a12.32,12.32,0,0,1-2.67-1.57l.59.45a14.37,14.37,0,0,1-2.55-2.56l.46.59a23,23,0,0,1-2.82-5l.3.7c-.69-1.63-1.25-3.3-1.81-5a3.14,3.14,0,0,0-1.05-1.53,2.78,2.78,0,0,0-1.78-.62,3.34,3.34,0,0,0-1.48.4,2.85,2.85,0,0,0-1.34,1.75,17.38,17.38,0,0,1-1.17,4.11l.3-.7a18.8,18.8,0,0,1-2.34,4l.46-.59a19.59,19.59,0,0,1-3.4,3.41l.59-.46A18.39,18.39,0,0,1,84,42.21l.7-.29a17.5,17.5,0,0,1-3.33,1,2.94,2.94,0,0,0-.7,5.36,3.28,3.28,0,0,0,2.26.3Z" transform="translate(-6.34 -16.67)"/><path class="cls-1" d="M69.68,83.53a32.86,32.86,0,0,0-4.77-14.45,3.06,3.06,0,0,0-1.75-1.35,3,3,0,0,0-2.26.3,2.93,2.93,0,0,0-1.35,1.75A3,3,0,0,0,59.84,72,30,30,0,0,1,62,76.25l-.3-.7a29.86,29.86,0,0,1,2.06,7.55l-.11-.78c.06.4.1.8.14,1.21a3.14,3.14,0,0,0,.86,2.07,2.92,2.92,0,0,0,4.14,0,2.86,2.86,0,0,0,.86-2.07Z" transform="translate(-6.34 -16.67)"/><path class="cls-1" d="M81.41,83.19a117.38,117.38,0,0,1-.08-12.3c.07-1.16.18-2.32.33-3.47l-.1.78a38.6,38.6,0,0,1,1-5,2.91,2.91,0,0,0-2-3.6,3,3,0,0,0-2.26.29,3.06,3.06,0,0,0-1.35,1.75,58.58,58.58,0,0,0-1.51,16.9c0,1.55.1,3.09.17,4.64a3,3,0,0,0,.86,2.07,3,3,0,0,0,2.07.86,2.94,2.94,0,0,0,2.93-2.93Z" transform="translate(-6.34 -16.67)"/></g></g></svg>