<svg xmlns="http://www.w3.org/2000/svg" viewBox="0 0 172.03 104.4"><defs><style>.cls-1,.cls-2,.cls-3{fill:#0d4c80;}.cls-1,.cls-2{stroke:#0d4c80;stroke-miterlimit:10;}.cls-1{stroke-width:3px;}.cls-2{font-size:94.43px;stroke-width:2px;font-family:Corben-Regular, Corben;}</style></defs><g id="Layer_2" data-name="Layer 2"><g id="Layer_1-2" data-name="Layer 1"><path class="cls-1" d="M168.54,10.19c1.32,0,2,.84,2,2.52a6.52,6.52,0,0,1-.88,2.95L135,82.66c-1.17,2.26-2.5,3.39-4,3.39a1.75,1.75,0,0,1-1.38-.65,2.93,2.93,0,0,1-.55-1.94,6.21,6.21,0,0,1,.87-2.89l34.58-67Q166.28,10.2,168.54,10.19Z"/><text class="cls-2" transform="translate(1 80.58)">20</text><path class="cls-3" d="M132.14,20.45a5.09,5.09,0,0,0-1.46,3.6,5.14,5.14,0,0,0,1.54,3.57,5.82,5.82,0,0,0,1.33,1,5.75,5.75,0,0,0,1.5.55,6.21,6.21,0,0,0,3.2-.15,5.81,5.81,0,0,0,2.63-1.69,8.31,8.31,0,0,0,.66-.9,8.51,8.51,0,0,0,.45-1,5.89,5.89,0,0,0,.29-1.55,5.61,5.61,0,0,0-.14-1.58,5.73,5.73,0,0,0-.53-1.45,4.88,4.88,0,0,0-.92-1.24,4.52,4.52,0,0,0-1.22-.91,6,6,0,0,0-2.24-.61,5.4,5.4,0,0,0-1.65.13,2.9,2.9,0,0,0-.48.14,6.81,6.81,0,0,0-1,.47,5.67,5.67,0,0,0-1.63,1.57,2.75,2.75,0,0,0-.28,2.1,2.82,2.82,0,0,0,1.26,1.63,2.76,2.76,0,0,0,2.1.28l.65-.28a2.71,2.71,0,0,0,1-1l0-.05-.42.55a2.52,2.52,0,0,1,.4-.4l-.55.43a3,3,0,0,1,.55-.32l-.65.28a3.2,3.2,0,0,1,.69-.19l-.73.1a3.48,3.48,0,0,1,.79,0l-.73-.1a2.7,2.7,0,0,1,.69.18l-.65-.27a2.61,2.61,0,0,1,.56.32l-.55-.43a2.93,2.93,0,0,1,.46.47l-.43-.56a3.3,3.3,0,0,1,.34.57l-.28-.65a3,3,0,0,1,.22.78l-.1-.72a3.32,3.32,0,0,1,0,.89l.1-.73a3,3,0,0,1-.22.78l.28-.65a3.68,3.68,0,0,1-.34.58l.42-.55a3,3,0,0,1-.54.53l.56-.42a3.54,3.54,0,0,1-.73.42l.65-.28a3.45,3.45,0,0,1-.89.24l.72-.1a3.54,3.54,0,0,1-.92,0l.73.1a3.68,3.68,0,0,1-.82-.23l.65.27a3.14,3.14,0,0,1-.64-.37l.55.43a3.25,3.25,0,0,1-.53-.52l.43.56a3.16,3.16,0,0,1-.33-.56l.28.65a2.23,2.23,0,0,1-.16-.56l.1.73a2.91,2.91,0,0,1,0-.59l-.1.73a3.46,3.46,0,0,1,.18-.65l-.27.66a2.29,2.29,0,0,1,.3-.5l-.43.55.17-.19a2.83,2.83,0,0,0,.8-1.93,2.73,2.73,0,0,0-2.73-2.73,2.9,2.9,0,0,0-1.93.8Z"/><path class="cls-3" d="M160,63.87a5.1,5.1,0,0,0-1.47,3.6A5.15,5.15,0,0,0,160.11,71a5.49,5.49,0,0,0,1.32,1,5.69,5.69,0,0,0,1.51.55,6.17,6.17,0,0,0,3.19-.15,5.7,5.7,0,0,0,2.63-1.69,5.14,5.14,0,0,0,1.11-1.92,5.82,5.82,0,0,0,.29-1.55,6,6,0,0,0-.13-1.58,5.76,5.76,0,0,0-.54-1.45,4.88,4.88,0,0,0-.92-1.24,4.74,4.74,0,0,0-1.22-.91,6,6,0,0,0-2.23-.61,5.46,5.46,0,0,0-1.66.13l-.47.14a6,6,0,0,0-1,.47,5.58,5.58,0,0,0-1.64,1.57,2.7,2.7,0,0,0-.27,2.1,2.73,2.73,0,0,0,3.35,1.91l.66-.28a2.68,2.68,0,0,0,1-1l.05,0-.43.55a2.59,2.59,0,0,1,.41-.4l-.55.43a2.73,2.73,0,0,1,.55-.32l-.66.28a3.37,3.37,0,0,1,.69-.19l-.72.1a3.39,3.39,0,0,1,.78,0l-.72-.1a2.81,2.81,0,0,1,.69.18l-.65-.27a2.54,2.54,0,0,1,.55.32l-.55-.43a2.56,2.56,0,0,1,.46.47l-.42-.55a2.84,2.84,0,0,1,.33.56l-.28-.65a3,3,0,0,1,.22.78l-.09-.72a3.79,3.79,0,0,1,0,.89l.09-.73a3.69,3.69,0,0,1-.21.79l.27-.66a2.59,2.59,0,0,1-.34.58l.43-.55a3.45,3.45,0,0,1-.54.54l.55-.43a3.54,3.54,0,0,1-.73.42l.65-.28a3.35,3.35,0,0,1-.89.24l.73-.1a3.54,3.54,0,0,1-.92,0l.72.1a4,4,0,0,1-.82-.23l.65.27a3.43,3.43,0,0,1-.64-.37l.56.43a2.61,2.61,0,0,1-.53-.52l.42.56a3.16,3.16,0,0,1-.33-.56l.28.65a2.56,2.56,0,0,1-.15-.56l.1.73a2,2,0,0,1,0-.59l-.1.73a2.41,2.41,0,0,1,.18-.65l-.28.66a2.76,2.76,0,0,1,.3-.5l-.42.55a1.54,1.54,0,0,1,.17-.19,2.82,2.82,0,0,0,.79-1.93,2.77,2.77,0,0,0-.79-1.93,2.8,2.8,0,0,0-1.93-.8,2.88,2.88,0,0,0-1.93.8Z"/></g></g></svg>