<svg xmlns="http://www.w3.org/2000/svg" viewBox="0 0 166.45 106.64"><defs><style>.cls-1{fill:#0d4c80;}</style></defs><g id="Layer_2" data-name="Layer 2"><g id="Layer_1-2" data-name="Layer 1"><path class="cls-1" d="M45.37,79.31a28.73,28.73,0,0,0-4.34.42,17.29,17.29,0,0,0-4,1.25,12.28,12.28,0,0,0-5.91,5.65,15.43,15.43,0,0,0-1,2.61,16.85,16.85,0,0,0-.51,2.82,16.31,16.31,0,0,0,.33,5.07,17.48,17.48,0,0,0,4.43,8.44,12.86,12.86,0,0,0,8.93,4,13.66,13.66,0,0,0,2.71-.24,10.6,10.6,0,0,0,2-.52,14.92,14.92,0,0,0,4.59-2.64,15.57,15.57,0,0,0,4.69-7,17.63,17.63,0,0,0,.55-8.35,15.56,15.56,0,0,0-1-3.41,17.17,17.17,0,0,0-2-3.77,8.59,8.59,0,0,0-2.07-2,8.43,8.43,0,0,0-1.49-.85,15.7,15.7,0,0,0-3.88-1.25,13.35,13.35,0,0,0-2.08-.22,2.93,2.93,0,0,0-2.08,5,3.05,3.05,0,0,0,2.08.86,7.28,7.28,0,0,1,1,.08l-.78-.1a12.46,12.46,0,0,1,3.21.89l-.7-.3a9.06,9.06,0,0,1,1.91,1.09l-.59-.46a4.89,4.89,0,0,1,.82.82l-.45-.59a14,14,0,0,1,1.62,2.91l-.3-.7a15.31,15.31,0,0,1,1.05,3.87l-.1-.78a15,15,0,0,1,0,4l.11-.78a14,14,0,0,1-1,3.47l.29-.7a12.94,12.94,0,0,1-1.62,2.79l.46-.6a13.12,13.12,0,0,1-2.26,2.27l.59-.46a11.3,11.3,0,0,1-2.45,1.43l.7-.3a11,11,0,0,1-2.81.78l.77-.1a10.61,10.61,0,0,1-2.7,0l.78.11a9.5,9.5,0,0,1-2.33-.65l.7.3a10.23,10.23,0,0,1-2.2-1.31l.6.46a12.67,12.67,0,0,1-2.16-2.17l.46.6a15.2,15.2,0,0,1-1.92-3.31l.29.7a15.66,15.66,0,0,1-1.05-3.86l.11.78a13.69,13.69,0,0,1,0-3.56l-.11.78a12.42,12.42,0,0,1,.82-3l-.29.7a10.52,10.52,0,0,1,1.33-2.3l-.46.59a9.2,9.2,0,0,1,1.65-1.65l-.59.46A10.46,10.46,0,0,1,40.17,86l-.7.29a15.71,15.71,0,0,1,3.88-1l-.77.1a25.8,25.8,0,0,1,2.79-.2,3,3,0,0,0,2.07-.86,2.93,2.93,0,0,0-2.07-5Z" transform="translate(-3.03 -2.98)"/><path class="cls-1" d="M134.9,79.31a28.6,28.6,0,0,0-4.33.42,17.29,17.29,0,0,0-4,1.25,12.24,12.24,0,0,0-5.91,5.65,15.43,15.43,0,0,0-1,2.61,16.85,16.85,0,0,0-.51,2.82,16.61,16.61,0,0,0,.32,5.07,17.65,17.65,0,0,0,4.43,8.44,12.89,12.89,0,0,0,8.94,4,13.73,13.73,0,0,0,2.71-.24,10.3,10.3,0,0,0,2-.52,15,15,0,0,0,4.6-2.64,15.57,15.57,0,0,0,4.69-7,17.5,17.5,0,0,0,.54-8.35,15.54,15.54,0,0,0-.94-3.41,17.6,17.6,0,0,0-2-3.77,8.59,8.59,0,0,0-2.07-2,8.43,8.43,0,0,0-1.49-.85A15.64,15.64,0,0,0,137,79.53a13.1,13.1,0,0,0-2.08-.22,2.93,2.93,0,0,0-2.07,5,3,3,0,0,0,2.07.86,7.42,7.42,0,0,1,1,.08l-.78-.1a12.46,12.46,0,0,1,3.21.89l-.7-.3a9.06,9.06,0,0,1,1.91,1.09l-.6-.46a4.6,4.6,0,0,1,.83.82l-.46-.59A13.6,13.6,0,0,1,141,89.51l-.29-.7a15.73,15.73,0,0,1,1.05,3.87l-.1-.78a15,15,0,0,1,0,4l.1-.78a13.54,13.54,0,0,1-1,3.47l.3-.7a13.36,13.36,0,0,1-1.62,2.79l.45-.6a12.72,12.72,0,0,1-2.25,2.27l.59-.46a11.8,11.8,0,0,1-2.45,1.43l.7-.3a11,11,0,0,1-2.82.78l.78-.1a10.61,10.61,0,0,1-2.7,0l.77.11a9.43,9.43,0,0,1-2.32-.65l.7.3a10,10,0,0,1-2.2-1.31l.6.46a12.32,12.32,0,0,1-2.16-2.17l.46.6a15.2,15.2,0,0,1-1.92-3.31l.29.7a15.66,15.66,0,0,1-1-3.86l.11.78a14.14,14.14,0,0,1,0-3.56l-.1.78a11.58,11.58,0,0,1,.82-3l-.3.7a11,11,0,0,1,1.34-2.3l-.46.59A9.2,9.2,0,0,1,128,86.86l-.59.46A10.46,10.46,0,0,1,129.71,86l-.7.29a15.71,15.71,0,0,1,3.88-1l-.78.1a26.17,26.17,0,0,1,2.79-.2,3.05,3.05,0,0,0,2.08-.86,2.93,2.93,0,0,0-2.08-5Z" transform="translate(-3.03 -2.98)"/><path class="cls-1" d="M27.65,93.07,6,90.56,8.9,93.49Q9,79,9.43,64.48t1-28.89q.36-8.18.79-16.34L8.31,22.19,48,21.39c13-.25,26.07-.68,39.1-.24,3.63.13,7.26.32,10.88.62,1.79.15,3.58.32,5.36.52.9.09,1.79.2,2.68.31l.62.08.41.06-.16,0,1.43.2-2.15-2.83c1,9.75,1.36,19.54,1.54,29.33s.19,19.61.43,29.41c.13,5.51.33,11,.69,16.51l2.93-2.93q-10.92-.43-21.84-.54T68,92q-6.17.12-12.34.35a2.93,2.93,0,1,0,0,5.86q10.92-.39,21.83-.47t22,.18q6.17.14,12.34.38a3,3,0,0,0,2.93-2.93c-.63-9.78-.79-19.58-.9-29.38s-.17-19.6-.6-29.39c-.24-5.5-.61-11-1.15-16.48a3.22,3.22,0,0,0-.63-1.77,2.64,2.64,0,0,0-1.53-1.05C96.73,15.35,83.45,15,70.17,15.13s-26.32.48-39.48.75l-22.38.44a3,3,0,0,0-2.94,2.93q-.76,14.49-1.29,29t-.8,28.9Q3.12,85.32,3,93.49a3,3,0,0,0,.86,2.07A3.37,3.37,0,0,0,6,96.42l21.69,2.51a2.93,2.93,0,0,0,2.07-.85A3,3,0,0,0,30.58,96a2.92,2.92,0,0,0-.86-2.07,3.41,3.41,0,0,0-2.07-.86Z" transform="translate(-3.03 -2.98)"/><path class="cls-1" d="M19.6,33Q35.29,32.6,51,32.62t31.23.46q8.81.26,17.61.62a3,3,0,0,0,2.93-2.93,3,3,0,0,0-2.93-2.93q-15.69-.68-31.38-.92t-31.24-.1q-8.8.09-17.61.31a2.93,2.93,0,1,0,0,5.86Z" transform="translate(-3.03 -2.98)"/><path class="cls-1" d="M111.65,32.6q10.89-.29,21.77.14l3,.13c1,0,2,.06,3,.19L138.7,33a6.08,6.08,0,0,1,1.38.35l-.7-.3a5.25,5.25,0,0,1,1,.6l-.59-.46a16.62,16.62,0,0,1,2.4,2.56l2.34,2.79c1.55,1.87,3.09,3.76,4.57,5.69l-.46-.6a86.45,86.45,0,0,1,8.49,13q1,1.95,1.86,4l-.3-.7a52,52,0,0,1,3.55,13.42l-.1-.78c.76,5.65,1,11.38,1.28,17.07,0,.81.08,1.63.11,2.44a15.22,15.22,0,0,1,0,2.34l.11-.78a1.57,1.57,0,0,1-.08.29l.3-.7a1.35,1.35,0,0,1-.15.26l.46-.59-.13.13.59-.46a1.16,1.16,0,0,1-.24.14l.7-.29a2.61,2.61,0,0,1-.55.14l.78-.1c-1.16.15-2.33.22-3.49.3s-2.35.15-3.52.21c-2.38.11-4.76.15-7.14.14q-2,0-4.05-.09a3,3,0,0,0-2.93,2.93,3,3,0,0,0,2.93,2.94q6.34.23,12.69-.14c1.09-.06,2.18-.13,3.26-.22l1.44-.13a9,9,0,0,0,2.06-.29A4,4,0,0,0,169,96.05a5.12,5.12,0,0,0,.49-2.53c0-1-.09-2.11-.13-3.16-.2-4.21-.42-8.43-.77-12.63A76.59,76.59,0,0,0,166.65,65a62.34,62.34,0,0,0-9.88-20.21c-2.24-3.18-4.66-6.25-7.13-9.25-1.18-1.44-2.38-2.86-3.57-4.28a18.19,18.19,0,0,0-1.78-1.94,7.77,7.77,0,0,0-3.45-1.87,23.34,23.34,0,0,0-3.73-.37l-3.17-.14c-2.11-.08-4.22-.15-6.33-.19q-6.39-.14-12.79,0l-3.17.07a3,3,0,0,0-2.07.86,3,3,0,0,0-.86,2.07,2.9,2.9,0,0,0,.86,2.07,3,3,0,0,0,2.07.86Z" transform="translate(-3.03 -2.98)"/><path class="cls-1" d="M115.42,98h5.92a3.07,3.07,0,0,0,2.08-.86,2.93,2.93,0,0,0-2.08-5h-5.92A2.92,2.92,0,0,0,112.49,95,3,3,0,0,0,115.42,98Z" transform="translate(-3.03 -2.98)"/><path class="cls-1" d="M149.19,39c-3.57,0-7.14.12-10.71.25-3.91.15-7.82.34-11.73.64-1.88.14-3.75.31-5.63.53a3.2,3.2,0,0,0-2.07.86,2.84,2.84,0,0,0-.86,2.07l1.18,11.11.28,2.71.15,1.36a8.13,8.13,0,0,0,.25,1.63,4.6,4.6,0,0,0,3.24,3.18,23.39,23.39,0,0,0,2.53.4,143.64,143.64,0,0,0,22.32,1.45c4.07-.07,8.15-.31,12.21-.73a3.16,3.16,0,0,0,2.07-.86,3,3,0,0,0,.86-2.07,3,3,0,0,0-.86-2.08,2.85,2.85,0,0,0-2.07-.85q-6.39.66-12.82.73t-12.78-.44q-3.6-.3-7.19-.78l.78.11-2-.28a9.14,9.14,0,0,1-1.79-.35l.7.29a2.21,2.21,0,0,1-.34-.18l.59.46a3,3,0,0,1-.25-.25l.46.6a2,2,0,0,1-.22-.37l.3.7a3.51,3.51,0,0,1-.22-.83l.11.78c-.33-2.55-.54-5.11-.81-7.66l-.83-7.78-2.93,2.93c3.54-.42,7.1-.65,10.66-.85q5.86-.33,11.74-.47c1.89-.05,3.78-.08,5.67-.1a2.93,2.93,0,1,0,0-5.86Z" transform="translate(-3.03 -2.98)"/><path class="cls-1" d="M155,88h8.08a3,3,0,0,0,2.07-.86,2.93,2.93,0,0,0-2.07-5H155a2.92,2.92,0,0,0-2.93,2.93A3,3,0,0,0,155,88Z" transform="translate(-3.03 -2.98)"/><path class="cls-1" d="M9.36,87,22,86.74a2.92,2.92,0,0,0,2.93-2.93,2.92,2.92,0,0,0-.86-2.07A3,3,0,0,0,22,80.88l-12.65.25a2.92,2.92,0,0,0-2.93,2.93,3,3,0,0,0,.86,2.07A3,3,0,0,0,9.36,87Z" transform="translate(-3.03 -2.98)"/><path class="cls-1" d="M108.69,79.24q-8-.3-16.1-.46t-16-.17q-4.53,0-9,0a3.05,3.05,0,0,0-2.08.86,2.93,2.93,0,0,0,2.08,5q8-.09,16.1,0t16,.3c3,.08,6,.18,9,.3a2.94,2.94,0,0,0,0-5.87Z" transform="translate(-3.03 -2.98)"/><path class="cls-1" d="M10.24,9.19l12.9-.14,13-.13,7.29-.08a2.94,2.94,0,0,0,2.93-2.93A3,3,0,0,0,43.39,3l-12.9.13-13,.14-7.29.07a3,3,0,0,0-2.07.86,2.94,2.94,0,0,0-.86,2.07,3,3,0,0,0,2.93,2.94Z" transform="translate(-3.03 -2.98)"/></g></g></svg>