<svg xmlns="http://www.w3.org/2000/svg" viewBox="0 0 192.15 156.06"><defs><style>.cls-1,.cls-2{fill:#0d4c80;}.cls-2{stroke:#0d4c80;stroke-miterlimit:10;}.cls-3{fill:#fff;}</style></defs><g id="Layer_2" data-name="Layer 2"><g id="Layer_1-2" data-name="Layer 1"><path class="cls-1" d="M85.09,3.56C77.13,7.1,71.53,14.43,68,22.16A95.31,95.31,0,0,0,63.1,35.4a58.1,58.1,0,0,0-2.52,14.5A55.68,55.68,0,0,0,60.76,56a40.48,40.48,0,0,0,1,6.29A23.28,23.28,0,0,0,63.9,68a20.05,20.05,0,0,0,3.82,4.82,34.31,34.31,0,0,0,11.06,6.83A47.76,47.76,0,0,0,91,82.57a66,66,0,0,0,12.25.13,52.86,52.86,0,0,0,13.21-2.28,32.14,32.14,0,0,0,10.92-6.28,23.49,23.49,0,0,0,6.92-9.85,15.87,15.87,0,0,0,.91-5.16c0-1.31-.08-2.64-.17-4a77,77,0,0,0-.9-8.58,102.39,102.39,0,0,0-6.45-23,58.16,58.16,0,0,0-5.67-10.17,53.87,53.87,0,0,0-3.93-5.09,24.93,24.93,0,0,0-4.88-4.17,17.29,17.29,0,0,0-2.56-1.43c-.43-.19-.87-.38-1.31-.54.73.27.21.09,0,0L109,2A20.36,20.36,0,0,0,105,.48,22.22,22.22,0,0,0,98.57.06a37.56,37.56,0,0,0-7.08,1.12,35.68,35.68,0,0,0-6.4,2.38,2,2,0,0,0-.72,2.76A2.06,2.06,0,0,0,87.13,7l.75-.35.38-.17c.11,0,.5-.28,0,0a11,11,0,0,1,1.57-.6c1-.36,2.06-.67,3.11-.94s2.12-.47,3.2-.63l.42-.06c-.58,0-.1,0,0,0l.7-.08q.84-.08,1.68-.12a26.29,26.29,0,0,1,3.32,0l.6.06h-.08l.33.06a11.59,11.59,0,0,1,1.17.25c.32.09.63.18.93.29l.46.18.15.05c.3.13-.55-.24-.13-.05l1.5.7,1.15.5.43.16c.39.15-.45-.2-.07,0l.42.19a19.1,19.1,0,0,1,2.46,1.48l.53.38c.08.06.26.15.31.24l-.2-.16.21.17c.4.32.79.65,1.18,1a21.86,21.86,0,0,1,1.9,1.95c.33.39.65.79,1,1.19l.45.57h0c.11.14.21.28.32.41.59.79,1.15,1.58,1.7,2.4a54.34,54.34,0,0,1,3,4.84c.9,1.66,1.71,3.36,2.45,5.09.18.4-.18-.44,0,0l.09.22.27.66c.18.45.35.89.52,1.34.32.86.63,1.73.92,2.6a104,104,0,0,1,2.95,11.12c.42,1.92.82,3.85,1.16,5.79l.09.61c0,.11.08.58,0,.13s0,.12,0,.24c.08.65.15,1.31.22,2a81.88,81.88,0,0,1,.55,8.42c0,.2,0,.4,0,.6s0,.38,0,.56,0,.24,0,.35c-.05.42.07-.45,0-.07a17.61,17.61,0,0,1-.68,2.71l-.21.55-.13.33c.18-.56.08-.19,0-.06-.19.43-.4.85-.62,1.27a20.39,20.39,0,0,1-1.47,2.3,3.15,3.15,0,0,1-.22.29c-.26.35.3-.36,0,0-.12.16-.25.32-.38.47-.31.38-.63.74-1,1.09a26.93,26.93,0,0,1-2.12,2c-.34.29-.73.54-1,.85.39-.38.13-.1,0,0l-.2.14-.69.5c-.76.53-1.55,1-2.35,1.49a28.39,28.39,0,0,1-2.58,1.31,1.65,1.65,0,0,1-.36.16l.23-.1-.24.1-.75.29c-.5.18-1,.36-1.51.52a43.25,43.25,0,0,1-6.06,1.39l-.81.12s-.49.06-.13,0-.1,0-.14,0l-1.63.19c-1.09.11-2.18.2-3.27.26-2,.13-4,.22-6,.22a49.52,49.52,0,0,1-5.95-.38c-.21,0-.44-.08-.65-.09.57,0,.15,0,0,0l-.39,0-1.58-.26c-1-.18-2-.38-3-.62a39.15,39.15,0,0,1-5.6-1.77l-.24-.1-.12,0,.12,0a3,3,0,0,0-.71-.31c-.47-.21-.93-.43-1.39-.66-.88-.44-1.74-.91-2.57-1.43-.4-.24-.79-.49-1.17-.76L73,72c-.11-.07-.48-.45-.61-.45l.2.16-.2-.16-.3-.24-.49-.41c-.4-.35-.8-.71-1.19-1.08s-.71-.7-1.05-1.07L69,68.33l-.24-.28-.15-.19.1.13c-.21-.38-.52-.71-.75-1.08s-.49-.81-.72-1.24-.38-.78-.56-1.18.17.44,0,0c0-.12-.09-.23-.13-.34s-.17-.45-.25-.68a26.11,26.11,0,0,1-.78-2.75c-.22-.95-.34-1.91-.52-2.86.12.67,0-.06,0-.2s0-.5-.08-.75c0-.49-.09-1-.13-1.48a53.87,53.87,0,0,1-.12-6.09c.05-1.17.15-2.34.29-3.5,0,0,.06-.52,0-.17s0-.15,0-.18c0-.3.08-.59.13-.89.09-.59.2-1.18.31-1.76a90.69,90.69,0,0,1,3.8-13.22c.37-1,.76-2.05,1.18-3.07.1-.26.21-.53.32-.79-.23.53.08-.18.14-.31.22-.52.46-1,.7-1.56a49.14,49.14,0,0,1,3.23-5.86c.53-.83,1.11-1.64,1.7-2.43.28-.36-.28.36,0,0l.24-.3.4-.5c.33-.39.66-.78,1-1.15.68-.76,1.4-1.48,2.15-2.17.34-.31.69-.62,1-.91l.49-.4.1-.08-.11.08a2,2,0,0,0,.41-.31A26.49,26.49,0,0,1,87.13,7a2,2,0,0,0,.72-2.75,2.06,2.06,0,0,0-1.2-.93,2.34,2.34,0,0,0-1.56.2Z"/><path class="cls-1" d="M99.32,71.92a75.08,75.08,0,0,0-.73-9.59A2.21,2.21,0,0,0,98,60.91a2,2,0,0,0-2.85,0,1.93,1.93,0,0,0-.59,1.42,75.08,75.08,0,0,1,.73,9.59,2,2,0,1,0,4,0Z"/><path class="cls-1" d="M92.38,51.51h0l-.16.13.06-.09-.09.12h0a.88.88,0,0,1,.05-.15c0,.06-.05.12-.07.17h0c0-.06,0-.12,0-.18s0,.09,0,.14a1.84,1.84,0,0,1,0-.25c0,.1,0,.2,0,.3s0,0,0,0l0,0,0,0v0l-.16.2a1.14,1.14,0,0,1,.15-.16L92,52l.1-.2,0,.23a2,2,0,0,1,0-.26h0v0a.77.77,0,0,0,0,.15.71.71,0,0,1,0-.14c0,.11.09.23.14.34a1.59,1.59,0,0,1-.07-.2,17.76,17.76,0,0,0,1,1.7c.37.62.75,1.23,1.14,1.84.7,1.07,1.42,2.11,2.19,3.12l.14.18L95,61a2,2,0,0,0-.21,1.55,2.07,2.07,0,0,0,.32.65,57.13,57.13,0,0,1-5.62-7.93A12.54,12.54,0,0,1,88.28,53a4.05,4.05,0,0,1,.25-3.11,4.63,4.63,0,0,1,1.81-1.86,7.41,7.41,0,0,1,2.8-.81c1.52-.2,3-.3,4.56-.44a11.07,11.07,0,0,1,4.33,0,4.31,4.31,0,0,1,2.32,1.72,4.7,4.7,0,0,1,.7,2.59,9.64,9.64,0,0,1-1.38,4.63,32,32,0,0,1-2.36,3.42l-2.88,3.86c-.08.11-.17.21-.25.31a2,2,0,0,0-.07-2.76c-.51-.59-1-1.2-1.49-1.83l1.58-2.11a20.77,20.77,0,0,0,2.43-3.8l-.06.16c0-.1.08-.21.13-.31a1,1,0,0,1-.07.15,9.39,9.39,0,0,0,.38-1.38c0,.12,0,.24,0,.36,0-.18,0-.36.07-.54l0,.15a4.34,4.34,0,0,0,0-.51,2,2,0,0,1,0,.24c0-.12,0-.23,0-.35l0,.08,0-.12v0l.12.14-.09-.12.12.07-.14-.11.12,0a.42.42,0,0,0-.14-.06h0a1.54,1.54,0,0,0-.08-.19.65.65,0,0,1,0,.13l-.12-.15a1.88,1.88,0,0,1,.12.18l0,0h-.11l-.42-.05.21,0a21.44,21.44,0,0,0-3.3.22c-1.24.12-2.49.2-3.73.35a8.17,8.17,0,0,0-1,.22l.21-.1Z"/><path class="cls-1" d="M101.16,50.89l-.12-.07s0,0,0,0h0Z"/><path class="cls-1" d="M101,50.76a.42.42,0,0,1,.14.06l-.12,0h0Z"/><path class="cls-1" d="M101,50.82l.09.12L101,50.8h0S101,50.82,101,50.82Z"/><path class="cls-1" d="M101,50.82l0,.12,0-.08Z"/><path class="cls-1" d="M101,50.86c0,.12,0,.23,0,.35a2,2,0,0,0,0-.24.66.66,0,0,0,0-.14A0,0,0,0,1,101,50.86Z"/><path class="cls-1" d="M101,51.33c0,.18-.05.36-.07.54,0-.12,0-.24,0-.36v0h0Z"/><path class="cls-1" d="M101,50.79h0Z"/><path class="cls-1" d="M101,51a4.34,4.34,0,0,1,0,.51h0v0a9.39,9.39,0,0,1-.38,1.38,20.77,20.77,0,0,1-2.43,3.8L96.62,58.8l-.14-.18c-.77-1-1.49-2-2.19-3.12-.39-.61-.77-1.22-1.14-1.84a17.76,17.76,0,0,1-1-1.7s0,0,0,0l0-.14h0s0,0,0,0h0a.57.57,0,0,1,.11-.11,1.44,1.44,0,0,1,.31-.19h0a8.17,8.17,0,0,1,1-.22c1.24-.15,2.49-.23,3.73-.35a21.44,21.44,0,0,1,3.3-.22h.06l.28.07,0,0h0A1.17,1.17,0,0,1,101,51Z"/><path class="cls-1" d="M101,50.86a0,0,0,0,0,0,0h0s0,0,0,0,0,0,0,0Z"/><path class="cls-1" d="M101,50.78h0Z"/><path class="cls-1" d="M101,50.8v0s0,0,0,0Z"/><path class="cls-1" d="M101,50.83a.66.66,0,0,1,0,.14,1.17,1.17,0,0,0-.05-.2h0a.08.08,0,0,0,0,0Z"/><path class="cls-1" d="M101,50.79h0Z"/><path class="cls-1" d="M101,50.8s0,0,0,0a.08.08,0,0,1,0,0h0Z"/><path class="cls-1" d="M101,50.78h0s0,0,0,0Z"/><path class="cls-1" d="M101,50.76h0s0,0,0,0Z"/><path class="cls-1" d="M101,50.75h0Z"/><path class="cls-1" d="M101,50.77s0,0,0,0v0S101,50.77,101,50.77Z"/><polygon class="cls-1" points="100.98 50.77 100.99 50.78 100.98 50.78 100.98 50.77"/><path class="cls-1" d="M101,50.77h0v0s0,0,0,0h0Z"/><path class="cls-1" d="M101,50.76h0Z"/><path class="cls-1" d="M101,50.77h0Z"/><path class="cls-1" d="M100.89,50.55a1.54,1.54,0,0,1,.08.19l0-.06A.65.65,0,0,0,100.89,50.55Z"/><path class="cls-1" d="M100.93,50.68l0,.06h0A.06.06,0,0,0,100.93,50.68Z"/><path class="cls-1" d="M101,50.76h0Z"/><path class="cls-1" d="M101,50.74s0,0,0,0h0Z"/><path class="cls-1" d="M101,50.74v0h0S101,50.74,101,50.74Z"/><path class="cls-1" d="M101,50.76l0,0-.11-.06h0l.12,0s0,0,0,0S101,50.75,101,50.76Z"/><path class="cls-1" d="M100.94,50.72h0Z"/><path class="cls-1" d="M101,50.73h0s0,0,0,0Z"/><path class="cls-1" d="M100.93,50.68a.06.06,0,0,1,0,0h0a1.88,1.88,0,0,0-.12-.18Z"/><path class="cls-1" d="M100.94,50.72h0l0,0h0l0,0Z"/><path class="cls-1" d="M100.94,50.73l-.12,0h.07Z"/><path class="cls-1" d="M100.8,50.68l.11.06-.28-.07h.17Z"/><polygon class="cls-1" points="100.79 50.67 100.8 50.68 100.79 50.68 100.79 50.67"/><path class="cls-1" d="M100.79,50.67h0Z"/><path class="cls-1" d="M100.79,50.68h-.22l-.21,0,.42.05Z"/><path class="cls-1" d="M100.7,52.74c0,.1-.09.21-.13.31l.06-.16A1,1,0,0,0,100.7,52.74Z"/><path class="cls-1" d="M96.62,58.8c.48.63,1,1.24,1.49,1.83a2,2,0,0,1,.07,2.76h0a2.51,2.51,0,0,1-.58.45l-.26.11-.07,0-.19.05a1.69,1.69,0,0,1-.38,0H96.5l-.19,0-.14,0-.06,0h0l-.16,0-.18-.09h0l0,0-.12-.07,0,0-.12-.09a.8.8,0,0,1-.13-.13l0,0-.16-.2a2.07,2.07,0,0,1-.32-.65A2,2,0,0,1,95,61Z"/><path class="cls-1" d="M98.17,63.4s0,.05-.06.08a1.64,1.64,0,0,1-.52.37A2.51,2.51,0,0,0,98.17,63.4Z"/><path class="cls-1" d="M97.33,64l.26-.11Z"/><path class="cls-1" d="M97.26,64l0,0a.8.8,0,0,1-.15,0Z"/><path class="cls-1" d="M97.07,64a1.37,1.37,0,0,1-.57,0h.19A1.69,1.69,0,0,0,97.07,64Z"/><path class="cls-1" d="M96.48,58.62l.14.18Z"/><path class="cls-1" d="M96.31,64l.19,0A.63.63,0,0,1,96.31,64Z"/><path class="cls-1" d="M95.06,63.24l.16.2A1,1,0,0,1,95.06,63.24Z"/><path class="cls-1" d="M92.77,51.35l-.21.1h0l-.17.06h0Z"/><path class="cls-1" d="M92.37,51.52l.17-.06a1.44,1.44,0,0,0-.31.19A.57.57,0,0,1,92.37,51.52Z"/><path class="cls-1" d="M92.37,51.52a.57.57,0,0,0-.14.13.1.1,0,0,0-.07,0l0,0,.16-.13h0Z"/><path class="cls-1" d="M92.18,52a1.59,1.59,0,0,0,.07.2c0-.11-.1-.23-.14-.34l0,.1S92.17,52,92.18,52Z"/><path class="cls-1" d="M92.24,51.57l-.06.09,0,0Z"/><path class="cls-1" d="M92.16,51.69a.1.1,0,0,1,.07,0,.57.57,0,0,0-.11.11A.16.16,0,0,1,92.16,51.69Z"/><path class="cls-1" d="M92.18,51.55a.88.88,0,0,0-.05.15l0,0S92.16,51.61,92.18,51.55Z"/><path class="cls-1" d="M92.15,51.69l0,0,0,0,0,0v0Z"/><path class="cls-1" d="M92.16,51.92l0-.1h0a0,0,0,0,1,0,0Z"/><path class="cls-1" d="M92.13,51.72l0,0a.16.16,0,0,0,0,.07h0v0a0,0,0,0,1,0,0Z"/><path class="cls-1" d="M92.13,51.7v0h0Z"/><path class="cls-1" d="M92.11,51.72l0,0v0Z"/><path class="cls-1" d="M92.12,51.72h0Z"/><path class="cls-1" d="M92.11,51.73h0a0,0,0,0,0,0,0Z"/><path class="cls-1" d="M92.11,51.82a.71.71,0,0,0,0,.14.77.77,0,0,1,0-.15h0Z"/><path class="cls-1" d="M92.11,51.72h0Z"/><path class="cls-1" d="M92.11,51.76s0,0,0,0h0v0h0Z"/><path class="cls-1" d="M92.11,51.53c0,.06,0,.12,0,.18v0C92.1,51.62,92.1,51.58,92.11,51.53Z"/><path class="cls-1" d="M92.11,51.8h0v0Z"/><path class="cls-1" d="M92.11,51.73h0v0Z"/><path class="cls-1" d="M92.11,51.78a0,0,0,0,0,0,0h0Z"/><path class="cls-1" d="M92.11,51.77h0Z"/><path class="cls-1" d="M92.1,51.77h0Z"/><path class="cls-1" d="M92.1,51.73v0h0v0S92.09,51.73,92.1,51.73Z"/><path class="cls-1" d="M92.1,51.72h0s0,0,0,0,0,0,0,0a.09.09,0,0,0,0,0v0Z"/><path class="cls-1" d="M92.1,51.78h0Z"/><path class="cls-1" d="M92.1,51.79h0s0,0,0,0Z"/><path class="cls-1" d="M92.1,51.78h0v0Z"/><path class="cls-1" d="M92.09,51.79s0,0,0,0,0,0,0,0a0,0,0,0,1,0,0h0Z"/><path class="cls-1" d="M92.09,51.8h0l0,0v0h0S92.07,51.8,92.09,51.8Z"/><path class="cls-1" d="M92,51.42a1.84,1.84,0,0,0,0,.25.09.09,0,0,1,0,0C92.07,51.62,92.06,51.52,92,51.42Z"/><path class="cls-1" d="M92.09,51.74v0h0Z"/><path class="cls-1" d="M92.09,51.81a2,2,0,0,0,0,.26l0-.23Z"/><path class="cls-1" d="M92.08,51.72s0,0,0,0h0S92.09,51.73,92.08,51.72Z"/><path class="cls-1" d="M92.09,51.76h0v0Z"/><path class="cls-1" d="M92.08,51.78h0a0,0,0,0,0,0,0h0a1.14,1.14,0,0,0-.15.16Z"/><path class="cls-1" d="M92.08,51.74h0l0,0Z"/><path class="cls-1" d="M92.07,51.82v0L92,52Z"/><path class="cls-1" d="M86.26,26a23.16,23.16,0,0,0,.36,7,3.88,3.88,0,0,0,.73,1.58,1.73,1.73,0,0,0,1.54.67,1.76,1.76,0,0,0,1.27-1.06,4.8,4.8,0,0,0,.34-1.69,28.33,28.33,0,0,0-.26-5.89,5.91,5.91,0,0,0-.76-2.36,2.3,2.3,0,0,0-2.09-1.11.94.94,0,0,0-.46.19,1.11,1.11,0,0,0-.31.63,11.26,11.26,0,0,0-.24,3.66"/><path class="cls-1" d="M84.24,26a25.92,25.92,0,0,0,.36,7.2,5.49,5.49,0,0,0,2.13,3.5,3.5,3.5,0,0,0,4.47-.51,5.94,5.94,0,0,0,1.33-4,26.18,26.18,0,0,0,0-3.43A20.86,20.86,0,0,0,92,25a5.23,5.23,0,0,0-2.38-3.34,4,4,0,0,0-2.73-.46,2.83,2.83,0,0,0-2.16,2.13,12.42,12.42,0,0,0-.34,4.29,2.23,2.23,0,0,0,.6,1.43,2,2,0,0,0,3.44-1.43,11.39,11.39,0,0,1,0-2.61l-.07.54a6.59,6.59,0,0,1,.3-1.4l-.2.48a.8.8,0,0,1,.08-.16l-.31.41a.69.69,0,0,1,.11-.13l-.41.32a.67.67,0,0,1,.18-.11l-.49.2a1.46,1.46,0,0,1,.3-.07l-.54.07a1.85,1.85,0,0,1,.47,0l-.53-.07a2.32,2.32,0,0,1,.45.13l-.48-.21a2.59,2.59,0,0,1,.58.34l-.41-.31a3.11,3.11,0,0,1,.48.48l-.32-.41a4.07,4.07,0,0,1,.42.73l-.21-.48a8.74,8.74,0,0,1,.52,2.26l-.07-.53a24.09,24.09,0,0,1,.13,6.06l.07-.54a3.7,3.7,0,0,1-.23.94l.2-.48a1.83,1.83,0,0,1-.28.49l.32-.4a2.4,2.4,0,0,1-.39.39l.41-.32a1.92,1.92,0,0,1-.31.18l.48-.2a1.91,1.91,0,0,1-.34.1l.54-.07H88.5l.54.07a1.78,1.78,0,0,1-.38-.1l.49.21a3,3,0,0,1-.43-.24l.41.31a2.33,2.33,0,0,1-.42-.41l.31.41a3.89,3.89,0,0,1-.4-.72l.2.48a10.26,10.26,0,0,1-.56-2.39l.07.53a30.43,30.43,0,0,1-.06-5.4,2,2,0,0,0-2-2,2.06,2.06,0,0,0-2,2Z"/><path class="cls-1" d="M103.13,26a22.85,22.85,0,0,0,.37,7,4,4,0,0,0,.72,1.58,1.74,1.74,0,0,0,1.54.67A1.8,1.8,0,0,0,107,34.23a4.58,4.58,0,0,0,.33-1.69,27,27,0,0,0-.26-5.89,5.74,5.74,0,0,0-.75-2.36,2.32,2.32,0,0,0-2.09-1.11,1,1,0,0,0-.47.19,1.1,1.1,0,0,0-.3.63,11,11,0,0,0-.24,3.66"/><path class="cls-1" d="M101.12,26a26.3,26.3,0,0,0,.35,7.2,5.49,5.49,0,0,0,2.13,3.5,3.51,3.51,0,0,0,4.48-.51,5.94,5.94,0,0,0,1.33-4,30.2,30.2,0,0,0,0-3.43,20.86,20.86,0,0,0-.52-3.77,5.23,5.23,0,0,0-2.38-3.34,4,4,0,0,0-2.74-.46,2.83,2.83,0,0,0-2.16,2.13,12.66,12.66,0,0,0-.33,4.29,2.17,2.17,0,0,0,.59,1.43,2,2,0,0,0,3.44-1.43,11.4,11.4,0,0,1,0-2.61l-.07.54a5.55,5.55,0,0,1,.3-1.4l-.21.48a.51.51,0,0,1,.09-.16l-.32.41a.49.49,0,0,1,.12-.13l-.41.32A.62.62,0,0,1,105,25l-.48.2a1.53,1.53,0,0,1,.29-.07l-.53.07a1.85,1.85,0,0,1,.47,0l-.54-.07a2.42,2.42,0,0,1,.46.13l-.48-.21a2.53,2.53,0,0,1,.57.34l-.4-.31a3.05,3.05,0,0,1,.47.48l-.31-.41a3.5,3.5,0,0,1,.41.73l-.2-.48a9.17,9.17,0,0,1,.52,2.26l-.07-.53a24.57,24.57,0,0,1,.13,6.06l.07-.54a4.78,4.78,0,0,1-.23.94l.2-.48a2.6,2.6,0,0,1-.28.49l.32-.4a2.87,2.87,0,0,1-.39.39l.41-.32a1.92,1.92,0,0,1-.31.18l.48-.2a1.79,1.79,0,0,1-.35.1l.54-.07h-.38l.53.07a1.56,1.56,0,0,1-.37-.1l.48.21a2.86,2.86,0,0,1-.42-.24l.4.31a2.71,2.71,0,0,1-.42-.41l.32.41a3.43,3.43,0,0,1-.41-.72l.21.48a9.8,9.8,0,0,1-.57-2.39l.07.53a31.41,31.41,0,0,1,0-5.4,2,2,0,0,0-4,0Z"/><path class="cls-1" d="M80.16,7.49C78.32,6,76.33,4.47,74,3.92A7.54,7.54,0,0,0,70.09,4a10,10,0,0,0-3.34,1.87A26.49,26.49,0,0,0,64.49,8c-.74.75-1.48,1.5-2.2,2.26-1.46,1.52-2.88,3.08-4.22,4.71a43,43,0,0,0-7,11.28,23.94,23.94,0,0,0-1.62,6.16,12.69,12.69,0,0,0,.57,5.93,9.2,9.2,0,0,0,4.3,5,13.37,13.37,0,0,0,6.34,1.4c.48,0,1,0,1.43-.07a2.17,2.17,0,0,0,1.43-.59,2,2,0,0,0-1.43-3.44,15.82,15.82,0,0,1-3.44,0l.54.07A10.56,10.56,0,0,1,56.58,40l.49.21a8.62,8.62,0,0,1-1.77-1l.41.31a7.27,7.27,0,0,1-1.24-1.24l.32.41A7.19,7.19,0,0,1,53.85,37l.2.48a9.39,9.39,0,0,1-.6-2.27l.07.53a13.27,13.27,0,0,1,0-3.56l-.08.54a23.63,23.63,0,0,1,1.72-5.92l-.2.48a39,39,0,0,1,5.13-8.51l-.32.41a93,93,0,0,1,7.58-8.41,25.78,25.78,0,0,1,2.3-2.13L69.27,9a8.54,8.54,0,0,1,1.81-1.09l-.48.21A5.91,5.91,0,0,1,72,7.69l-.53.08a5.7,5.7,0,0,1,1.43,0l-.54-.07a7.27,7.27,0,0,1,1.77.49L73.6,8a15.77,15.77,0,0,1,3.45,2.14l-.41-.32.67.53a2.17,2.17,0,0,0,1.43.59,2,2,0,0,0,1.42-.59,2,2,0,0,0,.59-1.43,1.93,1.93,0,0,0-.59-1.42Z"/><path class="cls-1" d="M117.25,9.1a10.2,10.2,0,0,1,1.83-1l-.48.21a10.79,10.79,0,0,1,2.84-.78l-.54.07a12,12,0,0,1,3,0l-.54-.07a11.32,11.32,0,0,1,2.75.75l-.48-.2A10.88,10.88,0,0,1,128,9.43l-.41-.32a18.3,18.3,0,0,1,3.08,3.2l-.32-.41c1.06,1.38,2,2.84,3.06,4.23,1.23,1.65,2.57,3.2,3.91,4.76.71.82,1.41,1.65,2.07,2.51l-.31-.41A21.83,21.83,0,0,1,142,27.73l-.2-.49a14.91,14.91,0,0,1,1,3.58l-.08-.54a10.65,10.65,0,0,1,0,2.82l.07-.53a9.06,9.06,0,0,1-.59,2.23l.2-.48a9.07,9.07,0,0,1-1.1,1.88l.31-.41A9.49,9.49,0,0,1,140,37.4l.41-.32a11.64,11.64,0,0,1-2.6,1.5l.48-.2a15.29,15.29,0,0,1-3.75,1l.53-.07a18,18,0,0,1-2.55.14,2,2,0,0,0-2,2,2.06,2.06,0,0,0,2,2c4.82.1,10.13-1.72,12.78-6,3.14-5.07,1-11.41-2.21-15.84-1.9-2.61-4.15-4.92-6.13-7.47l.32.41c-2.08-2.7-3.8-5.81-6.45-8A13.27,13.27,0,0,0,126,3.93a12.81,12.81,0,0,0-5.08-.38,12.69,12.69,0,0,0-5.69,2.07,2.09,2.09,0,0,0-.92,1.2,2,2,0,0,0,.2,1.55,2,2,0,0,0,2.76.73Z"/><path class="cls-1" d="M68.25,71a22.19,22.19,0,0,0-6.52,8.19,39.68,39.68,0,0,0-3.45,10.21,30.41,30.41,0,0,0-.59,5.46,2,2,0,1,0,4,0A26.84,26.84,0,0,1,62,91.65l-.07.53a37.67,37.67,0,0,1,2.61-9.42l-.21.49a29.1,29.1,0,0,1,3.63-6.4l-.31.41a16.07,16.07,0,0,1,2.8-2.85l-.41.31.29-.22a2.18,2.18,0,0,0,.93-1.2,2,2,0,0,0-1.41-2.48,2,2,0,0,0-1.56.2Z"/><path class="cls-1" d="M122.75,75.84a27.7,27.7,0,0,1,2.73,4.91l-.21-.48a23.93,23.93,0,0,1,1.69,6.1l-.07-.53c.1.76.16,1.54.19,2.31a2,2,0,1,0,4,0A26.21,26.21,0,0,0,128,76.67a30.78,30.78,0,0,0-1.75-2.86,2.2,2.2,0,0,0-1.21-.93,2.05,2.05,0,0,0-1.55.21,2,2,0,0,0-.72,2.75Z"/><path class="cls-1" d="M131.23,111.71c5.54-1.84,9.8-5.88,14.08-9.66,1.16-1,2.34-2,3.57-3l-.4.31a26.77,26.77,0,0,1,5.88-3.57l-.48.2A13.81,13.81,0,0,1,157,95l-.52.07a4.4,4.4,0,0,1,.89,0l-.53-.07a2.62,2.62,0,0,1,.68.18L157,95a2.62,2.62,0,0,1,.51.3l-.4-.31a2.52,2.52,0,0,1,.4.4l-.31-.4a3.29,3.29,0,0,1,.41.7l-.2-.48a4.94,4.94,0,0,1,.29,1.13l-.07-.52a6.71,6.71,0,0,1,0,1.79l.07-.53a14.1,14.1,0,0,1-1,3.41l.2-.47a20.78,20.78,0,0,1-2.69,4.51l.31-.4a35.16,35.16,0,0,1-6.34,6.15l.4-.31a69.76,69.76,0,0,1-11.84,7.34c-1.21.59-2.43,1.15-3.67,1.67l.48-.2c-1.17.49-2.35,1-3.55,1.39a2.06,2.06,0,0,0-1.18.91,2,2,0,0,0,2.24,2.91,73,73,0,0,0,14.61-7.15,65.37,65.37,0,0,0,6.44-4.65,33.64,33.64,0,0,0,5-4.94,23.16,23.16,0,0,0,3.84-6.7c.8-2.27,1.19-4.87,0-7.1a4.44,4.44,0,0,0-3.71-2.34,9.17,9.17,0,0,0-3.78.8A25.36,25.36,0,0,0,147.74,95c-3.52,2.49-6.56,5.55-9.88,8.28q-.59.49-1.2,1l.4-.31a27.14,27.14,0,0,1-5.9,3.59l.48-.2c-.48.2-1,.38-1.46.55a2,2,0,0,0,1,3.83Z"/><path class="cls-1" d="M80.57,109.32l0,24.68v7l1.29-1.7a14.39,14.39,0,0,0-5.58,2.36A10.84,10.84,0,0,0,72.54,146a6.23,6.23,0,0,0,.31,6.13,5.86,5.86,0,0,0,2.7,2.09,6.62,6.62,0,0,0,2.53.4c2-.06,4.41-.95,5-3.12l-2.94.78a13.63,13.63,0,0,0,2.45,2.41A7.09,7.09,0,0,0,86,156a6.13,6.13,0,0,0,3.32-.56,4.07,4.07,0,0,0,1.45-1.25l.18-.25c.25-.35-.24.25,0,0s.36-.25-.08,0c.23-.14-.48.12-.06,0l-.47.07a1,1,0,0,1,.25,0l-.46-.06.16,0L90,154l.1.06-.17-.13a3.68,3.68,0,0,0,.37.32,3.26,3.26,0,0,0,1.94.82,3.51,3.51,0,0,0,2.84-1.21,3.19,3.19,0,0,0,.77-2,4.29,4.29,0,0,0-.34-1.69,12.56,12.56,0,0,1-.82-2.89l.06.47a45.38,45.38,0,0,1-.13-6.06l0-6.35.08-12.63,0-7.16a1.76,1.76,0,1,0-3.51,0l-.09,14.37c0,4.79-.07,9.58-.09,14.37a25.93,25.93,0,0,0,.22,4,10.73,10.73,0,0,0,.45,1.86,12.65,12.65,0,0,1,.61,1.76l-.06-.46a2.35,2.35,0,0,1,0,.53l.06-.47a1.15,1.15,0,0,1-.06.28s.22-.47.06-.2.31-.33.12-.14c0,0-.15.16-.17.16s.41-.27.12-.12a1,1,0,0,0-.18.1c.31-.22.32-.12.11-.06l-.24.05.46-.07a1.34,1.34,0,0,1-.4,0l.47.06a1.77,1.77,0,0,0-.2,0l.1,0c.15.07.17.08.06,0a.67.67,0,0,0-.14-.09c.37.19.26.2.14.09a4.61,4.61,0,0,0-.89-.69,2.74,2.74,0,0,0-3.17.43,5.94,5.94,0,0,0-.67.83l-.11.16c-.12.17.3-.34.11-.16s-.36.32-.09.11-.09,0-.17.08l-.18.09s.44-.16.2-.09a5.18,5.18,0,0,1-.8.19l.47-.06a5.88,5.88,0,0,1-1.39,0l.47.07a4.84,4.84,0,0,1-.64-.13l-.28-.08c-.14-.05-.47-.23,0,0-.22-.12-.44-.21-.65-.34l-.25-.16c-.12-.08-.44-.38,0,0-.34-.31-.69-.6-1-.93s-.63-.72-.93-1.09a1.72,1.72,0,0,0-1.71-.45,1.75,1.75,0,0,0-1.23,1.23.75.75,0,0,0,0,.16c-.06.25.22-.43.09-.21a.64.64,0,0,0-.08.14c-.15.26.08-.15.14-.17s-.2.21-.25.25c-.19.19.38-.26.17-.12l-.19.12-.34.18c-.16.09.49-.18.17-.08l-.19.07a5.46,5.46,0,0,1-.87.2l.46-.06a6.26,6.26,0,0,1-1.56,0l.47.06a4.83,4.83,0,0,1-1.06-.26c-.39-.14.35.17.1,0l-.25-.12-.22-.15c-.21-.13.34.29,0,0s-.31-.34-.48-.49c.19.25.22.3.12.15l-.1-.14-.15-.25c0-.09-.08-.18-.13-.27.27.5.09.19,0,0a4.72,4.72,0,0,1-.15-.65l.07.47a4.76,4.76,0,0,1,0-1.25l-.07.47a9.72,9.72,0,0,1,.35-1.31c-.16.54-.07.18,0,0l.15-.29c.11-.19.22-.38.34-.57l.19-.28c.09-.11.36-.42,0,0,.16-.17.3-.36.45-.53a9.55,9.55,0,0,1,1-1c.1-.09.47-.31,0,0l.3-.21c.2-.15.41-.29.62-.42a14.43,14.43,0,0,1,1.35-.72c.11-.05.55-.21,0,0l.37-.15.74-.26a14.89,14.89,0,0,1,1.56-.4A1.77,1.77,0,0,0,84.11,141V109.32a1.76,1.76,0,0,0-3.52,0Z"/><path class="cls-1" d="M109,109.32,109,134v7a1.79,1.79,0,0,0,1.3,1.69,14.89,14.89,0,0,1,1.56.4l.74.26.37.15c-.54-.2-.09,0,0,0a14.43,14.43,0,0,1,1.35.72c.21.13.42.27.62.42l.3.21c-.47-.3-.1-.08,0,0a9.55,9.55,0,0,1,1,1c.15.17.29.36.45.53-.39-.44-.11-.13,0,0s.12.19.19.28.23.38.34.57l.14.29c.07.15.16.51,0,0a8.4,8.4,0,0,1,.34,1.31l-.06-.47a4.76,4.76,0,0,1,0,1.25l.07-.47a4.72,4.72,0,0,1-.15.65c0,.15-.23.46,0,0,0,.08-.07.16-.11.23a2.75,2.75,0,0,1-.17.29l-.1.14c-.1.15-.07.1.12-.15-.17.15-.31.34-.48.49s.25-.17,0,0l-.23.15-.24.12c-.26.14.47-.17.13,0a5.27,5.27,0,0,1-1.09.27l.47-.06a6.26,6.26,0,0,1-1.56,0l.46.06a4.75,4.75,0,0,1-.83-.19l-.2-.06c-.3-.11.11,0,.17.07a2.58,2.58,0,0,0-.37-.19l-.16-.11c-.27-.17.29.26.16.13l-.25-.25c-.12-.12.29.44.14.18l-.09-.15c-.15-.26.13.39.09.22l-.06-.19a1.75,1.75,0,0,0-1.23-1.23,1.72,1.72,0,0,0-1.71.45c-.3.37-.61.74-.94,1.09s-.66.62-1,.93c.38-.35.11-.09,0,0l-.3.19c-.21.12-.45.21-.65.34.27-.12.33-.14.17-.08l-.16.06-.24.07c-.23.06-.45.1-.68.14l.47-.07a5.88,5.88,0,0,1-1.39,0l.47.06a6.63,6.63,0,0,1-.77-.18c-.14,0-.28-.17.16.08a.61.61,0,0,0-.14-.07l-.32-.19s.38.33.16.11l-.11-.1c-.23-.22.14.15.12.16s-.11-.14-.12-.15a5.28,5.28,0,0,0-.69-.87,2.73,2.73,0,0,0-3.13-.44,4.22,4.22,0,0,0-.9.67c0,.05-.26.21,0,0s0,0,0,0c-.21.16.2-.11.2-.08s-.22.06-.24.06l.47-.06a1.34,1.34,0,0,1-.4,0l.46.07-.24-.05c-.07,0-.31-.12,0,0s0,0,0,0-.18-.21.08.09a1.85,1.85,0,0,0-.14-.14c-.24-.21.14.13.11.16l-.06-.1c-.07-.12,0,0,.1.26a2.8,2.8,0,0,0-.06-.28l.06.47a2.35,2.35,0,0,1,0-.53l-.06.46a9.34,9.34,0,0,1,.53-1.54,9,9,0,0,0,.45-1.62,20.73,20.73,0,0,0,.31-3.69c0-2.36,0-4.72,0-7.09l-.09-14.37,0-8.09a1.76,1.76,0,1,0-3.51,0l.08,12.69.08,12.64c0,1.17,0,2.35,0,3.53a26.67,26.67,0,0,1-.15,3.34l.06-.47a12,12,0,0,1-.8,2.83,4.75,4.75,0,0,0-.36,1.7,3.16,3.16,0,0,0,.77,2,3.56,3.56,0,0,0,2.8,1.22,3.38,3.38,0,0,0,2-.83,3.68,3.68,0,0,0,.37-.32l-.17.13.07,0c.16-.08.09-.06-.21.08l.16,0-.46.06a1.07,1.07,0,0,1,.25,0l-.47-.07c.42.09-.29-.17-.06,0-.44-.27-.22-.16-.08,0s-.29-.39,0,0l.18.25a4.07,4.07,0,0,0,1.45,1.25,6.13,6.13,0,0,0,3.32.56,7.09,7.09,0,0,0,3.42-1.29A13.63,13.63,0,0,0,113,152.3l-2.94-.78c.5,2,2.55,2.86,4.4,3.07a6.23,6.23,0,0,0,5.13-1.65,6,6,0,0,0,1.33-6,9.84,9.84,0,0,0-3.31-4.67,14.74,14.74,0,0,0-6.41-3l1.29,1.7,0-24.69v-7a1.76,1.76,0,0,0-3.52,0Z"/><path class="cls-1" d="M57.69,94.88c-.15,4-.3,7.92-.3,11.88A100,100,0,0,0,58,118.63a61.13,61.13,0,0,0,2.54,11.89A31.38,31.38,0,0,0,65.44,140a15.67,15.67,0,0,0,8,5.69,9.31,9.31,0,0,0,1.14.25,2.14,2.14,0,0,0,1.55-.2,2,2,0,0,0,.93-1.2,2.07,2.07,0,0,0-.2-1.56,2,2,0,0,0-1.21-.92,11.82,11.82,0,0,1-2.47-.71l.48.2a12.55,12.55,0,0,1-2.78-1.64l.4.31a17.21,17.21,0,0,1-3-3.07l.32.41a25.72,25.72,0,0,1-3.3-5.79l.2.49A52.91,52.91,0,0,1,62.11,119l.07.53a117.12,117.12,0,0,1-.65-19.19c0-1.8.12-3.6.19-5.41a2,2,0,0,0-2-2,2.06,2.06,0,0,0-2,2Z"/><path class="cls-1" d="M119.82,146.64a12.26,12.26,0,0,0,4.67-3.24,19.18,19.18,0,0,0,2.94-4.52A49.42,49.42,0,0,0,131,127.36a84.49,84.49,0,0,0,1.47-12.79c.18-4.2.09-8.4-.13-12.59s-.58-8.39-1-12.59c-.05-.51-.09-1-.14-1.55a2.17,2.17,0,0,0-.59-1.43,2,2,0,0,0-3.44,1.43c.41,4.51.82,9,1.07,13.56A133.55,133.55,0,0,1,128.4,115q-.17,3.8-.67,7.56l.08-.54a65.92,65.92,0,0,1-2.64,11.69c-.3.9-.62,1.79-1,2.66l.2-.48a19.73,19.73,0,0,1-2.5,4.43l.31-.41a11.87,11.87,0,0,1-2.08,2.11l.41-.32a9.86,9.86,0,0,1-2.08,1.22l.48-.2-.17.07a2.23,2.23,0,0,0-1.21.92,2,2,0,0,0,.73,2.76,1.93,1.93,0,0,0,1.55.2Z"/><path class="cls-1" d="M166.7,102.36a5.84,5.84,0,0,1,.18.83l-.08-.53a8.17,8.17,0,0,1,0,2.21l.07-.53a13.57,13.57,0,0,1-.95,3.36l.2-.47a17.48,17.48,0,0,1-2.15,3.66l.31-.41a16.87,16.87,0,0,1-3,3l.4-.31a15.71,15.71,0,0,1-2.19,1.41,2,2,0,0,0-.71,2.71,2,2,0,0,0,2.71.71,18.41,18.41,0,0,0,6.46-5.88,16.71,16.71,0,0,0,2.83-7.27,9.13,9.13,0,0,0-.22-3.57,2,2,0,0,0-2.44-1.38,2,2,0,0,0-1.39,2.44Z"/><path class="cls-1" d="M176,100.75a22.22,22.22,0,0,1-.11,5l.07-.53a23.63,23.63,0,0,1-1.61,5.91l.2-.47a23.83,23.83,0,0,1-3,5.21l.31-.4a21.45,21.45,0,0,1-3.08,3.24,2,2,0,0,0,0,2.81,2,2,0,0,0,2.81,0,24.21,24.21,0,0,0,5.55-7,26.09,26.09,0,0,0,2.78-8.9,22.84,22.84,0,0,0,.09-4.82,2.15,2.15,0,0,0-.58-1.4,2.06,2.06,0,0,0-1.41-.58,2,2,0,0,0-2,2Z"/><path class="cls-2" d="M29.83,132.08a9.79,9.79,0,0,0,1.69-.29,11.38,11.38,0,0,0,1.58-.55A11.08,11.08,0,0,0,39.34,124a12.42,12.42,0,0,0-.16-7.07,10.89,10.89,0,0,0-3.94-5.55,10.53,10.53,0,0,0-7-1.52,11.5,11.5,0,0,0-6.39,2.41,10.07,10.07,0,0,0-3.09,6,19.05,19.05,0,0,0-.34,3.69,10.22,10.22,0,0,0,.69,3.75,7.78,7.78,0,0,0,.7,1.38,8.43,8.43,0,0,0,.94,1.2,9.84,9.84,0,0,0,2.26,1.8A14.09,14.09,0,0,0,28.54,132c.43.05.86.09,1.29.1a.76.76,0,1,0,0-1.52c-.49,0-1-.06-1.46-.12l.21,0a14.71,14.71,0,0,1-2.79-.66c-.26-.09-.52-.19-.77-.3l.18.08a11.69,11.69,0,0,1-2.49-1.44l.16.12a8.63,8.63,0,0,1-1.55-1.53l.12.15a7,7,0,0,1-1-1.63l.07.18a8.74,8.74,0,0,1-.58-2.19l0,.2a15.41,15.41,0,0,1,.07-4.07l0,.2A14,14,0,0,1,21,116l-.08.18A8.57,8.57,0,0,1,22,114.31l-.12.16a7.22,7.22,0,0,1,1.29-1.3l-.15.12a8.52,8.52,0,0,1,1.9-1.09l-.18.07a12.1,12.1,0,0,1,3.07-.81l-.2,0a13.92,13.92,0,0,1,3.59,0l-.2,0a8.63,8.63,0,0,1,2.28.6l-.18-.08a7.89,7.89,0,0,1,1.68,1l-.15-.12a9.14,9.14,0,0,1,1.58,1.59l-.12-.15a10.52,10.52,0,0,1,1.39,2.38l-.08-.18a11.78,11.78,0,0,1,.81,3l0-.2a11.57,11.57,0,0,1,0,3.11l0-.2a10.78,10.78,0,0,1-.76,2.79l.08-.18A10.26,10.26,0,0,1,36.19,127l.12-.16a10.68,10.68,0,0,1-1.9,1.9l.15-.12A10.49,10.49,0,0,1,32.27,130l.19-.08a9.4,9.4,0,0,1-2.44.67l.21,0-.4.05a.75.75,0,0,0-.76.76.75.75,0,0,0,.22.54.73.73,0,0,0,.54.22Z"/><path class="cls-2" d="M23.66,112.94a3.91,3.91,0,0,1,.66.69l-.12-.15a5.12,5.12,0,0,1,.69,1.2l-.07-.19a8.9,8.9,0,0,1,.55,2.16l0-.21a15.94,15.94,0,0,1,.08,3.24c0,.33-.06.67-.1,1l0-.2a12.24,12.24,0,0,1-.83,3.14l.08-.18a9.86,9.86,0,0,1-1.27,2.17l.12-.15A8.58,8.58,0,0,1,22,126.94l.15-.12-.24.18a.77.77,0,0,0-.35.46.74.74,0,0,0,.08.58.72.72,0,0,0,.45.35.76.76,0,0,0,.59-.07,9.41,9.41,0,0,0,2.46-2.61,11.31,11.31,0,0,0,1.41-3.32,16.5,16.5,0,0,0,.47-4,13.28,13.28,0,0,0-.38-3.38A6.48,6.48,0,0,0,25,112.12a3.45,3.45,0,0,0-.28-.26.84.84,0,0,0-.54-.22.76.76,0,0,0-.54,1.3Z"/><path class="cls-2" d="M33.73,111.16a6.83,6.83,0,0,0-2,2.9A12.2,12.2,0,0,0,31,117.5a18.31,18.31,0,0,0,.07,4.12,9.16,9.16,0,0,0,1.31,3.58A9.5,9.5,0,0,0,35,127.94l.35.23a.76.76,0,1,0,.77-1.32q-.36-.22-.69-.48l.15.12A8.63,8.63,0,0,1,34,125l.12.15A8.59,8.59,0,0,1,33,123.2l.07.18a9,9,0,0,1-.59-2.22l0,.2a17,17,0,0,1-.05-3.7c0-.3.05-.59.09-.89l0,.2a10.63,10.63,0,0,1,.69-2.66l-.08.18A6.6,6.6,0,0,1,34,113l-.12.15a5.57,5.57,0,0,1,.94-.94.77.77,0,0,0,.22-.54.75.75,0,0,0-.76-.76l-.2,0a.88.88,0,0,0-.34.19Z"/><path class="cls-2" d="M11.12,137.4a7.9,7.9,0,0,0-1.7-3.21,3.23,3.23,0,0,0-1.78-.85,4.26,4.26,0,0,0-1.63.11,4.47,4.47,0,0,0-2.74,1.73,4.28,4.28,0,0,0-.52,1.76,5.27,5.27,0,0,0,0,1.68,8.75,8.75,0,0,0,1.7,3.49l.72-1.47a8,8,0,0,0-2.8.48,3,3,0,0,0-1.83,2,4,4,0,0,0,2.65,4.41,5.13,5.13,0,0,0,2.88.07,10.52,10.52,0,0,0,2.66-1.1l1.22-.71c.2-.11.4-.22.61-.31a1.22,1.22,0,0,1,.17-.07s-.2.06,0,0a3.15,3.15,0,0,1,.42-.09c.08,0,.07,0,0,0a.67.67,0,0,1,.2,0,2.2,2.2,0,0,1,.36,0c.14,0-.22-.06,0,0l.19.05.39.12,1.63.55L27,150.57l1.66.56c.51.17,1,.33,1.53.54a1,1,0,0,1,.15.07l-.09-.05.12.07a2.2,2.2,0,0,1,.28.18s.22.15,0,0a.93.93,0,0,1,.14.14,3.11,3.11,0,0,1,.23.28s.17.19,0,0c0,0,.06.11.1.16s.1.18.16.27c.15.26.31.51.48.76a5,5,0,0,0,4.22,2,4.42,4.42,0,0,0,2.45-.85,3.5,3.5,0,0,0,1.3-2,4.56,4.56,0,0,0-.21-2.61A3.62,3.62,0,0,0,38,148.21a3.48,3.48,0,0,0-1.31-.42l.34,1.68a11.45,11.45,0,0,0,3.27-2.93,4.16,4.16,0,0,0,.56-4.1,4.09,4.09,0,0,0-3.06-2.19,4.37,4.37,0,0,0-3.64,1.07,6,6,0,0,0-1.92,4.1l1.17-.79q-4.47-1.45-8.93-2.94l-8.9-3-5-1.72a.9.9,0,0,0-1.13.55.92.92,0,0,0,.56,1.13c3,1,5.92,2,8.89,3s5.93,2,8.91,3l5,1.64a.9.9,0,0,0,1.17-.78c0-.13,0-.26,0-.39a1.43,1.43,0,0,1,0-.22s0-.13,0,0,0,0,0,0a4.37,4.37,0,0,1,.25-.8,1.71,1.71,0,0,1,.07-.18l0-.08c.06-.14,0,.05,0,.06s.13-.25.2-.36.15-.24.23-.35L35,143l.08-.1c-.1.11,0,0,.08-.08l.13-.13.34-.28.07,0c.12-.1,0,0-.06,0s.12-.08.17-.1l.36-.19.2-.07-.1,0,.09,0,.36-.08.2,0c.16,0-.19,0,0,0s.26,0,.39,0l.35,0c.14,0-.08,0-.09,0l.1,0,.19.05a3,3,0,0,1,.32.12l.16.06s.14.07,0,0,0,0,0,0a2.29,2.29,0,0,1,.29.18l.13.1.08.06c-.12-.11,0,0,.06,0l.12.14a.47.47,0,0,1,.09.12l.06.07c.09.12-.08-.14,0-.05l.16.3a1,1,0,0,0,.06.16c-.09-.13-.05-.16,0-.08a1,1,0,0,1,0,.14c0,.13,0,.26.08.4v-.09s0,.07,0,.11a1.7,1.7,0,0,1,0,.22,1.8,1.8,0,0,1,0,.22s0,0,0,.08,0-.19,0-.08-.07.27-.12.4-.09.24-.14.36,0-.05,0-.06-.06.1-.06.1a1.32,1.32,0,0,1-.12.2,6.41,6.41,0,0,1-.58.79c-.08.09.11-.12,0,0l-.11.11-.17.18-.37.34a10.56,10.56,0,0,1-.82.68l-.41.3-.22.15-.09.06a.94.94,0,0,0-.48,1,.93.93,0,0,0,.82.7l.14,0c.17,0-.18-.05-.07,0l.23.07.21.09c-.29-.12,0,0,.06,0l.17.13c.19.15-.13-.13,0,0a2.83,2.83,0,0,1,.32.37c.1.14-.11-.18,0,0a.41.41,0,0,1,0,.09,1.27,1.27,0,0,1,.12.23,1.89,1.89,0,0,1,.09.21.36.36,0,0,0,0,.09c-.12-.24,0-.07,0,0s.07.3.1.45a2,2,0,0,0,0,.24c-.05-.25,0-.12,0-.05v.14a4.38,4.38,0,0,1,0,.52c0,.06,0,.14,0-.1l0,.14c0,.08,0,.17-.08.26l-.09.21c-.06.16.1-.16,0-.06l-.06.1-.12.19-.09.11c-.06.08-.13.1,0,0-.13.11-.24.24-.38.34l-.08.06c-.14.1.19-.11,0,0l-.24.14-.21.09-.11,0c-.1.05.22-.07.06,0a3.89,3.89,0,0,1-.49.12l-.23,0c-.17,0,.23,0,0,0h-.14a4.36,4.36,0,0,1-.51,0l-.24,0s-.19,0,0,0,0,0,0,0a4.13,4.13,0,0,1-.5-.15l-.22-.08-.13-.06.06,0a4.48,4.48,0,0,1-.47-.28L33.7,153c-.06,0-.25-.24-.05,0-.12-.12-.25-.24-.36-.37a1.33,1.33,0,0,1-.14-.19s-.13-.17,0,0l-.09-.13-.37-.62a4.28,4.28,0,0,0-1.08-1.24,5.43,5.43,0,0,0-1.48-.7l-1.5-.51L16.2,145,13.09,144a6.35,6.35,0,0,0-1.56-.38,3.47,3.47,0,0,0-1.65.28,7.77,7.77,0,0,0-1.17.63c-.38.23-.75.44-1.14.64a10.59,10.59,0,0,1-1.19.54l-.14,0c.22,0,0,0,0,0l-.29.09c-.21.05-.42.1-.63.13L5,146c-.21,0,.2,0,0,0H4.9a5.07,5.07,0,0,1-.68,0l-.15,0c-.21,0,.21.06,0,0l-.24-.07-.24-.09s-.18-.08,0,0,0,0-.08-.05a2.42,2.42,0,0,1-.42-.29s-.17-.17,0,0L3,145.38l-.23-.24-.18-.22a.7.7,0,0,0-.06-.09c.15.15.07.1,0,0a3.17,3.17,0,0,1-.24-.49c-.07-.16,0,.17,0,0s0-.07,0-.11a2,2,0,0,1,0-.24s0-.09,0-.14,0,.08,0,.09a2.53,2.53,0,0,0,0-.28s0-.09,0-.14c0,.22,0,.17,0,.08s0-.17.08-.25l0-.08c-.06.21-.07.12,0,0a2.27,2.27,0,0,1,.18-.25c.11-.15-.12.11,0,0l.09-.09a1.56,1.56,0,0,1,.2-.16c.15-.12-.18.1,0,0l.09,0a1.47,1.47,0,0,1,.28-.14l.14-.06c.17-.07-.15.05,0,0l.29-.08a5.59,5.59,0,0,1,.59-.11c.18,0,.37,0,.55-.06-.27,0,0,0,.1,0l.32,0a.89.89,0,0,0,.84-.49.9.9,0,0,0-.11-1l-.23-.31-.09-.14c-.07-.1.09.14,0,0l-.06-.09c-.14-.21-.26-.42-.38-.64s-.22-.42-.31-.64a2.85,2.85,0,0,0-.12-.31s.06.18,0,.09a.14.14,0,0,0,0-.07l-.06-.2A5.13,5.13,0,0,1,4.5,138c0-.05,0-.1,0-.15,0-.2,0,.15,0,0s0-.24,0-.36a3.82,3.82,0,0,1,.07-.68c0-.16,0,.19,0,0a1,1,0,0,1,0-.17c0-.13.07-.25.11-.38a.69.69,0,0,0,0-.13c0-.13-.11.2,0,.08l.16-.23,0,0c.06-.09-.15.15-.07.08l.09-.1.24-.2.13-.09s-.17.1-.09.06l.06,0,.3-.17.3-.14.14-.06.1,0-.07,0a4.18,4.18,0,0,1,.68-.16l.15,0H7.2a3,3,0,0,1,.31,0h.07c.09,0-.13,0-.12,0l.17,0c.09,0,.17.07.25.09-.15,0-.14-.07-.06,0l.07,0,.16.1a1,1,0,0,0,.16.13s-.13-.13-.07-.06l.1.09.26.31a.43.43,0,0,0,0,.07c.07.1,0,0,0,0a2.12,2.12,0,0,0,.12.2c.07.12.13.25.2.38.27.58.47,1.18.7,1.78a.88.88,0,0,0,1.18.4.92.92,0,0,0,.41-1.19Z"/><path class="cls-2" d="M184.35,58.75c1.19.74,2.46,1.67,3.75,1.75a2.61,2.61,0,0,0,1.9-.57,3.7,3.7,0,0,0,1-1.36,5.59,5.59,0,0,0,.49-3.76,7.11,7.11,0,0,0-1.06-2.09,7.72,7.72,0,0,0-1.39-1.56,10.22,10.22,0,0,0-4-2l.68,2a7.63,7.63,0,0,0,1.53-2.61,4.21,4.21,0,1,0-7.74-3.32,12,12,0,0,0-.94,3.11c-.09.53-.16,1.08-.25,1.61,0,.27-.1.52-.17.77,0,.06,0,.16-.07.2s.09-.21,0-.05-.14.28-.22.41,0,.09,0,0c0,0-.1.12-.14.15a2.09,2.09,0,0,1-.28.24c-.11.09.19-.11,0,0l-.17.1-.36.19-1.56.73-12.52,5.87-1.59.75c-.49.23-1,.48-1.48.66a.59.59,0,0,1-.16.06l.1,0-.13,0-.33,0c-.05,0-.28,0,0,0l-.2,0-.39-.09c-.05,0-.26,0,0,0a.7.7,0,0,1-.2-.08l-.33-.13c-.31-.13-.62-.25-.94-.35a4.13,4.13,0,0,0-4.47,1.38,4.76,4.76,0,0,0-1,2.71,5.37,5.37,0,0,0,.74,2.94,6.62,6.62,0,0,0,2.25,2.33,3.59,3.59,0,0,0,2.53.58,2.65,2.65,0,0,0,1.23-.61l-1.59-1.34a16.45,16.45,0,0,0,.13,5.32A6.43,6.43,0,0,0,160,77a3.55,3.55,0,0,0,3.85-.28,4.55,4.55,0,0,0,1.63-3.83,9.52,9.52,0,0,0-2-5.41l-.16,1.66q4.22-2.07,8.47-4.1t8.5-4l4.79-2.22a1.16,1.16,0,0,0-1-2q-4.28,2-8.53,4t-8.49,4.05q-2.37,1.14-4.74,2.31a1.11,1.11,0,0,0-.17,1.65c.1.13.2.26.29.4l.15.24s.09.14,0,0l0,.05a10.66,10.66,0,0,1,.47,1l.09.23a.69.69,0,0,1,0,.1l0-.08a4.83,4.83,0,0,0,.16.5l.12.51a2,2,0,0,0,0,.24s.05.33,0,.16,0,.08,0,.13a1.69,1.69,0,0,1,0,.23,4.69,4.69,0,0,1,0,.53s0,.06,0,.09c0,.18,0-.06,0-.07s0,.16,0,.22-.06.31-.1.46a.88.88,0,0,0-.07.23s.08-.2,0-.11,0,.07,0,.1a2.31,2.31,0,0,1-.18.35,1.74,1.74,0,0,1-.11.18c-.09.14.12-.15,0,0s-.18.21-.27.3a2.76,2.76,0,0,1-.27.23c-.12.1.06,0,.07,0l-.08.06-.17.1-.31.14-.16.06s-.15,0,0,0,0,0,0,0l-.34,0h-.35l-.21,0-.15,0-.1,0c-.15,0,.17.08.06,0l-.34-.16-.17-.1c.16.06.16.12.08,0a.71.71,0,0,1-.14-.1c-.13-.1-.25-.21-.37-.32s.08.08.07.08l-.09-.1-.17-.21-.16-.23-.06-.08c-.08-.13.12.21.05.08a5.21,5.21,0,0,1-.24-.47,3.71,3.71,0,0,1-.19-.46c-.08-.19,0,.07,0,.08s0-.13,0-.13-.06-.19-.08-.28a8.87,8.87,0,0,1-.23-1.21c0-.15,0,.2,0,0a1.37,1.37,0,0,0,0-.19c0-.1,0-.2,0-.3l0-.61c0-.43,0-.86,0-1.29,0-.2,0-.4,0-.59l0-.33c0-.07,0-.41,0-.12a1.44,1.44,0,0,0-.46-1.3.84.84,0,0,0-1.12,0l-.11.09c-.14.11.16-.09.06,0s-.15.08-.22.11l-.21.08c.29-.12,0,0-.08,0h-.23c-.24,0,.21,0,0,0a3.33,3.33,0,0,1-.53-.11c-.18-.05.23.09.05,0l-.12,0-.26-.13-.23-.13-.09-.06c.27.13.07,0,0,0a4.94,4.94,0,0,1-.44-.36c-.07-.07-.13-.14-.2-.2.23.19.1.1,0,0l-.11-.13a5,5,0,0,1-.38-.52c-.05-.07-.09-.18.06.11l-.09-.16c-.05-.1-.11-.2-.16-.31l-.11-.27c-.08-.2.07.23,0,.09s0-.09,0-.14a2.86,2.86,0,0,1-.07-.28l0-.17c0-.12,0-.2,0,.05,0-.2,0-.42,0-.62,0,0,0-.08,0-.11,0-.21,0,.25,0,0l.06-.32c0-.08,0-.16.07-.25l0-.12c0-.12-.1.24,0,.07s.15-.33.24-.49l.14-.21c.1-.15-.15.18,0,0l.09-.11a3.32,3.32,0,0,1,.37-.38l.19-.15s.15-.11,0,0,0,0,0,0a3,3,0,0,1,.47-.25l.22-.09.13,0c.17-.06-.19,0-.07,0a4.86,4.86,0,0,1,.55-.1h.24c.07,0,.37,0,.06,0a5,5,0,0,1,.54.07l.25.07c.05,0,.23.06,0,0l.17.06.75.31a4.32,4.32,0,0,0,1.73.35,4.6,4.6,0,0,0,1.59-.49l1.43-.67,11.9-5.58,3-1.39a5.29,5.29,0,0,0,1.38-.85,3.39,3.39,0,0,0,.9-1.54,9.37,9.37,0,0,0,.29-1.51c.08-.51.16-1,.26-1.5a13.06,13.06,0,0,1,.39-1.43A.75.75,0,0,1,181,47c-.12.2,0,.06,0,0s.08-.2.13-.3a4.54,4.54,0,0,1,.32-.62c.05-.09.11-.17.17-.26s-.14.16,0,0l.08-.09a3.78,3.78,0,0,1,.49-.49l.11-.09c.17-.14-.18.11,0,0l.23-.12a1.57,1.57,0,0,1,.23-.09s.2-.06,0,0,.05,0,.08,0a3.07,3.07,0,0,1,.53,0c.06,0,.25,0,0,0h.11a2,2,0,0,1,.35.06l.3.07.11,0c-.22,0-.12,0,0,0a4.18,4.18,0,0,1,.56.28c.17.1-.16-.13,0,0l.11.09.22.18.13.12c.13.12-.07-.07-.08-.08s.16.18.22.27l.1.15c-.17-.21-.1-.19,0-.08l.15.29a.42.42,0,0,0,0,.12c-.13-.25-.06-.18,0-.05s.06.24.08.37,0-.2,0-.06a.92.92,0,0,1,0,.16c0,.11,0,.21,0,.31s0-.24,0,0a.5.5,0,0,1,0,.12,2.09,2.09,0,0,1-.08.34.84.84,0,0,1,0,.17c-.06.2.07-.16,0,0l-.13.3a6.22,6.22,0,0,1-.32.56q-.15.24-.33.48c.17-.24,0,0-.06.08l-.21.27a1.1,1.1,0,0,0-.18,1.11,1.29,1.29,0,0,0,.86.84l.4.13.18.06c.13,0-.18-.07-.05,0l.11.05c.26.09.52.2.78.32s.48.23.72.37.22.15.34.21l-.1-.07.07,0,.2.14a6.42,6.42,0,0,1,.63.54l.13.13c.17.17-.12-.15,0,0l.29.34c.18.23.34.46.5.71s-.13-.22,0,0l.1.18c.08.15.16.3.23.46a1.11,1.11,0,0,1,.07.16c.08.16-.08-.28,0-.11s.06.23.08.34,0,.05,0,.07,0-.25,0-.12,0,.1,0,.15,0,.26,0,.38,0,.13,0,.2,0-.24,0-.13a.28.28,0,0,1,0,.09,2.66,2.66,0,0,1-.07.39,2.37,2.37,0,0,1-.09.36,1.09,1.09,0,0,1-.05.17.76.76,0,0,1,0,.11c0,.11.08-.19,0-.08a6.08,6.08,0,0,1-.33.68l-.08.13s-.15.21-.05.08,0,0,0,0l-.13.15c-.08.07-.15.15-.23.21l-.06,0c-.07.07.11-.07.1-.07l-.15.1a1.86,1.86,0,0,0-.25.1c.13-.09.16,0,.07,0l-.08,0-.19,0h-.22s.2,0,.1,0l-.14,0a3.15,3.15,0,0,1-.42-.09l-.09,0,.06,0a2.18,2.18,0,0,0-.23-.09l-.45-.22c-.65-.33-1.28-.75-1.91-1.15a.77.77,0,0,0-1.14.54,1.4,1.4,0,0,0,.68,1.44Z"/><path class="cls-1" d="M81.26,67.88a20.28,20.28,0,0,0,6.6,4,28.23,28.23,0,0,0,7.49,2,26.49,26.49,0,0,0,7.37-.58,23.49,23.49,0,0,0,6.32-2.1,15.66,15.66,0,0,0,5.81-5.06,2,2,0,0,0-.71-2.71,2,2,0,0,0-2.71.71l-.39.53.31-.4A12.79,12.79,0,0,1,109,66.55l.4-.31a16,16,0,0,1-3.47,2l.48-.2a26.42,26.42,0,0,1-6.55,1.69l.52-.07a21.73,21.73,0,0,1-5.64.14l.53.07A22.26,22.26,0,0,1,91.61,69c-1.12-.35-2.23-.74-3.32-1.19l.48.2a18,18,0,0,1-4.07-2.32l.4.31c-.36-.28-.7-.57-1-.88a2,2,0,1,0-2.81,2.81Z"/><path class="cls-3" d="M91.64,72.9a13.78,13.78,0,0,0,.43,7,5.13,5.13,0,0,0,2.21,3,6.57,6.57,0,0,0,3.91.69,7.68,7.68,0,0,0,3.58-1.42,6.23,6.23,0,0,0,2.49-4.42A11.81,11.81,0,0,0,103.5,73"/><path class="cls-1" d="M90,72.46a15.84,15.84,0,0,0,.22,7.18c.55,2,1.59,4.07,3.62,5a9,9,0,0,0,9.72-1.76,8.08,8.08,0,0,0,1.84-2.78c1-2.42.49-5.13-.3-7.53a1.71,1.71,0,0,0-2.07-1.17,1.69,1.69,0,0,0-1.17,2.06c.17.5.32,1,.45,1.51.06.23.11.47.16.7l.06.35,0,.18c0,.23,0-.33,0-.09a9.78,9.78,0,0,1,0,1.53c0,.08,0,.45,0,.13s0,0,0,.09-.08.38-.13.57-.11.35-.17.52a1.12,1.12,0,0,1,0,.13c-.07.19.15-.34.06-.15a2.59,2.59,0,0,1-.14.29,4.76,4.76,0,0,1-.28.49c-.05.08-.1.16-.16.24a.83.83,0,0,1-.08.12c-.12.17.22-.27.08-.11a11.52,11.52,0,0,1-.92.93c-.14.12.13-.1.13-.1l-.12.08a1.88,1.88,0,0,1-.23.16,6.16,6.16,0,0,1-.55.33l-.27.14-.17.08c.25-.11-.07,0-.13,0l-.35.12-.61.16-.32.06L98,82c-.22,0,.35,0,.13,0a9.09,9.09,0,0,1-1.38,0c-.07,0-.43-.05-.15,0s-.08,0-.14,0a5.28,5.28,0,0,1-.66-.16l-.33-.11-.14,0s.33.15.17.07a6.12,6.12,0,0,1-.56-.31l-.13-.09c-.15-.09.15.12.14.12s-.15-.12-.22-.19-.29-.33-.44-.48.22.31.12.16l-.08-.11-.14-.22a4.29,4.29,0,0,1-.28-.51c0-.06-.16-.36,0-.08s0,0,0-.08c-.08-.21-.15-.41-.21-.62a12.47,12.47,0,0,1-.4-1.6c0-.13,0-.26-.07-.4l0-.17c0-.23,0,.43,0,0s-.06-.54-.07-.81a12.51,12.51,0,0,1,0-1.62c0-.16,0-.31,0-.46s0-.12,0-.18.05-.32,0-.06,0,0,0,0a1.85,1.85,0,0,1,0-.23c0-.16,0-.31.08-.46A1.68,1.68,0,1,0,90,72.46Z"/></g></g></svg>