<svg xmlns="http://www.w3.org/2000/svg" viewBox="0 0 162.17 159.77"><defs><style>.cls-1{fill:#0d4c80;}</style></defs><g id="Layer_2" data-name="Layer 2"><g id="Layer_1-2" data-name="Layer 1"><path class="cls-1" d="M158.05,123.17s0-.1,0-.15a22.62,22.62,0,0,0,0-4.43,2,2,0,0,1,3.39-1.4,2.15,2.15,0,0,1,.58,1.4,22.75,22.75,0,0,1-.09,4.81,26.08,26.08,0,0,1-2.78,8.91,24,24,0,0,1-5.55,7,2,2,0,0,1-2.81,0,2,2,0,0,1,0-2.8,21.28,21.28,0,0,0,2.9-3l-.13.18c.1-.12.19-.23.28-.36h0a23.15,23.15,0,0,0,2.65-4.57A23.71,23.71,0,0,0,158.05,123.17Z"/><path class="cls-1" d="M153.9,133.3c-.09.13-.18.24-.28.36l.13-.18.14-.18Z"/><path class="cls-1" d="M149,121l-.06-.48a1.64,1.64,0,0,1,0,.22c0-.18-.08-.35-.13-.53a2,2,0,0,1,3.83-1,9.09,9.09,0,0,1,.22,3.56,16.54,16.54,0,0,1-2.83,7.27,18.17,18.17,0,0,1-6.46,5.89,2,2,0,0,1-2-3.43,14.84,14.84,0,0,0,2-1.24l-.18.15.4-.31-.22.16a16,16,0,0,0,2.66-2.67,2.43,2.43,0,0,1-.14.2l.31-.4a1.51,1.51,0,0,1-.17.2,16,16,0,0,0,1.93-3.29l-.12.31.2-.48a1.3,1.3,0,0,1-.08.17,13,13,0,0,0,.8-2.87c0,.11,0,.23,0,.34,0-.17.05-.35.07-.52l0,.18a8.18,8.18,0,0,0,0-1.64C149,120.81,149,120.89,149,121Z"/><path class="cls-1" d="M149,120.5l.06.48c0-.09,0-.17,0-.26A1.64,1.64,0,0,0,149,120.5Z"/><path class="cls-1" d="M149,122.18c0,.17-.05.35-.07.52,0-.11,0-.23,0-.34Z"/><path class="cls-1" d="M148.24,125.06l-.2.48.12-.31A1.3,1.3,0,0,0,148.24,125.06Z"/><path class="cls-1" d="M146.4,128.32l-.31.4a2.43,2.43,0,0,0,.14-.2A1.51,1.51,0,0,0,146.4,128.32Z"/><path class="cls-1" d="M143.79,131l-.4.31.18-.15Z"/><path class="cls-1" d="M115.72,134.75c1.2-.5,2.37-1,3.54-1.61a69.55,69.55,0,0,0,11.44-7l.4-.31a35.06,35.06,0,0,0,5.78-5.64,19.92,19.92,0,0,0,2.47-4.17c0,.11-.08.22-.13.33l.17-.41,0-.06a14.26,14.26,0,0,0,.77-2.64,1.79,1.79,0,0,1,0,.23c0-.17.05-.34.07-.51,0,.09,0,.19-.05.28a6.54,6.54,0,0,0,0-1.17.61.61,0,0,1,0,.13c0-.17,0-.35-.07-.52a2,2,0,0,1,0,.34,3.12,3.12,0,0,0-.18-.73,2.1,2.1,0,0,1,.13.26l-.15-.35a.12.12,0,0,1,0,0l0-.07a.25.25,0,0,1,0-.07l.09,0-.09-.06h0l-.08-.06v0l.09,0-.11-.05,0,0h0l-.05-.06a.21.21,0,0,1,0,.06h-.1l-.12-.05.08,0-.21,0-.12,0,.09,0-.34,0s.05,0,.07,0a13.78,13.78,0,0,0-2.39.75l-.26.11a27.43,27.43,0,0,0-5.35,3.28c-1.15.9-2.25,1.85-3.34,2.81-4.09,3.61-8.17,7.47-13.36,9.4,0-1.41-.08-2.81-.13-4.22a27.61,27.61,0,0,0,4.84-3l.4-.31-.22.16q.52-.39,1-.81c3.32-2.73,6.36-5.79,9.88-8.28a25.36,25.36,0,0,1,5.73-3.09,9.17,9.17,0,0,1,3.78-.8,4.44,4.44,0,0,1,3.71,2.34c1.15,2.23.76,4.83,0,7.1a23.16,23.16,0,0,1-3.84,6.7,33.64,33.64,0,0,1-5,4.94,65.37,65.37,0,0,1-6.44,4.65,72.51,72.51,0,0,1-13.33,6.67c0-1.4-.09-2.79-.13-4.18l.86-.35A.75.75,0,0,0,115.72,134.75Z"/><path class="cls-1" d="M140.28,67.13l.1,0,.24.07a1.45,1.45,0,0,1,1,1.6,1.47,1.47,0,0,1-1.43,1.27l-.16,0H140s0,0,0,0h0s0,0,0,0h-.07l0-.1.39-2.88,0,0Z"/><path class="cls-1" d="M140.28,67.13h0Z"/><path class="cls-1" d="M138.13,64.63h0a.14.14,0,0,0,0,.06,8.24,8.24,0,0,0,.58,1c0,.09.11.17.17.26a0,0,0,0,1,0,0l.08.1,0,0c.1.11.2.23.3.33l.36.33h0l.11.09h0l0,0,.24.16.25.13.1.05h0l0,0a9.75,9.75,0,0,0-3.38.92,11.72,11.72,0,0,1-2.44-7c.34-.38.66-.78,1-1.18a15.56,15.56,0,0,0,1.76-3.07h.18c0,.94-.05,1.88,0,2.82,0,.51,0,1,.08,1.53,0,.13,0,.27,0,.4a1.33,1.33,0,0,0,0,.4s0,0,0,.07l.06.33a10.58,10.58,0,0,0,.33,1.4,6,6,0,0,0,.2.6A2.34,2.34,0,0,0,138.13,64.63Z"/><path class="cls-1" d="M140.19,111.65c0,.17.05.35.07.52a.61.61,0,0,0,0-.13s0,0,0-.05A2,2,0,0,0,140.19,111.65Z"/><path class="cls-1" d="M140.24,112.93c0,.17,0,.34-.07.51a1.79,1.79,0,0,0,0-.23C140.21,113.12,140.22,113,140.24,112.93Z"/><path class="cls-1" d="M140.23,67.17l-.39,2.88a5.86,5.86,0,0,1-2.73-1.66l-.26-.3A9.75,9.75,0,0,1,140.23,67.17Z"/><path class="cls-1" d="M140,111.17l.15.35a2.1,2.1,0,0,0-.13-.26s0,0,0,0a.16.16,0,0,0,0-.09S140,111.16,140,111.17Z"/><path class="cls-1" d="M140.1,70.11h0Z"/><path class="cls-1" d="M140,111.15l0,.07a.12.12,0,0,0,0,0Z"/><path class="cls-1" d="M140.07,111.13l-.09,0h0Z"/><path class="cls-1" d="M140,111.15a.16.16,0,0,1,0,.09.76.76,0,0,0-.12-.19A.28.28,0,0,1,140,111.15Z"/><path class="cls-1" d="M140,70.12h0Z"/><path class="cls-1" d="M140,111.17s0,0,0,0,0,0,0,0l0,0Z"/><path class="cls-1" d="M140,111.15l0,0s0,0,0,0A.25.25,0,0,0,140,111.15Z"/><path class="cls-1" d="M140,111.15a.28.28,0,0,0-.09-.1h0s0,0,0,0a.05.05,0,0,1,0,0l.07.09S140,111.14,140,111.15Z"/><path class="cls-1" d="M140,111.13l-.07-.09a.09.09,0,0,1,0,0h0S140,111.11,140,111.13Z"/><path class="cls-1" d="M140,111.06h0a.09.09,0,0,0,0,0l0,0Z"/><path class="cls-1" d="M140,111l-.09,0s0,0,0,0Z"/><path class="cls-1" d="M140,70.13h0s0,0,0,0Z"/><path class="cls-1" d="M139.9,111l0,0a.07.07,0,0,1-.06-.06Z"/><path class="cls-1" d="M139.89,111v0l0,0S139.88,111,139.89,111Z"/><path class="cls-1" d="M139.89,111s0,0,0,0h0a.1.1,0,0,0-.05,0h0a0,0,0,0,1,0,0A.05.05,0,0,1,139.89,111Z"/><path class="cls-1" d="M139.89,111s0,0,0,0a0,0,0,0,0,0,0s0,0,0,0h0S139.88,111,139.89,111Z"/><path class="cls-1" d="M139.87,111h0s0,0,0,0h0Z"/><path class="cls-1" d="M139.82,111a.1.1,0,0,1,.05,0l-.08,0Z"/><path class="cls-1" d="M139.85,111s0,0,0,0l0,0Z"/><path class="cls-1" d="M134.51,73.66l0,0,0,0-.37.51c-.24.36-.47.74-.68,1.12s-.34.7-.51,1c0,0,0,0,0,0l0,.06h0a1,1,0,0,0-.07.16,2.08,2.08,0,0,0-.12.32l-.09.25-.07,0a15.47,15.47,0,0,0-.86-4.58,13.21,13.21,0,0,1,5.21-4.55l.26.3a5.86,5.86,0,0,0,2.73,1.66l0,.1-.59.13-.59.19-.27.09h0c-.05,0-.18.08-.1,0a9.64,9.64,0,0,0-1,.54q-.26.15-.51.33l-.26.18-.07,0,0,0h0s0,0,0,0h0a0,0,0,0,0,0,0l-.11.09-.24.2-.44.41a12.48,12.48,0,0,0-.86.92Z"/><path class="cls-1" d="M139.86,111h0l0,0h0Z"/><path class="cls-1" d="M139.85,111h0l0,0s0,0,0,0S139.85,110.94,139.85,111Z"/><polygon class="cls-1" points="139.83 110.91 139.84 110.92 139.83 110.92 139.83 110.91"/><path class="cls-1" d="M139.83,110.91h0a0,0,0,0,0,0,0Z"/><path class="cls-1" d="M139.78,110.85l.05.06h0A.21.21,0,0,0,139.78,110.85Z"/><path class="cls-1" d="M139.83,110.92s0,0,0,0h0A0,0,0,0,1,139.83,110.92Z"/><path class="cls-1" d="M139.79,110.93l0,0h0s0,0,0,0l-.06,0h.07A0,0,0,0,1,139.79,110.93Z"/><path class="cls-1" d="M139.82,110.94h0a0,0,0,0,0,0,0h0Z"/><path class="cls-1" d="M139.77,110.91h0Z"/><path class="cls-1" d="M139.78,110.92h0Z"/><polygon class="cls-1" points="139.76 110.9 139.77 110.91 139.76 110.91 139.76 110.9"/><path class="cls-1" d="M139.71,110.91l.06,0a.31.31,0,0,0-.13,0Z"/><path class="cls-1" d="M139.76,110.9h0Z"/><path class="cls-1" d="M139.76,110.91h0l0,0h.08Z"/><path class="cls-1" d="M139.72,110.9h0l-.08,0Z"/><path class="cls-1" d="M139.71,66.81h0l-.11-.09h0l0,0s0,0,0,0Z"/><path class="cls-1" d="M139.71,110.91h-.07l-.17,0,.21,0Z"/><path class="cls-1" d="M139.64,110.91a2.46,2.46,0,0,0-.47,0l.27,0h0Z"/><path class="cls-1" d="M139.47,110.87h0l-.09,0Z"/><path class="cls-1" d="M139.44,110.87l-.27,0s0,0-.07,0Z"/><path class="cls-1" d="M139.39,115.91l-.17.41c.05-.11.09-.22.13-.33A.3.3,0,0,0,139.39,115.91Z"/><path class="cls-1" d="M139,66.08l0,0-.08-.1h0Z"/><path class="cls-1" d="M138.41,70.56l0,0,0,0Z"/><path class="cls-1" d="M138.4,70.56l0,0-.07,0C138.22,70.64,138.35,70.58,138.4,70.56Z"/><path class="cls-1" d="M136.25,54.68a1.5,1.5,0,0,1,1.08,1.41c0,.25,0,.5,0,.75h-.18l-2.73-.74-.11-.06c.11-.22.21-.45.31-.68A1.48,1.48,0,0,1,136.25,54.68Z"/><path class="cls-1" d="M134.4,56.09l2.73.74a15.56,15.56,0,0,1-1.76,3.07c-.3.4-.62.8-1,1.18A48.9,48.9,0,0,1,134.4,56.09Z"/><path class="cls-1" d="M136.46,71.71l0,0h0Z"/><path class="cls-1" d="M136.39,71.77a0,0,0,0,0,0,0h0Z"/><path class="cls-1" d="M126.18,62.69h.09l.1,0,.1,0,.32-.07a6.22,6.22,0,0,0,.71-.19c.19-.06.39-.12.58-.2l.09,0,.05,0h.06l0,0,.08,0a12.38,12.38,0,0,0,1.14-.6l.59-.39.29-.2.05,0,.06,0h0l0,0h0l0,0,.14-.11.24-.21c.17-.15.34-.3.5-.46a11.58,11.58,0,0,0,1-1l.27-.32,0,0h0s0,0,0,0a.22.22,0,0,0,.09-.1h0c0-.06.07-.12.09-.14s.15-.21.22-.31A14.26,14.26,0,0,0,134.29,56l.11.06a48.9,48.9,0,0,0,0,5A13.7,13.7,0,0,1,128,65.3a5.36,5.36,0,0,0-2.62-1.89,1.48,1.48,0,0,0-1.77.93.88.88,0,0,1,0-.16,1.46,1.46,0,0,1,1.46-1.46h.71l.35,0h.07Z"/><path class="cls-1" d="M132.86,58.41h0s0,0-.05,0Z"/><path class="cls-1" d="M132.5,77.22l.07,0-.12.37a1.46,1.46,0,0,1-2.87-.39,2.56,2.56,0,0,0,0-.39h.08Z"/><path class="cls-1" d="M132.5,77.22l-2.87-.39a15.68,15.68,0,0,1,1.43-3.28c.18-.31.38-.61.58-.91A15.47,15.47,0,0,1,132.5,77.22Z"/><path class="cls-1" d="M124.68,66.24l0,0,.06,0-.18-.07a1.49,1.49,0,0,1-1-1.8.32.32,0,0,1,0-.09,1.46,1.46,0,0,0,1.44,1.3,9.7,9.7,0,0,0,3-.34,3.92,3.92,0,0,1,.25.32A15.11,15.11,0,0,1,129.63,68c.44.88.87,1.76,1.26,2.67a20.61,20.61,0,0,1,.75,2c-.2.3-.4.6-.58.91a15.68,15.68,0,0,0-1.43,3.28h-.08a4.41,4.41,0,0,0,0-.52c0-.06,0-.11,0-.17v-.06a0,0,0,0,0,0,0,.55.55,0,0,0,0-.09c0-.08,0-.14,0-.21-.09-.52-.22-1-.36-1.55s-.29-.93-.46-1.38c-.08-.22-.17-.43-.25-.65,0,0,0,0,0,0s0,0,0,0a.3.3,0,0,1,0-.1,2.14,2.14,0,0,1-.1-.22c-.37-.84-.78-1.67-1.2-2.5a18.83,18.83,0,0,0-1.2-2.09s0,0,0,0h0l0,0,0,0-.08-.1-.21-.23c-.1-.11-.22-.2-.33-.31l0,0-.09-.07s0,0,0,0l-.08-.06-.21-.12-.06,0,.06,0Z"/><path class="cls-1" d="M130.57,60.73l0,0Z"/><path class="cls-1" d="M130.46,60.82l.06,0Z"/><path class="cls-1" d="M128.31,62.09l0,0,0,0Z"/><path class="cls-1" d="M128.3,62.09l0,0h0Z"/><path class="cls-1" d="M128.27,62.11h-.05Z"/><path class="cls-1" d="M126.31,103.26a2.09,2.09,0,0,1,.55,2.07,2.22,2.22,0,0,1-1.49,1.5q-5.64,2-11.35,3.9l-.09,0c0-.15,0-.3,0-.45a2.14,2.14,0,1,0-4.27,0l.06,1.78q-8,2.49-16.16,4.57l-2.59.65a25.4,25.4,0,0,1-3,.64,3.86,3.86,0,0,1-1.65-.15,6,6,0,0,1-1.74-1c-.7-.55-1.38-1.11-2.08-1.67q-3.8-3.06-7.59-6.1a2.12,2.12,0,0,0-.77-.62l-.13-.11a1.19,1.19,0,0,1-.19-.2,2.18,2.18,0,0,0,0-2c1-.32,2-.7,3-1l.23.17,5.31,4.27c1.63,1.32,3.25,2.66,4.91,4l.29.22-.18-.06.16.07h-.21l.24,0-.14,0,.16,0h0l.28.12-.2-.11.21,0-.24,0,.33,0-.23,0c.59-.11,1.16-.28,1.74-.42l2-.5c1.37-.35,2.74-.7,4.11-1.07q7.26-1.92,14.43-4.18,5.32-1.66,10.59-3.52l2.7,2.27c.32-1.19.63-2.38.95-3.57l-3.65,1.3-.58-.49-11.59-9.71a.57.57,0,0,1-.11-.11l.63-.24a2.26,2.26,0,0,0,1.27-1,2.14,2.14,0,0,0,.22-1.64,2.38,2.38,0,0,0-.35-.67,2.34,2.34,0,0,1,1.36.62l3.29,2.76Z"/><path class="cls-1" d="M126.34,62.66h0l-.1,0h.07Z"/><path class="cls-1" d="M126.3,62.67h0Z"/><path class="cls-1" d="M128,65.3a9.7,9.7,0,0,1-3,.34,1.46,1.46,0,0,1-1.44-1.3,1.48,1.48,0,0,1,1.77-.93A5.36,5.36,0,0,1,128,65.3Z"/><path class="cls-1" d="M125.75,67.12l0,0h0Z"/><polygon class="cls-1" points="125.79 67.17 125.79 67.18 125.78 67.17 125.79 67.17"/><path class="cls-1" d="M125.2,66.55l0,0,0,0s0,0,0,0Z"/><path class="cls-1" d="M124.84,66.32l-.06,0-.06,0,0,0Z"/><path class="cls-1" d="M124.24,102.71c-.32,1.19-.63,2.38-.95,3.57l-2.7-2.27Z"/><path class="cls-1" d="M99.67,7.57a11.22,11.22,0,0,0-2.59,0l.24,0-.53.07.29,0a11.19,11.19,0,0,0-2.35.64L95,8.08l-.24.11h0l-.17.08-.4.22L94,8.34a23.42,23.42,0,0,0-2.9-2.73,12.71,12.71,0,0,1,5.68-2.06,12.75,12.75,0,0,1,9.93,3c2.52,2.11,4.19,5,6.13,7.62l.31.41c-.08-.11-.17-.22-.24-.33,2,2.52,4.17,4.82,6.06,7.39,3.24,4.43,5.34,10.77,2.2,15.84-2.45,4-7.19,5.81-11.71,6-.26-1.35-.54-2.68-.85-4a14.37,14.37,0,0,0,2.07-.12,1.28,1.28,0,0,1-.27.05l.54-.07-.27,0a14.23,14.23,0,0,0,3.27-.87l-.27.12.48-.2-.21.08a10.53,10.53,0,0,0,2.13-1.23l-.2.17.41-.32-.21.15A8.76,8.76,0,0,0,117.35,36c0,.07-.1.15-.16.22l.32-.41c-.05.06-.1.13-.16.19a7.37,7.37,0,0,0,.83-1.44,1.34,1.34,0,0,1-.09.26c.07-.16.14-.32.2-.48a.91.91,0,0,1-.11.22,7.7,7.7,0,0,0,.46-1.69,2.28,2.28,0,0,1,0,.26c0-.18,0-.36.07-.54a2.74,2.74,0,0,1,0,.28,10.57,10.57,0,0,0,0-2.25,1.7,1.7,0,0,1,0,.22c0-.18,0-.36-.07-.53,0,.1,0,.21,0,.31a13.6,13.6,0,0,0-.86-3.07,21.34,21.34,0,0,0-2.48-4.13l0-.06c-.65-.84-1.34-1.65-2-2.45-1.34-1.56-2.69-3.11-3.92-4.75-.94-1.26-1.8-2.58-2.74-3.83l-.06-.08a18.15,18.15,0,0,0-2.84-3l.23.17-.41-.32.18.15a10.47,10.47,0,0,0-1.89-1.1,1.57,1.57,0,0,1,.28.1l-.48-.2.2.1A11.13,11.13,0,0,0,99.67,7.57Z"/><path class="cls-1" d="M119.58,119.76l-.4.31.18-.15Z"/><path class="cls-1" d="M118.69,32.57c0,.18,0,.36-.07.54a2.28,2.28,0,0,0,0-.26A2.74,2.74,0,0,0,118.69,32.57Z"/><path class="cls-1" d="M118.59,30.29c0,.17,0,.35.07.53a1.7,1.7,0,0,0,0-.22C118.62,30.5,118.6,30.39,118.59,30.29Z"/><path class="cls-1" d="M118.29,34.32c-.06.16-.13.32-.2.48a1.34,1.34,0,0,0,.09-.26A.91.91,0,0,0,118.29,34.32Z"/><path class="cls-1" d="M117.51,35.79l-.32.41c.06-.07.11-.15.16-.22S117.46,35.85,117.51,35.79Z"/><path class="cls-1" d="M116.3,37.08l-.41.32.2-.17Z"/><path class="cls-1" d="M89.46,153.73l0,0-.07,0h0l0,0-1.36.58q-1.35.59-2.7,1.2-2.74,1.24-5.46,2.58a23.38,23.38,0,0,1-3,1.38,6.24,6.24,0,0,1-3.68-.11c-2-.52-4-1.09-5.91-1.69q-5.81-1.78-11.48-4c-3.87-1.48-7.67-3.14-11.46-4.83L43,148.35l-.67-.29-.33-.14c-.88-.36-1.76-.71-2.66-1a33.92,33.92,0,0,0-5.7-1.59A2.19,2.19,0,0,1,32,143.23c-.15-2.07-.23-4.15-.28-6.22-.17-7.58,0-15.16.28-22.73,1.4.67,2.8,1.31,4.22,1.92,0,1-.07,2-.09,3-.2,7.41-.4,14.87,0,22.28-.48-.11-1-.21-1.46-.3l1.56,2.06c0-.59-.08-1.17-.1-1.76q.67.17,1.35.36a81.48,81.48,0,0,1,11,4.37l2.71,1.19.42.18,0,0,.08,0,0,0,.06,0h0l0,0,.39.16,1.32.54c1.85.75,3.72,1.48,5.59,2.17q5.59,2.06,11.33,3.73l1.06.3c0,.3,0,.59.07.89a2.26,2.26,0,0,0,.62,1.51,2.2,2.2,0,0,0,1.51.63A2.17,2.17,0,0,0,76,155.48c0-.06,0-.12,0-.18l.38-.19,1.25-.63c.89-.44,1.77-.87,2.66-1.29a185.46,185.46,0,0,1,22.16-8.81c1.87-.6,3.76-1.17,5.65-1.72.86-.25,1.73-.49,2.6-.72l0,.55v.24a1.1,1.1,0,0,1,.16-.53,1.58,1.58,0,0,1,.32-.38l.13,0,.12-.05h0l-.12,0,0,0h-.06l-.29.08-.24.07v-.05c0-1.31-.1-2.62-.14-3.93l.52,0a1.59,1.59,0,0,0,.07.5,2,2,0,0,0,2.44,1.38c.43-.15.85-.31,1.28-.48,0,.15,0,.31,0,.46,0,.85.07,1.71.1,2.57a3.64,3.64,0,0,1-.42,2,3.39,3.39,0,0,1-1.84,1.42c-.85.33-1.77.51-2.65.76s-1.89.54-2.83.82q-2.89.87-5.76,1.84-5.67,1.91-11.19,4.19l-.75.31Z"/><path class="cls-1" d="M114.73,135.16c0,1.39.09,2.78.13,4.18-.43.17-.85.33-1.28.48a2,2,0,0,1-2.44-1.38,1.59,1.59,0,0,1-.07-.5,2.11,2.11,0,0,1,.27-1,2.06,2.06,0,0,1,1.18-.91C113.26,135.73,114,135.46,114.73,135.16Z"/><path class="cls-1" d="M114.71,134.6c0,.19,0,.37,0,.56-.73.3-1.47.57-2.21.84a2.06,2.06,0,0,0-1.18.91,2.11,2.11,0,0,0-.27,1l-.52,0-.21-6.4c-.21-6.49-.4-13-.64-19.47,1.41-.43,2.82-.88,4.23-1.33,0,.66,0,1.33.07,2,.12,3.43.23,6.87.34,10.3l-.5.23c-.37.15-.76.3-1.14.42a2,2,0,0,0,1,3.83l.72-.26Z"/><path class="cls-1" d="M113.84,123.28l.5-.23c0,1.41.09,2.81.13,4.22l-.72.26a2,2,0,0,1-1-3.83C113.08,123.58,113.47,123.43,113.84,123.28Z"/><path class="cls-1" d="M114.17,38.38l-.48.2.27-.12Z"/><path class="cls-1" d="M113.91,110.31c0,.15,0,.3,0,.45-1.41.45-2.82.9-4.23,1.33l-.06-1.78a2.14,2.14,0,1,1,4.27,0Z"/><path class="cls-1" d="M112.92,14.27c.07.11.16.22.24.33l-.31-.41Z"/><path class="cls-1" d="M111.48,141.71h0Z"/><path class="cls-1" d="M111.45,141.72l-.12.05-.13,0,0,0,0,0h0l0,0Z"/><path class="cls-1" d="M111.25,141.78l0,0h0Z"/><path class="cls-1" d="M111.22,141.79h0c-.06,0-.09,0,0,0a1.58,1.58,0,0,0-.32.38,1.1,1.1,0,0,0-.16.53v-.24l0-.55.24-.07Z"/><path class="cls-1" d="M111.22,141.8l0,0C111.13,141.85,111.16,141.82,111.22,141.8Z"/><path class="cls-1" d="M81.54,4.9l-.4-.15c-.3-.1-.61-.2-.92-.28A11.82,11.82,0,0,0,79,4.21l-.19,0h.06c-.07,0-.37-.06-.28,0l-.44-.05a26.26,26.26,0,0,0-3.32,0q-.84,0-1.68.12l-.7.08h-.1l-.34,0A31.59,31.59,0,0,0,68.86,5c-1.06.26-2.09.57-3.12.93a10.51,10.51,0,0,0-1.53.59l0,0h0l-.38.17L63,7a2,2,0,0,0,.93-1.2,2,2,0,0,0-1.41-2.48,2.32,2.32,0,0,0-1.55.2,35.58,35.58,0,0,1,6.39-2.38A37.69,37.69,0,0,1,74.45.06a22.3,22.3,0,0,1,6.47.43A19.85,19.85,0,0,1,84.84,2l.41.2.08,0,0,0,1.19.49a17.7,17.7,0,0,1,2.55,1.43c.68.45,1.34.93,2,1.44h0a2,2,0,0,0-.73,2.76,2.05,2.05,0,0,0,2.76.72,8.74,8.74,0,0,1,1-.61,53.54,53.54,0,0,1,3.8,4.94A58.77,58.77,0,0,1,103.6,23.6a89.57,89.57,0,0,1,5,15.85h-.21a2,2,0,0,0-2,2,2.07,2.07,0,0,0,2,2c.35,0,.7,0,1.06,0,.21,1,.4,2.08.59,3.13a82.06,82.06,0,0,1,.9,8.58c.09,1.32.17,2.64.17,4a16.53,16.53,0,0,1-.91,5.16,23.61,23.61,0,0,1-6.92,9.84c-.2.18-.41.35-.62.52-.18-.29-.37-.57-.57-.85a2.21,2.21,0,0,0-1.2-.93,2.07,2.07,0,0,0-1.56.21,2.64,2.64,0,0,0-.41.34l-.59-.5c.23-.16.47-.33.69-.5l.2-.14.12-.11,0,0c.28-.24.6-.46.87-.7a26.93,26.93,0,0,0,2.12-2c.34-.35.66-.71,1-1.09l.29-.34,0,0,0,0,0,0c.06-.08.12-.18.19-.26a20,20,0,0,0,1.47-2.31c.21-.39.41-.81.61-1.21v0h0s0,0,0,0l0-.12v0l.06-.13c.07-.18.14-.36.2-.55a16.62,16.62,0,0,0,.67-2.63c0,.36,0-.28,0-.16,0-.07,0-.13,0-.19s0-.38,0-.57,0-.4,0-.6a81.9,81.9,0,0,0-.56-8.42c-.06-.65-.14-1.31-.22-2,0,0,0,0,0-.09s0-.06,0-.09,0,0,0,0v0a1.23,1.23,0,0,0,0-.13c0-.2-.06-.4-.09-.6-.34-1.94-.74-3.88-1.15-5.8a106.48,106.48,0,0,0-3-11.12c-.29-.87-.6-1.74-.92-2.6-.17-.44-.34-.89-.52-1.33l-.27-.67,0-.09,0,0s0,0,0-.05c-.75-1.73-1.56-3.43-2.45-5.08s-1.89-3.29-3-4.85c-.55-.81-1.12-1.61-1.71-2.39-.08-.11-.16-.21-.23-.32h0l-.07-.09,0,.05,0-.05-.45-.57c-.31-.4-.64-.8-1-1.19a19.41,19.41,0,0,0-1.9-1.95c-.38-.34-.78-.68-1.18-1l-.2-.16.2.15A1.57,1.57,0,0,0,88,8.32l-.53-.38a18.48,18.48,0,0,0-2.45-1.47l-.35-.17h0l-.14-.06h0l-.3-.11c-.38-.16-.77-.32-1.15-.5L81.82,5l-.2-.09-.06,0Z"/><path class="cls-1" d="M111,39.31l-.54.07a1.28,1.28,0,0,0,.27-.05Z"/><path class="cls-1" d="M110.43,90.84a2.14,2.14,0,0,1-.22,1.64,2.26,2.26,0,0,1-1.27,1l-.63.24a1.75,1.75,0,0,1-.42-.78A1.92,1.92,0,0,0,109,91.15c0-.25,0-.49,0-.74a2.23,2.23,0,0,1,1-.25h.15A2.38,2.38,0,0,1,110.43,90.84Z"/><path class="cls-1" d="M110.07,90.17h-.14a2.23,2.23,0,0,0-1,.25c0-.37-.08-.75-.13-1.12A2.34,2.34,0,0,1,110.07,90.17Z"/><path class="cls-1" d="M109.47,43.47c-.36,0-.71,0-1.06,0a2.07,2.07,0,0,1-2-2,2,2,0,0,1,2-2h.21C108.93,40.79,109.21,42.12,109.47,43.47Z"/><path class="cls-1" d="M109,91.15a1.92,1.92,0,0,1-1.09,1.77,3.44,3.44,0,0,1-.09-.62,2.13,2.13,0,0,1,.62-1.51,1.84,1.84,0,0,1,.52-.38C109,90.66,109,90.9,109,91.15Z"/><path class="cls-1" d="M104.92,90.43l2.88-1.08a1.68,1.68,0,0,1,1-.06c0,.37.1.75.13,1.12a1.84,1.84,0,0,0-.52.38,2.13,2.13,0,0,0-.62,1.51,3.44,3.44,0,0,0,.09.62,2.25,2.25,0,0,1-.92.25,2,2,0,0,1-2-2c0-.24,0-.48,0-.71Z"/><path class="cls-1" d="M103,83.83a44.15,44.15,0,0,0-3.54-6.78,32.82,32.82,0,0,0,3.26-2.39c.5.77,1,1.56,1.42,2.36a50.53,50.53,0,0,1,3.32,7.21,26,26,0,0,1,1.39,5.06,1.68,1.68,0,0,0-1,.06l-2.88,1.08a2.23,2.23,0,0,0,0-.23A27,27,0,0,0,103,83.92Z"/><path class="cls-1" d="M108.31,93.7l-1.22.46Q99.56,97,92,99.74t-15.18,5.33h0a2.06,2.06,0,0,0-1.28-.46,2.13,2.13,0,0,0-1.51.63,2.17,2.17,0,0,0-.38.52.91.91,0,0,0-.18-.21,2.18,2.18,0,0,0-3,0l-1.32,1.28a3.42,3.42,0,0,1-.45,0,29.42,29.42,0,0,1-3.93-.9c-1.19-.32-2.37-.66-3.55-1a143,143,0,0,1-14.52-5.28c-4.1-1.74-8.12-3.68-12-5.81.37-.37.74-.75,1.1-1.14a2.11,2.11,0,0,0,.19-.23,2,2,0,0,0,1.25-.58l.31-.4a2.2,2.2,0,0,0,.26-.81q2.39,1.27,4.83,2.46c1.09.53,2.18,1,3.29,1.54l1.62.72.88.38.34.14h0l.05,0h0l.11,0q3.29,1.36,6.64,2.58l1.63.57q.13.36.3.72a2,2,0,0,0,1.19.91,2,2,0,0,0,1.53-.2,1.91,1.91,0,0,0,.38-.31c.62.2,1.23.39,1.85.57,1.16.35,2.32.68,3.49,1a29.33,29.33,0,0,0,3.33.8l-.32,0,.57.07a.9.9,0,0,1-.16,0,7.79,7.79,0,0,0,1.08,0l-.25,0,.56-.07-.31,0a26.26,26.26,0,0,0,3.88-1.17L78.44,100,80,99.47a1.65,1.65,0,0,0,.65.32A2,2,0,0,0,83,98.41v0q5.05-1.76,10.09-3.59Q99,92.66,104.9,90.44c0,.23,0,.47,0,.71a2,2,0,0,0,2,2,2.25,2.25,0,0,0,.92-.25A1.75,1.75,0,0,0,108.31,93.7Z"/><path class="cls-1" d="M107,60.43c0-.12-.06.52,0,.16a.17.17,0,0,1,0-.07h0S107,60.45,107,60.43Z"/><path class="cls-1" d="M106.29,48.47s0,0,0,0A.08.08,0,0,0,106.29,48.47Z"/><path class="cls-1" d="M106.09,63.82a.31.31,0,0,1,0,.08v0a.56.56,0,0,0,0,.12Z"/><path class="cls-1" d="M104.92,90.43h0a1.94,1.94,0,0,0,0-.24A2.23,2.23,0,0,1,104.92,90.43Z"/><path class="cls-1" d="M103.89,9.43l-.23-.17-.18-.15Z"/><path class="cls-1" d="M103.73,67.88l0,0Z"/><path class="cls-1" d="M103.67,68l0,0A.05.05,0,0,1,103.67,68Z"/><path class="cls-1" d="M102.11,73.81c.2.28.39.56.57.85a32.82,32.82,0,0,1-3.26,2.39c-.25-.4-.51-.81-.79-1.2a2,2,0,0,1,.31-2.42,2.64,2.64,0,0,1,.41-.34,2.07,2.07,0,0,1,1.56-.21A2.21,2.21,0,0,1,102.11,73.81Z"/><path class="cls-1" d="M102.05,8.26a1.57,1.57,0,0,0-.28-.1l-.2-.1Z"/><path class="cls-1" d="M40.9,58.05c0,.08,0,.13,0,.13.15.86.27,1.72.46,2.58a26.11,26.11,0,0,0,.78,2.75c.08.23.17.46.25.68a1.19,1.19,0,0,1,.08.2s0,0,0,0a0,0,0,0,0,0,0v0l.06.12a.08.08,0,0,1,0,0,0,0,0,0,1,0,0v0c.17.36.33.72.52,1.07s.46.83.71,1.23.48.65.68,1a.1.1,0,0,1,0,0l.09.11a3.11,3.11,0,0,0,.23.28l.42.46c.34.37.69.72,1,1.07s.78.73,1.19,1.08c.16.14.32.28.49.41l.29.24h0c.15,0,.49.37.6.45l.62.43c.39.27.78.52,1.17.77.84.51,1.7,1,2.57,1.42.46.23.93.45,1.4.66a3,3,0,0,1,.71.31l.24.1a39.43,39.43,0,0,0,5.59,1.77c1,.24,2,.44,3,.62l1.57.26.4,0h0a5,5,0,0,1,.66.08,49.25,49.25,0,0,0,5.95.38h.08c2,0,4-.09,5.93-.22,1.09-.06,2.18-.15,3.27-.26l1.63-.18h.16l.12,0,.81-.12a41.45,41.45,0,0,0,6.05-1.39c.51-.16,1-.34,1.52-.52l.74-.29h0a.68.68,0,0,0,.24-.1l.12-.06A26,26,0,0,0,96,74.42c.81-.46,1.59-1,2.35-1.49l.59.5a2,2,0,0,0-.31,2.42c.28.39.54.8.79,1.2a32,32,0,0,1-7,3.37A52.34,52.34,0,0,1,79.16,82.7a66.73,66.73,0,0,1-12.24-.12,48.2,48.2,0,0,1-12.25-2.91,36.11,36.11,0,0,1-8.82-4.92,1.84,1.84,0,0,1,.22-.17l.1-.08a2.15,2.15,0,0,0,.93-1.2,2.1,2.1,0,0,0-.2-1.55,2.05,2.05,0,0,0-1.21-.93,2,2,0,0,0-1.55.2c-.45.33-.89.67-1.31,1a18.14,18.14,0,0,1-3-4,23.71,23.71,0,0,1-2.2-5.77,40.48,40.48,0,0,1-1-6.29,55.68,55.68,0,0,1-.18-6.06,47.39,47.39,0,0,1,.45-5.19c.37,0,.74,0,1.1-.06a2.17,2.17,0,0,0,1.43-.59A2,2,0,0,0,38,40.62l-.36,0Q38.22,38,39,35.4a94.45,94.45,0,0,1,4.84-13.24A43.81,43.81,0,0,1,52.3,9.65l.52.39s0,0,.07.06h0l.3.24a2.14,2.14,0,0,0,1.42.59,2.07,2.07,0,0,0,1.43-.59,2,2,0,0,0,0-2.85l-.69-.55A27.5,27.5,0,0,1,61,3.56a2,2,0,0,0-.73,2.76A2.06,2.06,0,0,0,63,7,26.54,26.54,0,0,0,58.1,9.92a3.44,3.44,0,0,1-.36.28.12.12,0,0,1,0,0l-.08.07-.49.4c-.36.3-.71.6-1.06.92A29.21,29.21,0,0,0,54,13.7c-.34.38-.68.76-1,1.15l-.41.5-.15.19,0,0h0c-.05.07-.18.23-.12.17-.58.76-1.12,1.53-1.64,2.33-.3.47-.6.95-.88,1.43-.86,1.44-1.63,2.93-2.34,4.44-.25.51-.48,1-.71,1.55l-.13.31-.08.17h0c-.09.2-.17.41-.25.61-.41,1-.8,2-1.17,3.07a88.26,88.26,0,0,0-3.8,13.22c-.12.59-.22,1.18-.32,1.77,0,.29-.09.59-.13.88a.12.12,0,0,0,0,0,0,0,0,0,0,0,0h0v0s0,0,0,.08v0a.51.51,0,0,0,0,.09.43.43,0,0,1,0,.05c-.14,1.16-.24,2.33-.29,3.5a56.27,56.27,0,0,0,.13,6.09c0,.5.08,1,.13,1.49,0,.24,0,.49.08.74C40.86,57.76,40.88,57.93,40.9,58.05Z"/><path class="cls-1" d="M97.32,7.51l-.24,0-.29,0Z"/><path class="cls-1" d="M95,8.08l-.23.11h0Z"/><path class="cls-1" d="M94.72,8.19l0,0,0,0Z"/><path class="cls-1" d="M94.71,8.19l0,0-.13,0Z"/><path class="cls-1" d="M94,8.34l.13.15a8.74,8.74,0,0,0-1,.61,2.05,2.05,0,0,1-2.76-.72,2,2,0,0,1,.73-2.76h0A23.42,23.42,0,0,1,94,8.34Z"/><path class="cls-1" d="M92.87,13.28l.07.09h0a.05.05,0,0,0,0,0Z"/><path class="cls-1" d="M92.9,13.33a.05.05,0,0,1,0,0Z"/><path class="cls-1" d="M60.68,67.07a18.17,18.17,0,0,0,3.74,2.13l-.29-.11.48.2-.19-.09c1,.41,2,.75,3,1.07a24.69,24.69,0,0,0,3.38.88h0a2,2,0,0,0,4,0l1-.11.37,0A25.25,25.25,0,0,0,82,69.48l-.17.08.48-.2-.31.12a15.11,15.11,0,0,0,3.12-1.79l-.22.19.4-.31a1.88,1.88,0,0,1-.18.12,12.17,12.17,0,0,0,2-2l.22-.3a2,2,0,0,1,3.62.47,2,2,0,0,1-.2,1.53,15.66,15.66,0,0,1-5.81,5.06,24.34,24.34,0,0,1-6.32,2.1,30.67,30.67,0,0,1-5.74.64c-.55,0-1.09,0-1.63-.07a27.49,27.49,0,0,1-7.49-2,20.28,20.28,0,0,1-6.6-4,2,2,0,0,1,2.81-2.8C60.16,66.63,60.41,66.85,60.68,67.07Z"/><path class="cls-1" d="M89.46,153.73l0,0Z"/><path class="cls-1" d="M89.41,153.75l-.07,0Z"/><path class="cls-1" d="M89.33,153.78l0,0h0Z"/><path class="cls-1" d="M88,113.68l-.33,0h0s0,0,0,0l.12,0Z"/><path class="cls-1" d="M87.86,113.78l-.21,0,0,0Z"/><path class="cls-1" d="M87.85,113.86l-.28-.12h.08Z"/><path class="cls-1" d="M87.72,113.7l-.12,0h.12Z"/><path class="cls-1" d="M87.65,113.75h0Z"/><path class="cls-1" d="M87.6,113.72s0,0,0,0h0S87.59,113.73,87.6,113.72Z"/><path class="cls-1" d="M87.6,113.72s0,0,0,0h0Z"/><path class="cls-1" d="M87.6,113.73h0Z"/><path class="cls-1" d="M87.58,113.72h0a0,0,0,0,0,0,0Z"/><path class="cls-1" d="M87.57,113.71h0l-.29-.22A4,4,0,0,0,87.57,113.71Z"/><path class="cls-1" d="M87.55,113.73h0Z"/><path class="cls-1" d="M87.54,113.71a0,0,0,0,1,0,0l0,0Z"/><path class="cls-1" d="M87.53,113.71l0,0,0,0h0Z"/><path class="cls-1" d="M87.55,113.73h0l-.24,0h.21Z"/><path class="cls-1" d="M87.55,113.74l-.16,0,.14,0Z"/><path class="cls-1" d="M87.52,113.7h0Z"/><path class="cls-1" d="M87.52,113.7h0l-.16-.07Z"/><path class="cls-1" d="M85.44,2.27l-.06,0Z"/><path class="cls-1" d="M85.25,28.81a26.18,26.18,0,0,1,0,3.43,5.94,5.94,0,0,1-1.33,4,3.54,3.54,0,0,1-4,.77,3.91,3.91,0,0,1-.44-.26,5.55,5.55,0,0,1-2.14-3.49,19,19,0,0,1-.42-3.6c0-1.2,0-2.41.07-3.61a1.87,1.87,0,0,1,.11-.59,12.77,12.77,0,0,0,0,2.23,2.21,2.21,0,0,0,.59,1.42,2.09,2.09,0,0,0,1.23.58A14.69,14.69,0,0,0,79.38,33a3.88,3.88,0,0,0,.73,1.58,1.73,1.73,0,0,0,1.53.67,1.78,1.78,0,0,0,1.28-1.06,4.8,4.8,0,0,0,.34-1.69A28.33,28.33,0,0,0,83,26.65a5.91,5.91,0,0,0-.76-2.36,2.27,2.27,0,0,0-2.09-1.1.82.82,0,0,0-.46.18,1.11,1.11,0,0,0-.31.63s0,0,0,.05A1.1,1.1,0,0,0,79,24a2,2,0,0,0-1.9,1.42,11.67,11.67,0,0,1,.35-2.06,2.83,2.83,0,0,1,2.16-2.14,4,4,0,0,1,2.73.46,5.23,5.23,0,0,1,2.38,3.35A20.63,20.63,0,0,1,85.25,28.81Z"/><path class="cls-1" d="M85.26,67.57l-.4.31.22-.19A1.88,1.88,0,0,0,85.26,67.57Z"/><path class="cls-1" d="M84.73,6.3h-.06l0,0,0,0Z"/><path class="cls-1" d="M84.64,6.27l-.07,0h0Z"/><path class="cls-1" d="M83.82,78.22h.11l-.12,0Z"/><path class="cls-1" d="M83.82,78.22h0Z"/><path class="cls-1" d="M79.23,94.27s0,0,0,0l-.16-.2.08,0L79.05,94h0l0,0,.07,0L79,94h0a.05.05,0,0,0,0,0h-.11l-.09,0h0l-.14-.06.13.07h-.08l-.12,0,.08,0-.36,0,.22,0c-.94.19-1.81.62-2.75.79a6,6,0,0,1-2.42,0,8.12,8.12,0,0,1-1.43-.51l-.25-.11-.06,0,0,0h0a7.75,7.75,0,0,0-.78-.24h.22l-.3,0,.14,0-.18,0-.19,0,.15,0-.31,0h.25c-.65.16-1.24.48-1.9.64a7.78,7.78,0,0,1-2.5.17c-1.44-.14-2.83-.55-4.25-.79h-.1a7.7,7.7,0,0,0-1.36-.06l.14,0a1.25,1.25,0,0,0-.19,0l-.17,0h-.09a.06.06,0,0,1,0-.06v-.07h0v0c0-.07.05-.13.07-.2a1,1,0,0,1-.07.15l0-.28c0,.11,0,.21,0,.31v0a.36.36,0,0,0,0,.09s0,0,0,0a.76.76,0,0,0-.08.11h0a0,0,0,0,1,0,0l-.19.08.16-.06-.08.07.11-.07,0,.07.1-.09s0,0,0,0h0a.06.06,0,0,1,0,0s0,0,0,0l.1,0c0,.41,0,.82.07,1.23l0-.18c0,.18,0,.35.07.53,0-.11,0-.23,0-.35a12.09,12.09,0,0,0,.76,2.83c0-.11-.09-.21-.14-.31.07.15.14.31.2.47a2.08,2.08,0,0,1,.14,1.37,1.62,1.62,0,0,1-.53.87c-1.14-.36-2.27-.73-3.4-1.12A13,13,0,0,1,56.3,96a6.92,6.92,0,0,1,.28-4.27,4.29,4.29,0,0,1,3.46-2c2-.24,4,.5,5.95.82l-.2,0,.4,0-.17,0a8.2,8.2,0,0,0,1.21,0l-.14,0,.53-.07-.31,0a8.2,8.2,0,0,0,1.19-.37,6.61,6.61,0,0,1,1.75-.44,5.69,5.69,0,0,1,2.86.59l.41.17h0a4.51,4.51,0,0,0,.86.27h-.23l.34,0h0l.17,0-.14,0a.76.76,0,0,0,.21,0h-.08c.9-.16,1.74-.56,2.64-.76a4.73,4.73,0,0,1,4,.74,5.26,5.26,0,0,1,2,3.19A11.5,11.5,0,0,1,83,98.39q-1.55.56-3.09,1.08a2,2,0,0,1-.74-2.12c.08-.37.15-.73.2-1.11a1.64,1.64,0,0,1,0,.22c0-.13,0-.25,0-.37l0,.15a6.62,6.62,0,0,0,0-1.18.58.58,0,0,1,0,.14l-.06-.45,0,.31a2.66,2.66,0,0,0-.17-.63c0,.08.08.16.12.24C79.35,94.54,79.29,94.41,79.23,94.27Z"/><path class="cls-1" d="M81.05,33.51a.36.36,0,0,0,0-.09h0l0,0h0l.11,0,.19,0,.12,0,.07,0h0l.07.08a.08.08,0,0,1,0,0l.19.14-.18-.16.2.08-.22-.11h0a0,0,0,0,1,0,0h.09a.23.23,0,0,1-.11,0h0l0,0a1.67,1.67,0,0,1-.12-.23,5,5,0,0,1-.23-.78A25.13,25.13,0,0,0,81.16,28a2,2,0,0,0,0-.35,11.7,11.7,0,0,1,0-2.44.08.08,0,0,1,0,0v-.05a4.41,4.41,0,0,1,.24-.95c-.06.13-.11.25-.16.38l-.2.25L80.8,25h0a2.09,2.09,0,0,0-1.4-1s0,0,0-.05a1.11,1.11,0,0,1,.31-.63.82.82,0,0,1,.46-.18,2.27,2.27,0,0,1,2.09,1.1A5.91,5.91,0,0,1,83,26.65a28.33,28.33,0,0,1,.26,5.89,4.8,4.8,0,0,1-.34,1.69,1.78,1.78,0,0,1-1.28,1.06,1.73,1.73,0,0,1-1.53-.67A3.88,3.88,0,0,1,79.38,33a14.69,14.69,0,0,1-.44-3.37h.2a2.23,2.23,0,0,0,1.8-1.07,20.26,20.26,0,0,0,.12,2.58,2,2,0,0,0,0,.24,1.49,1.49,0,0,1,0-.21,9.26,9.26,0,0,0,.2,1.05c0,.19,0,.37,0,.56a.07.07,0,0,1,0,.05,2.68,2.68,0,0,1-.11.49,0,0,0,0,1,0,0l-.12.07.1,0-.2.18.17-.13,0,0,0,0A.09.09,0,0,1,81.05,33.51Z"/><path class="cls-1" d="M83,98.39v0a2,2,0,0,1-2.44,1.38,1.65,1.65,0,0,1-.65-.32Q81.5,98.95,83,98.39Z"/><path class="cls-1" d="M82.27,69.36l-.48.2.17-.08Z"/><path class="cls-1" d="M81.91,33.46l-.2-.08s0,0,0,0Z"/><path class="cls-1" d="M81.89,33.54l-.19-.14v0s0,0,0,0l0,0Z"/><path class="cls-1" d="M81.62,4.93l.2.09-.08,0Z"/><path class="cls-1" d="M81.76,33.34h-.09s0,0,0,0,0,0,0,0A.23.23,0,0,0,81.76,33.34Z"/><path class="cls-1" d="M81.62,4.93l.12.06-.14-.06Z"/><path class="cls-1" d="M81.7,33.4a.08.08,0,0,0,0,0l-.07-.08,0,0Z"/><path class="cls-1" d="M81.69,33.35s0,0,0,0l0,0s0,0,0,0,0,0,0,0a0,0,0,0,0,0,0Z"/><path class="cls-1" d="M81.69,33.38l0,0h0S81.69,33.38,81.69,33.38Z"/><path class="cls-1" d="M81.68,33.36h0a0,0,0,0,1,0,0h0S81.66,33.35,81.68,33.36Z"/><path class="cls-1" d="M81.65,33.31s0,0,0,0h0v0Z"/><path class="cls-1" d="M81.64,33.31v0l0,0Z"/><path class="cls-1" d="M81.63,33.31l0,0h0v0Z"/><path class="cls-1" d="M81.63,33.33a0,0,0,0,0,0,0l-.07,0h.06Z"/><path class="cls-1" d="M81.62,33.28l0,0h0a0,0,0,0,1,0,0h0Z"/><path class="cls-1" d="M81.62,33.31v0l0,0s0,0,0,0h0Z"/><path class="cls-1" d="M81.61,33.3a0,0,0,0,0,0,0h0Z"/><path class="cls-1" d="M81.62,4.93h0a0,0,0,0,0,0,0Z"/><path class="cls-1" d="M81.62,33.28h0Z"/><path class="cls-1" d="M81.62,33.28h0l0,0s0,0,0,0A.23.23,0,0,0,81.62,33.28Z"/><path class="cls-1" d="M81.62,33.28a.23.23,0,0,1-.07-.07.75.75,0,0,1,0-.16A1.67,1.67,0,0,0,81.62,33.28Z"/><path class="cls-1" d="M81.62,33.33h-.05l-.06,0h.07Z"/><path class="cls-1" d="M81.6,33.29h0s0,0,0,0h0Z"/><path class="cls-1" d="M81.59,33.28h0Z"/><path class="cls-1" d="M81.56,33.24l0,0h0A.08.08,0,0,1,81.56,33.24Z"/><polygon class="cls-1" points="81.58 33.29 81.58 33.3 81.57 33.29 81.58 33.29"/><path class="cls-1" d="M81.58,33.28h0Z"/><path class="cls-1" d="M81.58,33.28h0l-.06-.05Z"/><path class="cls-1" d="M81.22,33.25l-.09.1h0a1.12,1.12,0,0,0,0-.13v0a0,0,0,0,1,0,0h0s0,0,0-.08,0-.26,0-.38a.3.3,0,0,1,0,.1c0-.19,0-.37,0-.56a5,5,0,0,0,.23.78,1.79,1.79,0,0,1-.12-.24c.06.13.11.26.16.39l0,0,0,.07a.08.08,0,0,0,0,0l-.08-.05.06.05h0l-.11,0-.07,0h-.09a.21.21,0,0,1-.1.06h0Z"/><path class="cls-1" d="M81.57,33.29h0Z"/><path class="cls-1" d="M81.57,33.32l-.12,0h.06Z"/><path class="cls-1" d="M81.56,33.24l0-.07,0,0h0S81.56,33.23,81.56,33.24Z"/><path class="cls-1" d="M81.5,33.05a.75.75,0,0,0,0,.16h0c-.05-.13-.1-.26-.16-.39A1.79,1.79,0,0,0,81.5,33.05Z"/><path class="cls-1" d="M81.53,33.29h0Z"/><path class="cls-1" d="M81.42,33.26l.11,0h0Z"/><path class="cls-1" d="M81.49,33.29h0Z"/><path class="cls-1" d="M81.49,33.29h-.13l.06,0Z"/><path class="cls-1" d="M81.45,33.3l-.19,0s0,0,.06,0h.13Z"/><path class="cls-1" d="M81,24.9l.1-.11,0,0,.2-.25s0,0,0,0a.25.25,0,0,1,0-.07l0,.05c0-.13.1-.25.16-.38a4.41,4.41,0,0,0-.24.95s0,.06,0,.09a11.7,11.7,0,0,0,0,2.44,2,2,0,0,1,0,.35l-.09-.69c0,.11,0,.22.05.33,0-.17-.05-.35-.07-.53a2.8,2.8,0,0,0-.06-.28c0-.28,0-.55,0-.82a1.76,1.76,0,0,0-.25-1l.09-.06-.07,0,.27-.21Z"/><path class="cls-1" d="M81.42,33.26l-.06,0h0Z"/><path class="cls-1" d="M81.35,33.28h0Z"/><path class="cls-1" d="M81.34,33.29h0l-.11,0,.05,0h.08Z"/><path class="cls-1" d="M81.32,33.3s0,0-.06,0h-.05Z"/><path class="cls-1" d="M81.31,24.52a.25.25,0,0,0,0,.07s0,0,0,0Z"/><path class="cls-1" d="M81.16,28a25.13,25.13,0,0,1,.11,4.25,9.26,9.26,0,0,1-.2-1.05,0,0,0,0,1,0,0,20.26,20.26,0,0,1-.12-2.58A1.56,1.56,0,0,0,81.16,28Z"/><path class="cls-1" d="M81.26,33.28l-.05,0h0A.21.21,0,0,0,81.26,33.28Z"/><path class="cls-1" d="M81.26,33.33l-.11,0,0,0h.08Z"/><path class="cls-1" d="M81.24,32.73c0,.12,0,.25,0,.38a1.79,1.79,0,0,0,0-.23.07.07,0,0,0,0-.05A.3.3,0,0,0,81.24,32.73Z"/><path class="cls-1" d="M81.22,33.25l-.07.09h0Z"/><path class="cls-1" d="M81.21,32.88a1.79,1.79,0,0,1,0,.23s0,0,0,.08h0v0l-.06.13v0A2.68,2.68,0,0,0,81.21,32.88Z"/><path class="cls-1" d="M81.21,33.33h0Z"/><path class="cls-1" d="M81.19,25.14v.05a.08.08,0,0,0,0,0S81.19,25.17,81.19,25.14Z"/><path class="cls-1" d="M81.19,33.19a0,0,0,0,0,0,0h0Z"/><path class="cls-1" d="M81.18,33.34l0,0h0a0,0,0,0,0,0,0l0,0h0s0,0,0,0h0Z"/><path class="cls-1" d="M81.17,33.22a1.12,1.12,0,0,1,0,.13h0Z"/><path class="cls-1" d="M81.07,27.33l.09.69a1.56,1.56,0,0,1-.22.59c0-.59,0-1.18,0-1.76a2.8,2.8,0,0,1,.06.28A1.23,1.23,0,0,1,81.07,27.33Z"/><path class="cls-1" d="M81.15,33.34s0,0,0,0h0Z"/><path class="cls-1" d="M81.14,33.35l0,0h0s0,0,0,0Z"/><path class="cls-1" d="M81.14,33.38l0,0h0Z"/><path class="cls-1" d="M81.13,33.35s0,0,0,0h0Z"/><path class="cls-1" d="M81.12,33.35h0v0Z"/><path class="cls-1" d="M81.12,33.37a0,0,0,0,1,0,0v0Z"/><path class="cls-1" d="M81.05,27.13c0,.18,0,.36.07.53,0-.11,0-.22-.05-.33A1.23,1.23,0,0,0,81.05,27.13Z"/><path class="cls-1" d="M81.12,33.36h0Z"/><path class="cls-1" d="M81.11,33.37v0h0s0,0,0,0h0s0,0,0,0Z"/><path class="cls-1" d="M81.11,24.79l-.1.11.06-.08Z"/><path class="cls-1" d="M81.11,33.39h0Z"/><path class="cls-1" d="M81.1,33.37s0,0,0,0h0A0,0,0,0,0,81.1,33.37Z"/><path class="cls-1" d="M81.1,33.4h0a0,0,0,0,0,0,0h0Z"/><path class="cls-1" d="M81.09,33.38s0,0,0,0h0l-.1,0Z"/><path class="cls-1" d="M81.09,33.42a.36.36,0,0,1,0,.09.09.09,0,0,0,0,0s0,0,0,0Z"/><path class="cls-1" d="M81.07,31.22a1.49,1.49,0,0,0,0,.21,2,2,0,0,1,0-.24A0,0,0,0,0,81.07,31.22Z"/><path class="cls-1" d="M81.09,33.39h0Z"/><path class="cls-1" d="M81.09,33.42l0,0h0Z"/><path class="cls-1" d="M81.08,33.4h0Z"/><path class="cls-1" d="M81.08,33.41a0,0,0,0,1,0,0h0a.08.08,0,0,0,0,0Z"/><path class="cls-1" d="M81.07,33.41a.08.08,0,0,1,0,0h0s0,0,0,0l-.17.13Z"/><path class="cls-1" d="M81.07,33.44s0,0,0,0l0,0,0,0s0,0,0,0h0Z"/><path class="cls-1" d="M80.61,25.43l-.1-.12.11.06-.13-.1,0,0a0,0,0,0,0,0,0l.09,0-.1,0h.18l-.16,0a1.55,1.55,0,0,1,.23-.06l-.16,0,.24-.1-.07.06.08-.05A1.76,1.76,0,0,1,81,26c0,.27,0,.54,0,.82a6.13,6.13,0,0,0-.32-1.26c0,.09.09.19.14.29l-.17-.39h0l0-.06Z"/><path class="cls-1" d="M80.4,25.17h-.05l-.12-.09.09.08-.26-.11a.78.78,0,0,1,.2.11l-.17,0,.21.05-.15,0h.17s0,0,0,0l0,0,0,0a.57.57,0,0,1,.13.14l0,0,.11.19A6.13,6.13,0,0,1,81,26.85c0,.58,0,1.17,0,1.76a2.23,2.23,0,0,1-1.8,1.07h-.2c0-1.21,0-2.43.07-3.64l.09,1.08a11.26,11.26,0,0,1,.27-3.06,2.09,2.09,0,0,1,1.4,1h0l-.24.1h0Z"/><path class="cls-1" d="M80.8,25l.07,0-.09.06h0Z"/><path class="cls-1" d="M80.64,25.49l.17.39c0-.1-.09-.2-.14-.29a.36.36,0,0,0,0-.11Z"/><path class="cls-1" d="M80.8,25l0,0h0Z"/><path class="cls-1" d="M80.77,25.05h0l-.08.05Z"/><path class="cls-1" d="M80.53,25.15l.16,0a1.55,1.55,0,0,0-.23.06,0,0,0,0,0,0,0l.07,0Z"/><path class="cls-1" d="M80.63,25.48a.36.36,0,0,1,0,.11l-.11-.19.06.06S80.63,25.47,80.63,25.48Z"/><path class="cls-1" d="M80.62,25.44l0,.06h0s0,0,0,0Z"/><path class="cls-1" d="M80.62,25.44v0l-.06-.06,0,0a.18.18,0,0,0,0-.08s0,0,0,0l.1.12Z"/><path class="cls-1" d="M80.62,25.21h-.16Z"/><path class="cls-1" d="M80.62,25.37l-.11-.06s0,0,0,0Z"/><path class="cls-1" d="M80.54,25.26l-.09,0h0Z"/><path class="cls-1" d="M80.48,25.29a.18.18,0,0,1,0,.08.57.57,0,0,0-.13-.14A.24.24,0,0,1,80.48,25.29Z"/><path class="cls-1" d="M80.52,25.15l-.07,0h0Z"/><path class="cls-1" d="M80.49,25.27s0,0,0,0,0,0,0,0l0,0Z"/><path class="cls-1" d="M80.46,25.25l0,0a.24.24,0,0,0-.08-.06l0,0a0,0,0,0,0,0,0h0Z"/><path class="cls-1" d="M80.46,25.19h0A0,0,0,0,1,80.46,25.19Z"/><path class="cls-1" d="M80.46,25.25l0,0h0A0,0,0,0,1,80.46,25.25Z"/><path class="cls-1" d="M80.45,25.18h0a0,0,0,0,0,0,0Z"/><path class="cls-1" d="M80.44,25.21h0Z"/><path class="cls-1" d="M80.44,25.22h0Z"/><path class="cls-1" d="M80.43,25.2h0Z"/><polygon class="cls-1" points="80.42 25.19 80.43 25.2 80.42 25.2 80.42 25.19"/><path class="cls-1" d="M80.42,25.19h0l0,0h.06A0,0,0,0,1,80.42,25.19Z"/><path class="cls-1" d="M80.41,25.2h0A0,0,0,0,1,80.41,25.2Z"/><path class="cls-1" d="M68,51.75h0l0,0a2.18,2.18,0,0,1-.09.23,1.24,1.24,0,0,1,.1-.2l0,.23a2,2,0,0,1,0-.26s0,.1,0,.15a.57.57,0,0,1,0-.13l.15.33a1.59,1.59,0,0,1-.07-.2,15.85,15.85,0,0,0,1,1.7c.37.62.75,1.23,1.14,1.84.74,1.13,1.51,2.23,2.33,3.3-.06-.06-.1-.12-.15-.18l.14.19L70.83,61a1.38,1.38,0,0,0-.21.46h0a1.49,1.49,0,0,0-.18.82c0,.12,0,.24,0,.36a57.07,57.07,0,0,1-5.16-7.38A12.54,12.54,0,0,1,64.17,53a4,4,0,0,1,.25-3.11,4.56,4.56,0,0,1,1.81-1.86,7.41,7.41,0,0,1,2.8-.81c1.51-.2,3-.3,4.56-.44.82-.08,1.68-.2,2.53-.2a6.07,6.07,0,0,1,1.8.25,4.35,4.35,0,0,1,2.32,1.72,4.7,4.7,0,0,1,.7,2.59,9.75,9.75,0,0,1-1.38,4.63,33.49,33.49,0,0,1-2.36,3.42l-2.67,3.57,0-.21a2.14,2.14,0,0,0-.5-1.95c-.47-.55-.94-1.12-1.39-1.7a.41.41,0,0,1-.1-.13l1.58-2.11a22.16,22.16,0,0,0,2.35-3.64,1.15,1.15,0,0,1-.06.17c0-.06.05-.11.07-.17s.09-.21.14-.31a2.39,2.39,0,0,1-.13.28,7.11,7.11,0,0,0,.42-1.43,1.33,1.33,0,0,1,0,.28c0-.12,0-.24.05-.36,0,0,0,.06,0,.08a3.53,3.53,0,0,0,0-.65,2.61,2.61,0,0,1,.06.27c0-.11,0-.23,0-.34a0,0,0,0,0,0,0v0l.12.14-.09-.12.12.07-.14-.11.12,0a.42.42,0,0,0-.14-.06s0-.06,0-.09a.22.22,0,0,1,0,.08h0a1.34,1.34,0,0,0-.07-.18.65.65,0,0,1,0,.13l-.12-.15a.94.94,0,0,1,.12.18l-.06,0,0,0h-.11l-.42-.05.21,0a21.44,21.44,0,0,0-3.3.22c-1.24.12-2.49.2-3.73.35a8.17,8.17,0,0,0-1,.22l.21-.1-.41.17h0l-.16.13.06-.09-.09.11,0,0a.75.75,0,0,1,0-.16.77.77,0,0,1-.07.16,1.15,1.15,0,0,1,0-.18s0,.09,0,.14a1.84,1.84,0,0,1,0-.25c0,.11,0,.21,0,.32Z"/><path class="cls-1" d="M80.4,25.17h0Z"/><path class="cls-1" d="M80.41,25.2a0,0,0,0,0,0,0l0,0h0Z"/><path class="cls-1" d="M80.38,25.19l0,0h0Z"/><path class="cls-1" d="M80.35,25.17l0,0h0s0,0,0,0Z"/><path class="cls-1" d="M80.36,25.2a0,0,0,0,1,0,0l0,0h0Z"/><path class="cls-1" d="M80.35,25.17h0s0,0,0,0Z"/><path class="cls-1" d="M80.35,25.17h0l-.09-.08Z"/><path class="cls-1" d="M80.33,25.18s0,0,0,0h0s0,0,0,0a0,0,0,0,0,0,0Z"/><path class="cls-1" d="M80.32,25.17s0,0,0,0h0s0,0,0,0h.06Z"/><path class="cls-1" d="M80.32,25.16h-.06a.78.78,0,0,0-.2-.11Z"/><path class="cls-1" d="M80.32,25.19h-.17l.15,0h0A0,0,0,0,1,80.32,25.19Z"/><path class="cls-1" d="M80.3,25.18l-.21-.05.17,0S80.29,25.16,80.3,25.18Z"/><path class="cls-1" d="M79.42,94.75l.06.45a.58.58,0,0,0,0-.14Z"/><path class="cls-1" d="M79.44,96.09c0,.12,0,.24,0,.37a1.64,1.64,0,0,0,0-.22Z"/><path class="cls-1" d="M79.23,94.27c.06.14.12.27.17.4,0-.08-.07-.16-.12-.24A.75.75,0,0,0,79.23,94.27Z"/><path class="cls-1" d="M79.23,94.27a.75.75,0,0,1,0,.16,1.22,1.22,0,0,0-.17-.29,1.14,1.14,0,0,1,.11.11S79.23,94.26,79.23,94.27Z"/><path class="cls-1" d="M79,24a1.1,1.1,0,0,1,.36,0,11.26,11.26,0,0,0-.27,3.06L79,26c-.06,1.21-.11,2.43-.07,3.64a2.09,2.09,0,0,1-1.23-.58,2.21,2.21,0,0,1-.59-1.42,12.77,12.77,0,0,1,0-2.23A2,2,0,0,1,79,24Z"/><path class="cls-1" d="M79.06,94.05l.16.2a1.14,1.14,0,0,0-.11-.11s0,0,0,0A.13.13,0,0,0,79,94Z"/><path class="cls-1" d="M79.14,94.1l-.08,0s0,0,0,0Z"/><path class="cls-1" d="M79,94a.13.13,0,0,1,0,.07A1.14,1.14,0,0,0,79,94L79,94h0Z"/><path class="cls-1" d="M79.07,94,79,94a0,0,0,0,0,0,0Z"/><path class="cls-1" d="M79.05,94s0,0,0,0l0,0Z"/><rect class="cls-1" x="79.03" y="94.02" width="0.01" height="0.01"/><path class="cls-1" d="M79,94l0,0h0A.05.05,0,0,0,79,94Z"/><path class="cls-1" d="M79,94h0L79,94h0v0l0,0a.05.05,0,0,1,0,0Z"/><path class="cls-1" d="M79,94a.05.05,0,0,1,0,0L79,94h0Z"/><path class="cls-1" d="M79,94a0,0,0,0,1,0,0h0S79,94,79,94Z"/><path class="cls-1" d="M79,94s0,0,0,0h0l0,0A.11.11,0,0,0,79,94Z"/><path class="cls-1" d="M79,93.91a.05.05,0,0,1,0,0,.11.11,0,0,1-.07,0l0,0Z"/><path class="cls-1" d="M78.91,93.92l0,0a.05.05,0,0,0,0,0,.08.08,0,0,0,0,0Z"/><path class="cls-1" d="M79,94l-.06,0h0Z"/><path class="cls-1" d="M78.91,4.18h-.28C78.54,4.12,78.84,4.16,78.91,4.18Z"/><path class="cls-1" d="M78.91,93.92l0,0h0Z"/><path class="cls-1" d="M78.91,93.94h0l-.06,0h.05A.08.08,0,0,1,78.91,93.94Z"/><path class="cls-1" d="M78.86,93.89h0Z"/><path class="cls-1" d="M78.88,93.93l-.12,0a.06.06,0,0,1,.06,0Z"/><path class="cls-1" d="M78.86,93.89h0Z"/><path class="cls-1" d="M78.86,93.89h0Z"/><path class="cls-1" d="M78.86,93.9h0l0,0h.07Z"/><path class="cls-1" d="M78.84,93.89h0l-.06,0h0Z"/><path class="cls-1" d="M78.82,93.9a.06.06,0,0,0-.06,0h0l-.1,0h.16Z"/><path class="cls-1" d="M78.79,93.88h-.06Z"/><path class="cls-1" d="M78.74,93.85h0l-.13-.07Z"/><path class="cls-1" d="M78.73,93.86h0Z"/><path class="cls-1" d="M78.73,93.89h-.26l.16,0Z"/><path class="cls-1" d="M78.65,93.87h0l-.08,0Z"/><path class="cls-1" d="M78.63,93.87l-.16,0-.22,0,.36,0Z"/><path class="cls-1" d="M77.05,50.89l-.12-.07s0,0,0,0h0Z"/><path class="cls-1" d="M76.89,50.76a.42.42,0,0,1,.14.06l-.12,0h0Z"/><path class="cls-1" d="M76.93,50.82l.09.12-.12-.14h0S76.93,50.82,76.93,50.82Z"/><path class="cls-1" d="M76.91,50.87c0,.11,0,.23,0,.34a2.61,2.61,0,0,0-.06-.27h0s0,0,0,0a.11.11,0,0,0,0-.08S76.9,50.86,76.91,50.87Z"/><path class="cls-1" d="M76.9,50.79h0Z"/><path class="cls-1" d="M76.9,50.84a0,0,0,0,1,0,0s0,0,0,0Z"/><path class="cls-1" d="M76.9,51.51c0,.12,0,.24-.05.36a1.33,1.33,0,0,0,0-.28S76.89,51.54,76.9,51.51Z"/><path class="cls-1" d="M76.9,50.8v0h0v0Z"/><path class="cls-1" d="M76.89,50.78h0Z"/><path class="cls-1" d="M76.89,50.94a3.53,3.53,0,0,1,0,.65A7.11,7.11,0,0,1,76.46,53v0h0a22.16,22.16,0,0,1-2.35,3.64L72.51,58.8c-.82-1.07-1.59-2.17-2.33-3.3-.39-.61-.77-1.22-1.14-1.84a15.85,15.85,0,0,1-1-1.7,1.46,1.46,0,0,1-.07-.19h0l0,0,0,0,0,0a2.5,2.5,0,0,1,.35-.21h0a8.17,8.17,0,0,1,1-.22c1.24-.15,2.49-.23,3.73-.35a21.44,21.44,0,0,1,3.3-.22h.06l.28.07,0,0h0s0,.09,0,.14,0,0,0,0Z"/><path class="cls-1" d="M76.9,50.79h0Z"/><path class="cls-1" d="M76.89,50.78h0Z"/><path class="cls-1" d="M76.88,50.67s0,.06,0,.09h0A.22.22,0,0,0,76.88,50.67Z"/><path class="cls-1" d="M76.88,50.75h0Z"/><path class="cls-1" d="M76.89,50.76h0Z"/><path class="cls-1" d="M76.89,50.83a.11.11,0,0,1,0,.08s0-.1,0-.14h0a.08.08,0,0,0,0,0Z"/><path class="cls-1" d="M76.89,50.8v0a.08.08,0,0,1,0,0h0Z"/><path class="cls-1" d="M76.89,50.79h0v0Z"/><path class="cls-1" d="M76.88,50.77h0s0,0,0,0Z"/><path class="cls-1" d="M76.88,50.76h0Z"/><path class="cls-1" d="M76.87,50.76s0,0,0,0h0Z"/><path class="cls-1" d="M76.87,50.75h0v0s0,0,0,0Z"/><path class="cls-1" d="M76.86,50.76h0Z"/><path class="cls-1" d="M76.86,50.74s0,0,0,0h0Z"/><path class="cls-1" d="M76.85,50.73l0,0a.65.65,0,0,0,0-.13A1.34,1.34,0,0,1,76.85,50.73Z"/><path class="cls-1" d="M76.82,50.68l0,0h0A.06.06,0,0,0,76.82,50.68Z"/><path class="cls-1" d="M76.84,50.74v0h0A0,0,0,0,0,76.84,50.74Z"/><path class="cls-1" d="M76.84,50.76l0,0-.11-.06h0l.12,0s0,0,0,0A0,0,0,0,1,76.84,50.76Z"/><path class="cls-1" d="M76.83,50.72h0Z"/><path class="cls-1" d="M76.84,50.73h0s0,0,0,0Z"/><path class="cls-1" d="M76.82,50.68a.06.06,0,0,1,0,0h0a.94.94,0,0,0-.12-.18Z"/><path class="cls-1" d="M76.83,50.72h0l0,0,0,0,.06,0Z"/><path class="cls-1" d="M76.83,50.73l-.12,0h.07Z"/><path class="cls-1" d="M76.69,50.68l.11.06-.28-.07h.17Z"/><polygon class="cls-1" points="76.68 50.67 76.69 50.68 76.68 50.68 76.68 50.67"/><polygon class="cls-1" points="76.68 50.67 76.68 50.68 76.67 50.67 76.68 50.67"/><path class="cls-1" d="M76.68,50.68h-.22l-.21,0,.42.05Z"/><path class="cls-1" d="M76.59,52.74c0,.1-.09.21-.14.31v0A2.39,2.39,0,0,0,76.59,52.74Z"/><path class="cls-1" d="M76.45,53.05c0,.06,0,.11-.07.17a1.15,1.15,0,0,0,.06-.17Z"/><path class="cls-1" d="M75.7,155.44l.2-.08s0,0,0,0h0l.14-.06c0,.06,0,.12,0,.18a2.17,2.17,0,0,1-2.14,2.14,2.2,2.2,0,0,1-1.51-.63,2.26,2.26,0,0,1-.62-1.51c0-.3,0-.59-.07-.89l1.75.49c.52.15,1,.3,1.58.41.09,0,.2,0,.29.06l-.08,0h.13s0,0,.08,0h.17s0,0,0,0a2,2,0,0,1,.26-.09Z"/><path class="cls-1" d="M75.2,155.52l.08,0c-.09,0-.2,0-.29-.06-.53-.11-1.06-.26-1.58-.41l-1.75-.49q-.36-4.5-.6-9-.45-8.81-.45-17.63,0-8.53.44-17.06l1.21-1.17,1.17-1.13a2.45,2.45,0,0,0,.29-.35,1.49,1.49,0,0,1,.4.15l.77.62a1.9,1.9,0,0,1,.46,1.31q-.25,5-.38,9.93-.21,8.82,0,17.64t1,17.42l-.14.06,0,0h0a2,2,0,0,0-.26.09h0a.26.26,0,0,0-.19.05H75.2Z"/><path class="cls-1" d="M75.87,155.36s0,0,0,0l-.2.08.11-.06h0l0,0Z"/><path class="cls-1" d="M75.5,104.62a2.06,2.06,0,0,1,1.28.46c-1,.33-2,.71-3,1a1,1,0,0,0-.21-.34,2.17,2.17,0,0,1,.38-.52A2.13,2.13,0,0,1,75.5,104.62Z"/><path class="cls-1" d="M75.55,155.47s0,0,0,0h-.16l.11,0h0Z"/><path class="cls-1" d="M75.34,155.52a.26.26,0,0,1,.19-.05l-.11,0h-.08Z"/><path class="cls-1" d="M75.34,155.52h.07c-.1,0-.12,0-.08,0Z"/><path class="cls-1" d="M74.81,65.09a13.92,13.92,0,0,1,.17,2c0,1.28-.09,2.56-.13,3.84a.47.47,0,0,1,0,.17,20.53,20.53,0,0,1-3.84,0l-.16,0a1.09,1.09,0,0,1,0-.18l.09-2.78a13.89,13.89,0,0,0,0-2c-.12-1.15-.28-2.3-.42-3.46.15.18.3.37.46.55l0,0a2.09,2.09,0,0,0,.14.17l0,0a.8.8,0,0,0,.13.13.47.47,0,0,0,.12.09l0,0,.12.07A1.85,1.85,0,0,0,72,64l.06,0,.1,0h0s0,0,.05,0a.27.27,0,0,0,.13,0A1.37,1.37,0,0,0,73,64a.8.8,0,0,0,.15,0l0,0,0,0a1,1,0,0,0,.27-.11,1.68,1.68,0,0,0,.53-.37.24.24,0,0,0,.06-.09.55.55,0,0,0,.14-.17.18.18,0,0,0,0-.07l.06-.07.22-.29C74.62,63.56,74.71,64.32,74.81,65.09Z"/><path class="cls-1" d="M74.89,109l-.77-.62A2.12,2.12,0,0,1,74.89,109Z"/><path class="cls-1" d="M74.75,90.85a.76.76,0,0,1-.21,0,.61.61,0,0,0,.13,0Z"/><path class="cls-1" d="M74.68,90.91l-.17,0h0Z"/><path class="cls-1" d="M74.67,90.85a.61.61,0,0,1-.13,0h0a.35.35,0,0,1-.14,0A1.31,1.31,0,0,0,74.67,90.85Z"/><path class="cls-1" d="M74,60.63a2.14,2.14,0,0,1,.5,1.95l0-.25a2.16,2.16,0,0,0-.59-1.42,2,2,0,0,0-2.85,0,2.81,2.81,0,0,0-.41.59,1.38,1.38,0,0,1,.21-.46l1.67-2.23.11.12C73.06,59.51,73.53,60.08,74,60.63Z"/><path class="cls-1" d="M74.5,62.58l0,.21-.22.29-.06.07A1.8,1.8,0,0,0,74.5,62.58Z"/><path class="cls-1" d="M74.53,90.88h0l-.34,0h.23A.35.35,0,0,0,74.53,90.88Z"/><path class="cls-1" d="M74.47,62.33l0,.25a1.8,1.8,0,0,1-.25.57.18.18,0,0,1,0,.07.55.55,0,0,1-.14.17,2.4,2.4,0,0,1-.59.46,1.69,1.69,0,0,1-.27.11l0,0L73,64a1.78,1.78,0,0,1-.39,0h-.18l-.13,0s0,0-.05,0h0l-.1,0L72,64a1.85,1.85,0,0,1-.44-.18l-.12-.07,0,0a.47.47,0,0,1-.12-.09.8.8,0,0,1-.13-.13l0,0a2.09,2.09,0,0,0-.14-.17l0,0a2.07,2.07,0,0,1-.32-.65,2.45,2.45,0,0,1,0-1.08h0a2.81,2.81,0,0,1,.41-.59,2,2,0,0,1,2.85,0A2.16,2.16,0,0,1,74.47,62.33Z"/><path class="cls-1" d="M74.06,63.39a.24.24,0,0,1-.06.09,1.68,1.68,0,0,1-.53.37A2.4,2.4,0,0,0,74.06,63.39Z"/><path class="cls-1" d="M73.82,106.11a2.18,2.18,0,0,1,0,2,2.31,2.31,0,0,1-.44-1.31,1.58,1.58,0,0,1,.07-.53Z"/><path class="cls-1" d="M39.06,112.79c1.26.54,2.52,1,3.8,1.54,2.27.87,4.57,1.68,6.88,2.42,1.17.38,2.34.73,3.52,1.08l1.8.5c.5.13,1,.29,1.5.39l-.26,0,.35,0-.2,0,.19,0a1.06,1.06,0,0,1-.21.11l.27-.11h0l.14,0a.61.61,0,0,1-.13,0h0l.27,0-.24,0,.16-.07-.13,0,.29-.22-.17.11c.4-.33.77-.72,1.15-1.09l1.48-1.43,9.53-9.23a11.48,11.48,0,0,0,4.34-.61,1.58,1.58,0,0,0-.07.53,2.31,2.31,0,0,0,.44,1.31c0,.06,0,.11-.08.16a1.4,1.4,0,0,0-.5-.06,2.2,2.2,0,0,0-2.14,2.14l0,.57-8,7.77-2.29,2.22a7,7,0,0,1-2.9,2,7.3,7.3,0,0,1-3.81-.37c-.94-.26-1.89-.53-2.83-.81-3.72-1.11-7.4-2.38-11-3.82-1.32-.53-2.64-1.08-3.94-1.65q0-1.62.09-3.24a2.18,2.18,0,0,0-1.1-1.87c1.25.58,2.51,1.15,3.78,1.69Z"/><path class="cls-1" d="M73.82,106.11l-.39.12a1.83,1.83,0,0,1,.18-.46A1,1,0,0,1,73.82,106.11Z"/><path class="cls-1" d="M73.43,105.56a.91.91,0,0,1,.18.21,1.83,1.83,0,0,0-.18.46,11.48,11.48,0,0,1-4.34.61l1.32-1.28A2.18,2.18,0,0,1,73.43,105.56Z"/><path class="cls-1" d="M73.72,108.23a2.45,2.45,0,0,1-.29.35l-1.17,1.13-1.21,1.17,0-.57a2.2,2.2,0,0,1,2.14-2.14A1.4,1.4,0,0,1,73.72,108.23Z"/><path class="cls-1" d="M71,71.18a20.53,20.53,0,0,0,3.84,0,2,2,0,0,1-4,0H71Z"/><path class="cls-1" d="M73.2,64a1.69,1.69,0,0,0,.27-.11A1,1,0,0,1,73.2,64Z"/><path class="cls-1" d="M73.15,64l0,0A.8.8,0,0,1,73,64Z"/><path class="cls-1" d="M73,64a1.37,1.37,0,0,1-.57,0h.18A1.78,1.78,0,0,0,73,64Z"/><path class="cls-1" d="M72.61,58.93l-.11-.12h0A.41.41,0,0,0,72.61,58.93Z"/><path class="cls-1" d="M72.51,58.8h0l-.14-.19C72.41,58.68,72.45,58.74,72.51,58.8Z"/><path class="cls-1" d="M72.47,4.27h0Z"/><path class="cls-1" d="M72.26,64l.13,0A.27.27,0,0,1,72.26,64Z"/><path class="cls-1" d="M71,63.27a2.09,2.09,0,0,1,.14.17A2.09,2.09,0,0,1,71,63.27Z"/><path class="cls-1" d="M70.83,71.15l.16,0h-.16Z"/><path class="cls-1" d="M71,63.24c-.16-.18-.31-.37-.46-.55s0-.24,0-.36a1.49,1.49,0,0,1,.18-.82,2.45,2.45,0,0,0,0,1.08A2.07,2.07,0,0,0,71,63.24Z"/><path class="cls-1" d="M70.94,93.78h-.22l-.11,0h0Z"/><path class="cls-1" d="M70.78,93.71l-.14,0h0Z"/><path class="cls-1" d="M70.72,93.77h-.11Z"/><path class="cls-1" d="M70.72,102.57l-.56.07.25,0Z"/><path class="cls-1" d="M70.64,93.74h0Z"/><path class="cls-1" d="M70.61,93.75h-.36l.31,0Z"/><path class="cls-1" d="M70.6,93.73h0l-.15,0Z"/><path class="cls-1" d="M69.49,102.64l-.57-.07.32,0h.09A.9.9,0,0,0,69.49,102.64Z"/><path class="cls-1" d="M68.66,51.35l-.21.1h0l-.18.06Z"/><path class="cls-1" d="M68.43,29.79c0,.82,0,1.64,0,2.45a5.88,5.88,0,0,1-1.32,4,3.51,3.51,0,0,1-4.48.51,5.5,5.5,0,0,1-2.13-3.49A26.4,26.4,0,0,1,60.12,26a2,2,0,0,1,.12-.61,13,13,0,0,0,0,2.25,2.16,2.16,0,0,0,.59,1.42,2.09,2.09,0,0,0,1.23.58A14.69,14.69,0,0,0,62.51,33a3.87,3.87,0,0,0,.72,1.58,1.74,1.74,0,0,0,1.54.67A1.76,1.76,0,0,0,66,34.23a4.59,4.59,0,0,0,.34-1.69,27.66,27.66,0,0,0-.26-5.89,5.74,5.74,0,0,0-.75-2.36,2.29,2.29,0,0,0-2.09-1.1.88.88,0,0,0-.47.18,1.18,1.18,0,0,0-.31.63s0,0,0,0a1.37,1.37,0,0,0-.35,0,2,2,0,0,0-1.9,1.4,12.41,12.41,0,0,1,.34-2,3.32,3.32,0,0,1,.52-1.09,2.63,2.63,0,0,1,1.64-1.05,4,4,0,0,1,2.74.46,5.3,5.3,0,0,1,2.38,3.35,21.54,21.54,0,0,1,.52,3.76C68.41,29.13,68.42,29.46,68.43,29.79Z"/><path class="cls-1" d="M68.25,51.52l.18-.06a2.5,2.5,0,0,0-.35.21,1.07,1.07,0,0,1,.16-.14Z"/><path class="cls-1" d="M68.24,51.53a1.07,1.07,0,0,0-.16.14l0,0,0,0,.16-.13Z"/><path class="cls-1" d="M68.07,52a1.59,1.59,0,0,0,.07.2L68,51.83v0A1.09,1.09,0,0,0,68.07,52Z"/><path class="cls-1" d="M68.13,51.57l-.06.09,0,0Z"/><path class="cls-1" d="M68.08,51.67l0,0s0,0,0,0Z"/><path class="cls-1" d="M68.07,51.66l0,0s0,0,0,0,0,0,0,0a.08.08,0,0,1,0,0Z"/><path class="cls-1" d="M68.07,52a1.09,1.09,0,0,1-.08-.15s0,0,0,0h0A1.46,1.46,0,0,0,68.07,52Z"/><path class="cls-1" d="M68.06,51.55a.75.75,0,0,0,0,.16h0A.77.77,0,0,0,68.06,51.55Z"/><path class="cls-1" d="M68.05,51.7l0,0,0,0h0S68,51.69,68.05,51.7Z"/><path class="cls-1" d="M68,51.68a.08.08,0,0,0,0,0h0Z"/><path class="cls-1" d="M68,51.72l0,0s0,0,0,0Z"/><path class="cls-1" d="M68,51.71h0Z"/><path class="cls-1" d="M68,51.76h0s0,0,0,0S68,51.76,68,51.76Z"/><path class="cls-1" d="M68,51.75s0,0,0,0,0,0,0,0v0h0Z"/><path class="cls-1" d="M68,51.53a1.15,1.15,0,0,0,0,.18v0C68,51.62,68,51.58,68,51.53Z"/><path class="cls-1" d="M68,51.83A.57.57,0,0,0,68,52c0-.05,0-.1,0-.15h0Z"/><path class="cls-1" d="M68,51.73h0v0Z"/><path class="cls-1" d="M68,51.72h0s0,0,0,0h0a.17.17,0,0,0,0-.07v0Z"/><path class="cls-1" d="M68,51.79s0,0,0,0h0v0Z"/><path class="cls-1" d="M68,51.78h0s0,0,0,0Z"/><path class="cls-1" d="M68,51.77s0,0,0,0h0s0,0,0,0Z"/><path class="cls-1" d="M68,51.73v0s0,0,0,0h0v0S68,51.73,68,51.73Z"/><path class="cls-1" d="M68,51.74v0h0Z"/><path class="cls-1" d="M67.93,51.42a1.84,1.84,0,0,0,0,.25.17.17,0,0,1,0,.07C68,51.63,68,51.53,67.93,51.42Z"/><path class="cls-1" d="M68,51.81a2,2,0,0,0,0,.26l0-.23S68,51.82,68,51.81Z"/><path class="cls-1" d="M68,51.79v0s0,0,0,0a.06.06,0,0,1,0,0S68,51.79,68,51.79Z"/><rect class="cls-1" x="67.97" y="51.77" width="0.01" height="0.01"/><path class="cls-1" d="M68,51.78s0,0,0,0,0,0,0,0v0Z"/><path class="cls-1" d="M68,51.74h0Z"/><polygon class="cls-1" points="67.97 51.75 67.97 51.76 67.96 51.75 67.97 51.75"/><path class="cls-1" d="M68,51.78v0h0Z"/><path class="cls-1" d="M68,51.8a.06.06,0,0,0,0,0,1.24,1.24,0,0,0-.1.2,2.18,2.18,0,0,0,.09-.23Z"/><path class="cls-1" d="M67.62,90.6l-.53.07.14,0h.08Z"/><path class="cls-1" d="M64.15,33.58l.06-.15h0l0,0h0l.11,0h.31l.07,0h0l.09.1s0,0,0-.06l.18.14a1.45,1.45,0,0,1-.18-.16l.2.08-.22-.11h.07a.2.2,0,0,1-.11,0h0a0,0,0,0,1,0,0h0l-.09-.16a6.54,6.54,0,0,1-.26-.86A23.93,23.93,0,0,0,64.28,28a2.16,2.16,0,0,0,0-.36,11.26,11.26,0,0,1,0-2.53h0s0-.05,0-.07h0a4.18,4.18,0,0,1,.22-.86c0,.13-.1.25-.16.38s-.13.17-.2.26l-.26.2,0,0a2,2,0,0,0-1.4-1s0,0,0,0a1.18,1.18,0,0,1,.31-.63.88.88,0,0,1,.47-.18,2.29,2.29,0,0,1,2.09,1.1,5.74,5.74,0,0,1,.75,2.36,27.66,27.66,0,0,1,.26,5.89A4.59,4.59,0,0,1,66,34.23a1.76,1.76,0,0,1-1.27,1.06,1.74,1.74,0,0,1-1.54-.67A3.87,3.87,0,0,1,62.51,33a14.69,14.69,0,0,1-.44-3.37h.19a2.31,2.31,0,0,0,1.81-1.06,22.27,22.27,0,0,0,.11,2.58l0,.23a1.49,1.49,0,0,1,0-.21,9.09,9.09,0,0,0,.2,1c0,.21,0,.42,0,.63a4.21,4.21,0,0,1-.12.48s0,0,0,0l0,0-.18.18.16-.13a.75.75,0,0,1-.07.12l.09-.12A.53.53,0,0,1,64.15,33.58Z"/><path class="cls-1" d="M66.19,90.63l-.4,0,.2,0h0Z"/><path class="cls-1" d="M65,33.46l-.2-.08s0,0,0,0Z"/><path class="cls-1" d="M65,33.54l-.18-.14s0,0,0,0l0,0,0,0A1.45,1.45,0,0,0,65,33.54Z"/><path class="cls-1" d="M64.88,33.34h-.09s0,0,0,0h0s0,0,0,0A.2.2,0,0,0,64.88,33.34Z"/><path class="cls-1" d="M64.83,33.4s0,0,0,.06l-.09-.1a.05.05,0,0,1,0,0S64.83,33.4,64.83,33.4Z"/><path class="cls-1" d="M64.81,33.35s0,0,0,0l0,0s0,0,0,0h0Z"/><path class="cls-1" d="M64.82,33.39a.05.05,0,0,0,0,0h0Z"/><path class="cls-1" d="M64.8,33.36h0l0,0h0a0,0,0,0,0,0,0S64.8,33.36,64.8,33.36Z"/><path class="cls-1" d="M64.79,33.33h0a0,0,0,0,1,0,0S64.79,33.33,64.79,33.33Z"/><path class="cls-1" d="M64.78,33.33h0v0h0Z"/><path class="cls-1" d="M64.77,33.31s0,0,0,0h0Z"/><path class="cls-1" d="M64.77,33.35l-.07,0h0Z"/><path class="cls-1" d="M64.75,33.28a0,0,0,0,0,0,0l0,0Z"/><path class="cls-1" d="M64.74,33.28l0,0h0Z"/><path class="cls-1" d="M64.74,33.31v0h0s0,0,0,0a0,0,0,0,0,0,0Z"/><path class="cls-1" d="M64.74,33.28h0Z"/><path class="cls-1" d="M64.74,33.28h0v0h0v0Z"/><path class="cls-1" d="M64.74,33.28l0-.05h0l0-.1Z"/><path class="cls-1" d="M64.74,33.33h0l-.06,0h.06S64.73,33.32,64.74,33.33Z"/><path class="cls-1" d="M64.73,33.3a0,0,0,0,1,0,0h0Z"/><rect class="cls-1" x="64.71" y="33.28" width="0.01" height="0.01"/><path class="cls-1" d="M64.7,33.26v0h0Z"/><polygon class="cls-1" points="64.71 33.28 64.71 33.29 64.7 33.28 64.71 33.28"/><path class="cls-1" d="M64.71,33.29h0Z"/><path class="cls-1" d="M64.31,33.19s0,0,0-.08,0-.31.06-.45c0,.08,0,.16,0,.23,0-.21,0-.42,0-.63a6.54,6.54,0,0,0,.26.86L64.59,33a1.67,1.67,0,0,1,.08.2l0,0,.06.08h0v0l-.08-.05.06.05h0l-.11,0-.07,0h-.09l-.09,0h0l.06-.09-.09.1.06-.15Z"/><path class="cls-1" d="M64.7,33.28h0l-.06-.05Z"/><path class="cls-1" d="M64.7,33.32h-.06Z"/><path class="cls-1" d="M64.69,33.23v0l-.06-.08,0,0h0Z"/><path class="cls-1" d="M64.65,33.12l0,.1h0a1.67,1.67,0,0,0-.08-.2Z"/><path class="cls-1" d="M64.66,33.29h0Z"/><path class="cls-1" d="M64.66,33.29h0l-.07,0Z"/><path class="cls-1" d="M64.64,33.3h-.06l-.09,0h.15Z"/><path class="cls-1" d="M64.62,33.29h-.13l.06,0Z"/><path class="cls-1" d="M64.61,69.29l-.48-.2.29.11Z"/><path class="cls-1" d="M64.58,33.31h-.16l.06,0h0Z"/><path class="cls-1" d="M64.14,24.9a.35.35,0,0,1,.1-.11l0,0c.07-.09.14-.17.2-.26v0a.25.25,0,0,1,0-.07l0,.05c.06-.13.11-.25.16-.38a4.18,4.18,0,0,0-.22.86h0a0,0,0,0,1,0,0v0h0a11.26,11.26,0,0,0,0,2.53,2.16,2.16,0,0,1,0,.36c0-.2,0-.4-.07-.59a1.7,1.7,0,0,1,0,.22c0-.14,0-.29-.07-.44a.28.28,0,0,0,0-.09c0-.1,0-.2,0-.3l0-.8a1.66,1.66,0,0,0-.25-1h0L64,25l-.07,0,.26-.2Z"/><path class="cls-1" d="M64.55,33.26l-.06,0h0Z"/><path class="cls-1" d="M64.42,33.28h0Z"/><path class="cls-1" d="M64.48,33.29l-.06,0h-.08l.12,0Z"/><path class="cls-1" d="M64.42,33.28h0l-.12,0,0,0h0Z"/><path class="cls-1" d="M64.43,24.52a.25.25,0,0,0,0,.07v0Z"/><path class="cls-1" d="M64.28,28a23.93,23.93,0,0,1,.11,4.23,9.09,9.09,0,0,1-.2-1s0,0,0,0a22.27,22.27,0,0,1-.11-2.58A1.73,1.73,0,0,0,64.28,28Z"/><path class="cls-1" d="M64.39,33.28l0,0h0Z"/><path class="cls-1" d="M64.39,33.33l-.11,0,0,0h.08Z"/><path class="cls-1" d="M64.38,32.66c0,.14,0,.3-.06.45a1.64,1.64,0,0,0,0-.22C64.35,32.82,64.37,32.74,64.38,32.66Z"/><path class="cls-1" d="M64.34,32.89a1.64,1.64,0,0,1,0,.22s0,0,0,.08h0l-.08.15v0A4.21,4.21,0,0,0,64.34,32.89Z"/><path class="cls-1" d="M64.34,33.25l-.06.09h0Z"/><path class="cls-1" d="M64.34,33.33h0Z"/><path class="cls-1" d="M64.33,25.06s0,.05,0,.07v0A0,0,0,0,0,64.33,25.06Z"/><path class="cls-1" d="M64.31,33.34l0,0h0l0,0h0s0,0,0,0Z"/><path class="cls-1" d="M64.31,33.2l-.06.15h0Z"/><path class="cls-1" d="M64.28,33.34s0,0,0,0v0Z"/><path class="cls-1" d="M64.21,27.44c0,.19.05.39.07.59a1.73,1.73,0,0,1-.21.59c0-.6,0-1.2.05-1.79,0,.1,0,.2,0,.3a.28.28,0,0,1,0,.09A.83.83,0,0,1,64.21,27.44Z"/><path class="cls-1" d="M64.27,33.34v0h0s0,0,0,0Z"/><path class="cls-1" d="M64.27,33.38l0,0h0Z"/><path class="cls-1" d="M64.18,27.22c0,.15,0,.3.07.44a1.7,1.7,0,0,0,0-.22A.83.83,0,0,0,64.18,27.22Z"/><path class="cls-1" d="M64.25,33.37l0,0v0Z"/><path class="cls-1" d="M64.25,33.35s0,0,0,0h0S64.24,33.36,64.25,33.35Z"/><path class="cls-1" d="M64.25,33.35s0,0,0,0v0Z"/><path class="cls-1" d="M64.24,24.79a.35.35,0,0,0-.1.11l0-.07Z"/><path class="cls-1" d="M64.24,33.37v0h0Z"/><path class="cls-1" d="M64.23,33.4h0Z"/><path class="cls-1" d="M64.22,33.37h0S64.22,33.38,64.22,33.37Z"/><path class="cls-1" d="M64.22,33.4h0a0,0,0,0,0,0,0Z"/><path class="cls-1" d="M64.21,33.43l-.06.15a.53.53,0,0,0,0-.12h0Z"/><path class="cls-1" d="M64.19,31.22a1.49,1.49,0,0,0,0,.21l0-.23S64.18,31.21,64.19,31.22Z"/><path class="cls-1" d="M64.21,33.39h0Z"/><path class="cls-1" d="M64.2,33.4h0Z"/><path class="cls-1" d="M64.2,33.41a0,0,0,0,1,0,0h0a.08.08,0,0,0,0,0Z"/><path class="cls-1" d="M64.19,33.41a.08.08,0,0,1,0,0h0l-.16.13.18-.18Z"/><path class="cls-1" d="M64.19,33.45h0l-.09.12a.75.75,0,0,0,.07-.12h0Z"/><path class="cls-1" d="M63.74,25.38l-.12-.1a.1.1,0,0,1,0-.05l.09,0-.1,0h.18l-.16,0a1.41,1.41,0,0,1,.22-.06l-.14,0,.22-.1h0a1.66,1.66,0,0,1,.25,1l0,.8a6.7,6.7,0,0,0-.3-1.17,1.51,1.51,0,0,1,.11.22c-.06-.13-.1-.25-.16-.38h0v0s0,0,0,0a.64.64,0,0,1-.1-.13A.47.47,0,0,1,63.74,25.38Z"/><path class="cls-1" d="M62.22,27.11A11.33,11.33,0,0,1,62.49,24a2,2,0,0,1,1.4,1l-.22.1h0l-.13,0h-.06l-.11-.09a.76.76,0,0,1,.09.09l-.27-.12.2.1-.17,0,.2,0h0l-.15,0h.16a.26.26,0,0,1,.11.07l.1.09s0,0,0,0a2.15,2.15,0,0,1,.14.26,6.7,6.7,0,0,1,.3,1.17c0,.59-.05,1.19-.05,1.79a2.31,2.31,0,0,1-1.81,1.06h-.19c0-1.21,0-2.43.07-3.64Z"/><path class="cls-1" d="M64,25l-.09.05s0,0,0,0Z"/><path class="cls-1" d="M63.73,4.29a2.05,2.05,0,0,1,.21,1.55A2,2,0,0,1,63,7a2.06,2.06,0,0,1-2.76-.72A2,2,0,0,1,61,3.56a2.32,2.32,0,0,1,1.55-.2A2,2,0,0,1,63.73,4.29Z"/><path class="cls-1" d="M63.93,25s0,0,0,0h0Z"/><path class="cls-1" d="M63.77,25.5c.06.13.1.25.16.38a1.51,1.51,0,0,0-.11-.22A.75.75,0,0,0,63.77,25.5Z"/><path class="cls-1" d="M63.77,25.5a.75.75,0,0,1,0,.16,2.15,2.15,0,0,0-.14-.26.2.2,0,0,1,.08.08s0,0,0,0Z"/><path class="cls-1" d="M63.67,25.15l.14,0a1.41,1.41,0,0,0-.22.06,0,0,0,0,0,0,0l.08,0Z"/><path class="cls-1" d="M63.77,25.49h0S63.77,25.49,63.77,25.49Z"/><path class="cls-1" d="M63.76,25.46v0h0Z"/><path class="cls-1" d="M63.77,25.49s0,0,0,0h0Z"/><path class="cls-1" d="M63.76,25.48h0S63.76,25.48,63.76,25.48Z"/><path class="cls-1" d="M63.76,25.46v0s0,0,0,0S63.75,25.46,63.76,25.46Z"/><path class="cls-1" d="M63.76,25.48a.2.2,0,0,0-.08-.08s0,0,0,0a.21.21,0,0,0,0-.06l0,0a.64.64,0,0,0,.1.13S63.76,25.47,63.76,25.48Z"/><path class="cls-1" d="M63.75,25.21h-.16Z"/><path class="cls-1" d="M63.62,25.28l.12.1a.47.47,0,0,0-.09-.06Z"/><path class="cls-1" d="M63.67,25.26l-.09,0a0,0,0,0,1,0,0Z"/><path class="cls-1" d="M63.66,25.15l-.08,0h0Z"/><path class="cls-1" d="M63.65,25.32l0,0,0,0,0,0Z"/><path class="cls-1" d="M63.61,25.29a.21.21,0,0,1,0,.06l-.1-.09A.09.09,0,0,1,63.61,25.29Z"/><path class="cls-1" d="M63.62,25.28l0,0a.08.08,0,0,0,0,0,0,0,0,0,0,0,0A.1.1,0,0,0,63.62,25.28Z"/><path class="cls-1" d="M63.61,25.29a.09.09,0,0,0-.06,0,.17.17,0,0,0-.06-.06h0l.06.05Z"/><path class="cls-1" d="M63.59,25.26l-.06-.05h0A.08.08,0,0,1,63.59,25.26Z"/><path class="cls-1" d="M63.59,25.19h0l0,0A0,0,0,0,1,63.59,25.19Z"/><path class="cls-1" d="M63.58,25.18l0,0v0Z"/><path class="cls-1" d="M63.57,25.22h0a0,0,0,0,1,0,0h0Z"/><path class="cls-1" d="M63.56,25.2h0a0,0,0,0,0,0,0Z"/><path class="cls-1" d="M63.56,25.21h0A0,0,0,0,1,63.56,25.21Z"/><path class="cls-1" d="M63.49,25.2a.17.17,0,0,1,.06.06.26.26,0,0,0-.11-.07h.05Z"/><path class="cls-1" d="M63.54,25.18v0h0l0,0h.06Z"/><path class="cls-1" d="M63.54,25.2a0,0,0,0,0,0,0h0v0h0Z"/><path class="cls-1" d="M63.53,25.17h0Z"/><path class="cls-1" d="M63.51,25.19v0h0Z"/><path class="cls-1" d="M63.48,25.17l0,0,0,0Z"/><path class="cls-1" d="M63.5,25.19h0s0,0,0,0h0Z"/><path class="cls-1" d="M63.46,25.18s0,0,0,0h0Z"/><path class="cls-1" d="M63.36,25.08l.11.09h0A.76.76,0,0,0,63.36,25.08Z"/><path class="cls-1" d="M63.47,25.17h0Z"/><path class="cls-1" d="M63.46,25.17h-.05l0,0,.07,0Z"/><path class="cls-1" d="M63.46,25.19h0a0,0,0,0,0,0,0h0Z"/><path class="cls-1" d="M63.45,25.17l-.07,0-.2-.1Z"/><path class="cls-1" d="M63.44,25.19h-.16l.15,0A0,0,0,0,1,63.44,25.19Z"/><path class="cls-1" d="M63.41,25.17l-.2,0,.17,0Z"/><path class="cls-1" d="M62.14,24a1.37,1.37,0,0,1,.35,0,11.33,11.33,0,0,0-.27,3.07L62.14,26c-.06,1.21-.12,2.43-.07,3.64a2.09,2.09,0,0,1-1.23-.58,2.16,2.16,0,0,1-.59-1.42,13,13,0,0,1,0-2.25A2,2,0,0,1,62.14,24Z"/><path class="cls-1" d="M60.9,97.84A1,1,0,0,1,61,98c-.06-.16-.13-.32-.2-.47C60.81,97.63,60.85,97.73,60.9,97.84Z"/><path class="cls-1" d="M60.53,93.69l-.14,0s0,0,0,0A1.25,1.25,0,0,1,60.53,93.69Z"/><path class="cls-1" d="M60.57,100.24a1.91,1.91,0,0,1-.38.31,2,2,0,0,1-1.53.2,2,2,0,0,1-1.19-.91q-.16-.36-.3-.72C58.3,99.51,59.43,99.88,60.57,100.24Z"/><path class="cls-1" d="M60.34,93.72l-.11,0h-.06Z"/><path class="cls-1" d="M60.17,93.74h.06l-.16,0v0a0,0,0,0,1,0,0h.09Z"/><path class="cls-1" d="M60.14,95c0,.12,0,.24,0,.35,0-.18,0-.35-.07-.53Z"/><path class="cls-1" d="M60.15,93.38c0,.07,0,.13-.07.2v0s0,0,0,0A1,1,0,0,0,60.15,93.38Z"/><path class="cls-1" d="M60.11,93.25l0,.28s0,0,0,0h0C60.08,93.46,60.1,93.36,60.11,93.25Z"/><path class="cls-1" d="M60.08,93.61h0S60.07,93.61,60.08,93.61Z"/><path class="cls-1" d="M60.08,93.56v0s0,0,0,0,0,0,0,0a.13.13,0,0,1,0-.06v0Z"/><path class="cls-1" d="M60.08,93.62s0,0,0,0v0Z"/><path class="cls-1" d="M60.07,93.64s0,0,0,0v.07h0v0h0Z"/><path class="cls-1" d="M60.08,93.75a0,0,0,0,0,0,0h0Z"/><path class="cls-1" d="M60.08,93.69a.06.06,0,0,0,0,.06h0v0h0Z"/><path class="cls-1" d="M60.07,93.75h0s0,0,0,0h0Z"/><path class="cls-1" d="M60.07,93.76v0l-.1,0h0l.07,0Z"/><path class="cls-1" d="M60.07,93.62v0S60.07,93.63,60.07,93.62Z"/><path class="cls-1" d="M60.07,93.58a.13.13,0,0,0,0,.06l0,0A.36.36,0,0,1,60.07,93.58Z"/><path class="cls-1" d="M60.07,93.76h0S60.06,93.75,60.07,93.76Z"/><path class="cls-1" d="M60.06,93.66h0a.06.06,0,0,0,0,0l0,0A.35.35,0,0,1,60.06,93.66Z"/><path class="cls-1" d="M60.06,93.67v0h0A.06.06,0,0,1,60.06,93.67Z"/><path class="cls-1" d="M60.06,93.64v0a.35.35,0,0,0-.05.08h0l0-.06s0,0,0,0Z"/><path class="cls-1" d="M60.05,93.71h0l0,0s0,0,0,0Z"/><path class="cls-1" d="M60.05,93.72v0h0S60.05,93.73,60.05,93.72Z"/><rect class="cls-1" x="60.04" y="93.75" width="0.01" height="0.01"/><path class="cls-1" d="M60.05,93.72s0,0,0,0h0Z"/><path class="cls-1" d="M60,93.76h0l-.06,0H60Z"/><path class="cls-1" d="M60,93.77l-.07,0h0Z"/><path class="cls-1" d="M59.94,93.8a.76.76,0,0,1,.08-.11l0,.06h0Z"/><path class="cls-1" d="M60,93.74s0,0,0,0h0s0,0,0,0h0Z"/><path class="cls-1" d="M60,93.77h0s0,0,0,0h0l.05,0S60,93.77,60,93.77Z"/><polygon class="cls-1" points="59.98 93.79 59.97 93.8 59.97 93.79 59.98 93.79"/><path class="cls-1" d="M60,93.8h0Z"/><path class="cls-1" d="M60,93.81s0,0,0,0a.06.06,0,0,0,0,0Z"/><path class="cls-1" d="M60,93.81h0Z"/><path class="cls-1" d="M60,93.8h0Z"/><path class="cls-1" d="M60,93.81h0s0,0,0,0,0,0,0,0h0S59.94,93.8,60,93.81Z"/><path class="cls-1" d="M59.94,93.82s0,0,0,0,0,0,0,0Z"/><path class="cls-1" d="M59.94,93.83l-.1.09,0-.07h0s0,0,0,0S59.93,93.82,59.94,93.83Z"/><path class="cls-1" d="M59.92,93.81s0,0,0,0h0l0,0a0,0,0,0,0,0,0Z"/><path class="cls-1" d="M59.9,93.84h0l-.11.07.08-.07h0Z"/><path class="cls-1" d="M59.89,93.83l0,0h0l-.16.06Z"/><path class="cls-1" d="M57.79,10.15a.12.12,0,0,0,0,0l0,0Z"/><path class="cls-1" d="M57.1,118.48l-.29.22.12-.11Z"/><path class="cls-1" d="M57,118.71l-.27,0s0,0,0,0h0Z"/><path class="cls-1" d="M56.94,118.66l-.16.07s0,0,0,0h0Z"/><path class="cls-1" d="M56.93,118.59l-.12.11h0l-.06,0h0Z"/><path class="cls-1" d="M56.87,118.78l-.14,0h0A.61.61,0,0,0,56.87,118.78Z"/><path class="cls-1" d="M56.79,118.71s0,0,0,0h0Z"/><path class="cls-1" d="M56.79,118.71l0,0h0Z"/><path class="cls-1" d="M56.77,118.73s0,0,0,0a0,0,0,0,1,0,0Z"/><path class="cls-1" d="M56.76,118.73a0,0,0,0,0,0,0h0s0,0,0,0Z"/><path class="cls-1" d="M56.76,118.73l0,0h0Z"/><path class="cls-1" d="M56.74,118.75h0a0,0,0,0,0,0,0h0S56.73,118.76,56.74,118.75Z"/><path class="cls-1" d="M56.71,118.73h0s0,0,0,0Z"/><path class="cls-1" d="M56.71,118.75a0,0,0,0,1,0,0h0Z"/><path class="cls-1" d="M56.7,118.73s0,0,0,0l-.12,0Z"/><path class="cls-1" d="M56.7,118.76l-.27.11a1.06,1.06,0,0,0,.21-.11Z"/><path class="cls-1" d="M56.7,118.76h-.06s0,0,0,0h.05Z"/><path class="cls-1" d="M56.68,118.74h0l-.35,0,.26,0Z"/><path class="cls-1" d="M56.65,118.75s0,0,0,0l-.19,0Z"/><path class="cls-1" d="M52.82,10l-.52-.39a30.24,30.24,0,0,1,3.06-2.71l.69.55a2,2,0,0,1,0,2.85,2.07,2.07,0,0,1-1.43.59,2.14,2.14,0,0,1-1.42-.59l-.3-.24Z"/><path class="cls-1" d="M29.91,37.43a1.27,1.27,0,0,1-.06-.18,7.14,7.14,0,0,0,.65,1.14c-.05,0-.09-.11-.14-.17.08.12.17.23.26.34l-.12-.17a6.81,6.81,0,0,0,.93.93l-.24-.17.41.31-.17-.14a7.34,7.34,0,0,0,1.15.67l-.11,0,.48.21L32.58,40a9.85,9.85,0,0,0,2.25.6l-.26,0,.54.07-.28,0a14,14,0,0,0,2.82,0c-.3,1.35-.54,2.71-.74,4.07h-.32a13.41,13.41,0,0,1-6.35-1.4,9.22,9.22,0,0,1-4.29-5,12.68,12.68,0,0,1-.58-5.93A24.35,24.35,0,0,1,27,26.21a43.48,43.48,0,0,1,7-11.28c1.34-1.63,2.76-3.19,4.22-4.71.73-.76,1.46-1.51,2.21-2.26a26.37,26.37,0,0,1,2.25-2.11A10,10,0,0,1,46,4a7.55,7.55,0,0,1,3.89-.06,14.56,14.56,0,0,1,5.5,3A30.24,30.24,0,0,0,52.3,9.65a14.81,14.81,0,0,0-2.53-1.53l.19.07L49.48,8l.26.12a6.84,6.84,0,0,0-1.27-.36l.26,0-.54-.07.28,0a4.61,4.61,0,0,0-.91,0l.28,0-.54.07.26,0a5.15,5.15,0,0,0-.75.19L47,7.87,46.71,8a7.26,7.26,0,0,0-1.4.87l.25-.21-.4.32.15-.11c-.72.59-1.39,1.26-2.05,1.92a91.57,91.57,0,0,0-7.52,8.35A38.52,38.52,0,0,0,31,27a1.8,1.8,0,0,1,.08-.21l-.21.49c0-.09.08-.19.13-.28a22.55,22.55,0,0,0-1.59,5.43,2.11,2.11,0,0,1,0-.25c0,.17-.05.35-.07.53a2.74,2.74,0,0,1,.05-.28,13.09,13.09,0,0,0,0,3,1.85,1.85,0,0,1,0-.23c0,.18.05.35.07.53l0-.3a8.79,8.79,0,0,0,.48,1.81c-.05-.08-.08-.17-.12-.25C29.79,37.14,29.86,37.29,29.91,37.43Z"/><path class="cls-1" d="M52.82,10l.08.06h0S52.84,10.06,52.82,10Z"/><path class="cls-1" d="M52.45,15.54l-.08.1a.23.23,0,0,0,.05-.07h0Z"/><path class="cls-1" d="M52.42,15.57a.23.23,0,0,1-.05.07h0a.36.36,0,0,0-.07.09C52.24,15.8,52.37,15.64,52.42,15.57Z"/><path class="cls-1" d="M50,8.19l-.19-.07h0L49.48,8Z"/><path class="cls-1" d="M48.81,95.93l.09,0-.11,0Z"/><path class="cls-1" d="M48.81,95.93h0Z"/><path class="cls-1" d="M48.78,95.92l-.05,0h.05Z"/><path class="cls-1" d="M48.73,7.77l-.26,0-.28,0Z"/><path class="cls-1" d="M47.84,7.7l-.28,0-.26,0Z"/><path class="cls-1" d="M46.9,71.75a2.1,2.1,0,0,1,.2,1.55,2.15,2.15,0,0,1-.93,1.2l-.1.08-.23.17a28.82,28.82,0,0,1-2.23-1.91q-.4-.37-.78-.78c.42-.37.86-.71,1.31-1a2,2,0,0,1,1.55-.2A2.05,2.05,0,0,1,46.9,71.75Z"/><path class="cls-1" d="M47,7.87l-.15.07h0l-.08,0Z"/><path class="cls-1" d="M46.07,74.58a1.84,1.84,0,0,0-.22.17h0Z"/><path class="cls-1" d="M39.84,82.72a31.54,31.54,0,0,0-2.09,7.71l0,.2c-.82-.43-1.62-.87-2.43-1.32a1.81,1.81,0,0,0-.71-.24.58.58,0,0,0-.19,0h-.23a.9.9,0,0,0-.23,0h0a34,34,0,0,1,.69-3.45,28.89,28.89,0,0,1,3.3-7.86,22.9,22.9,0,0,1,4.92-5.68q.38.41.78.78a28.82,28.82,0,0,0,2.23,1.91h0a20.42,20.42,0,0,0-3.33,3.37,3.06,3.06,0,0,1,.21-.29l-.31.41.1-.12A24,24,0,0,0,39.84,82.72Z"/><path class="cls-1" d="M45.56,8.64l-.25.21L45.16,9Z"/><path class="cls-1" d="M42.73,77.83a3.06,3.06,0,0,0-.21.29l-.1.12Z"/><path class="cls-1" d="M42.56,64.56s0,0,0,0h0A.08.08,0,0,0,42.56,64.56Z"/><path class="cls-1" d="M42.58,64.61v0a0,0,0,0,0,0,0Z"/><path class="cls-1" d="M42.55,64.53s0,0,0,0l-.06-.12,0,0S42.54,64.52,42.55,64.53Z"/><path class="cls-1" d="M42.5,64.42l0,.07,0,0Z"/><path class="cls-1" d="M42.49,64.39a0,0,0,0,1,0,0,0,0,0,0,1,0,0Z"/><path class="cls-1" d="M40.84,45.6a0,0,0,0,1,0,0v0Z"/><path class="cls-1" d="M40.83,45.63v0a0,0,0,0,1,0,0S40.83,45.65,40.83,45.63Z"/><path class="cls-1" d="M40,42.63a2.05,2.05,0,0,1-.59,1.43,2.17,2.17,0,0,1-1.43.59c-.36,0-.73.06-1.1.06.2-1.36.44-2.72.74-4.07l.36,0A2,2,0,0,1,40,42.63Z"/><path class="cls-1" d="M37.75,90.43v0l0,.17Z"/><path class="cls-1" d="M37.72,90.63l0-.17a1.1,1.1,0,0,1,0,.18h0Z"/><path class="cls-1" d="M37.72,90.64h0a2.2,2.2,0,0,1-.26.81l-.31.4a2,2,0,0,1-1.25.58,2.14,2.14,0,0,0-.19-2.79,2.37,2.37,0,0,0-1.14-.57,1.81,1.81,0,0,1,.71.24c.81.45,1.61.89,2.43,1.32Z"/><path class="cls-1" d="M35.25,111.09a2.18,2.18,0,0,1,1.1,1.87q-.06,1.62-.09,3.24c-1.42-.61-2.82-1.25-4.22-1.92,0-.44,0-.88,0-1.32a2.17,2.17,0,0,1,2.13-2.14,1.88,1.88,0,0,1,.67.1A1.76,1.76,0,0,1,35.25,111.09Z"/><path class="cls-1" d="M36.2,141.47c0,.59.06,1.17.1,1.76l-1.56-2.06C35.23,141.26,35.72,141.36,36.2,141.47Z"/><path class="cls-1" d="M35.72,89.64a2.14,2.14,0,0,1,.19,2.79h-.18a2,2,0,0,1-2-2q.09-.69.21-1.38h0l.23,0h.23l.19,0A2.37,2.37,0,0,1,35.72,89.64Z"/><path class="cls-1" d="M35.73,92.44h.18a2.11,2.11,0,0,1-.19.23c-.36.39-.73.77-1.1,1.14-.5-.26-1-.54-1.48-.81a2.16,2.16,0,0,1-.77-2.92c0-.08.1-.16.15-.24l.18-.19a.86.86,0,0,1,.14-.13,1.73,1.73,0,0,1,.31-.22,2.3,2.3,0,0,1,.77-.24q-.12.69-.21,1.38a2,2,0,0,0,2,2Z"/><path class="cls-1" d="M35.11,40.64l-.54-.07.26,0Z"/><path class="cls-1" d="M33.14,93c.49.27,1,.55,1.48.81-.57.59-1.14,1.16-1.72,1.74-3.11,3.12-6.31,6.15-9.4,9.3q-1.17-.69-2.31-1.41c.15,1.12.29,2.24.43,3.35.62-.65,1.25-1.3,1.88-1.94.53.33,1.07.65,1.61,1q4.77,2.78,9.77,5.12a1.88,1.88,0,0,0-.67-.1A2.17,2.17,0,0,0,32.08,113c0,.44,0,.88,0,1.32-1-.45-1.92-.93-2.87-1.41Q24,110.23,19,107.12a2.17,2.17,0,0,1-.43-3.36c.92-1,1.87-1.93,2.82-2.88,3.69-3.69,7.49-7.27,11.09-11-.05.08-.11.16-.15.24A2.16,2.16,0,0,0,33.14,93Z"/><path class="cls-1" d="M34.58,89.07l-.19,0A.58.58,0,0,1,34.58,89.07Z"/><path class="cls-1" d="M34.16,89l-.23,0A.9.9,0,0,1,34.16,89Z"/><path class="cls-1" d="M33.92,89.05a2.3,2.3,0,0,0-.77.24A1.78,1.78,0,0,1,33.92,89.05Z"/><path class="cls-1" d="M33,40.16,32.47,40l.11,0Z"/><path class="cls-1" d="M32.84,89.51a.86.86,0,0,0-.14.13A.57.57,0,0,1,32.84,89.51Z"/><path class="cls-1" d="M31.6,39.46l-.41-.31.24.17Z"/><path class="cls-1" d="M31.08,26.8A1.8,1.8,0,0,0,31,27c-.05.09-.09.19-.13.28Z"/><path class="cls-1" d="M30.5,38.39l.12.17c-.09-.11-.18-.22-.26-.34C30.41,38.28,30.45,38.34,30.5,38.39Z"/><path class="cls-1" d="M29.85,37.25a1.27,1.27,0,0,0,.06.18c-.05-.14-.12-.29-.18-.43C29.77,37.08,29.8,37.17,29.85,37.25Z"/><path class="cls-1" d="M29.43,32.19a2.11,2.11,0,0,0,0,.25,2.74,2.74,0,0,0-.05.28C29.38,32.54,29.41,32.36,29.43,32.19Z"/><path class="cls-1" d="M29.37,35.44l0,.3c0-.18,0-.35-.07-.53A1.85,1.85,0,0,0,29.37,35.44Z"/><path class="cls-1" d="M21.19,103.43q1.14.72,2.31,1.41c-.63.64-1.26,1.29-1.88,1.94C21.48,105.67,21.34,104.55,21.19,103.43Z"/><path class="cls-1" d="M12,48.48a47.69,47.69,0,0,0,6.29,10.24c.95,1.23,1.92,2.44,2.89,3.65a2.32,2.32,0,0,1,.59,1.4,2,2,0,0,1-2,2,2,2,0,0,1-1.4-.58c-.85-1.05-1.7-2.1-2.53-3.17-1.54-2-3.05-4-4.4-6.12A39.06,39.06,0,0,1,8,49.16a1.92,1.92,0,0,1,.2-1.53,2,2,0,0,1,2.71-.71,2.12,2.12,0,0,1,.91,1.19c0,.11.09.23.14.34Z"/><path class="cls-1" d="M7,68.34a25.16,25.16,0,0,0-5.21-3l.26.1-.48-.2.22.1-.32-.13a2.27,2.27,0,0,1-1.19-.92A2,2,0,0,1,1,61.54a2,2,0,0,1,1.53-.2,27.93,27.93,0,0,1,10.62,7.31,2,2,0,0,1,0,2.81,2,2,0,0,1-2.8,0A25.29,25.29,0,0,0,7,68.34Z"/><path class="cls-1" d="M2,65.4l-.26-.1-.22-.1Z"/></g></g></svg>