<svg xmlns="http://www.w3.org/2000/svg" xmlns:xlink="http://www.w3.org/1999/xlink" viewBox="0 0 155.81 36.27"><defs><style>.cls-1{fill:none;}.cls-2{clip-path:url(#clip-path);}.cls-3{clip-path:url(#clip-path-2);}.cls-4{fill:#1a4a99;}.cls-5{clip-path:url(#clip-path-3);}.cls-6{fill:#abadaf;}.cls-7{fill:#fff;}.cls-8{fill:#828487;}</style><clipPath id="clip-path" transform="translate(-2.61 -2.81)"><rect class="cls-1" width="160.13" height="43.4"/></clipPath><clipPath id="clip-path-2" transform="translate(-2.61 -2.81)"><rect class="cls-1" x="-10.71" y="-59.93" width="175.14" height="158.13"/></clipPath><clipPath id="clip-path-3" transform="translate(-2.61 -2.81)"><rect class="cls-1" x="2.61" y="2.81" width="152.05" height="36.27"/></clipPath></defs><g id="Layer_2" data-name="Layer 2"><g id="Layer_1-2" data-name="Layer 1"><g class="cls-2"><g class="cls-3"><path class="cls-4" d="M149.8,24h4.75c.07-.63.11-1.25.11-1.59,0-7.32-4.32-12.05-11-12.05a10.49,10.49,0,0,0-9.64,5.4s-.26.46-.39.71l-.38-.71a10.2,10.2,0,0,0-9.49-5.4,11,11,0,0,0-7.62,2.77l-.73.67V10.37h-1.47a9.12,9.12,0,0,0-4.74,1.15l-.66.39V10.83H90.67V12l-.62-.31a8.37,8.37,0,0,0-3.76-.87c-3.92,0-7.26,2.53-8.72,6.6l-.08.21-.76-.14V10.83H75.34l.54-.71a4.44,4.44,0,0,0,.93-2.73,4.59,4.59,0,0,0-4.59-4.58A4.5,4.5,0,0,0,67.7,7.39a4.5,4.5,0,0,0,.9,2.74l.52.7H66.55V3.26H55.62v6.85H58.2V12a7.38,7.38,0,0,0-4.3-1.14,8.89,8.89,0,0,0-8,5.09l-.38.75-.39-.75a10.18,10.18,0,0,0-9.57-5.55,11.47,11.47,0,0,0-7.61,2.76c0-.13,0-.27,0-.41,0-6.37-3.78-9.46-11.54-9.46H2.61v7.05H5.38V25.25H2.61v7.24H17.44V25.25H14.66V22.76h2.63a12.08,12.08,0,0,0,7.23-1.91c0,.25,0,.51,0,.77,0,6.82,4.47,11.4,11,11.4,4.2,0,7.7-1.71,9.61-4.67l.4-.61c.09.18.34.64.34.64A8.6,8.6,0,0,0,53.71,33a7.93,7.93,0,0,0,3.12-.53l.06,0,23.13,0-2.67,3.1,1.34.95a15.34,15.34,0,0,0,8.88,2.53c4.06,0,7.37-1.19,9.34-3.36a7.33,7.33,0,0,0,1.6-2.91l.09-.31h13.31V25.4H109V23.51c0-2.22.56-3.79,3.32-4.24l.57-.1c0,.17-.08.59-.08.59a15.29,15.29,0,0,0-.13,1.94c0,6.77,4.44,11.32,11,11.32,4.33,0,7.9-1.8,9.78-4.94l.36-.62.38.62A10.6,10.6,0,0,0,143.65,33c3.55,0,9.22-1.68,10.66-7.59-1.22-.38-3.66-1.14-4.51-1.42M15.1,15.33h-.26V10.5h.26c2,0,2.91.72,2.91,2.42s-.82,2.41-2.91,2.41m20.4,1.84a2.28,2.28,0,0,1,2.12,1.31H33.41a2.21,2.21,0,0,1,2.09-1.31M39,24.23A3,3,0,0,1,36.22,26,2.74,2.74,0,0,1,33.44,24h5.7l-.12.22m16.74,1.41c-.88,0-2.34-.49-2.34-3.79s1.46-3.76,2.34-3.76S58,18.58,58,21.85s-1.42,3.79-2.26,3.79m12.61-.23H66.59V17.72h1.78Zm19.78.23c-.87,0-2.34-.49-2.34-3.79s1.47-3.76,2.34-3.76,2.3.49,2.3,3.76-1.61,3.79-2.3,3.79m12.51-.23H99V17.72h1.68Zm23-8.24a2.3,2.3,0,0,1,2.13,1.31h-4.22a2.22,2.22,0,0,1,2.09-1.31m3.53,7.06A3,3,0,0,1,124.43,26,2.73,2.73,0,0,1,121.66,24h5.69l-.11.22m16.38-7.06a2.28,2.28,0,0,1,2.13,1.31h-4.22a2.23,2.23,0,0,1,2.09-1.31m3.53,7.06A3,3,0,0,1,144.34,26,2.74,2.74,0,0,1,141.57,24h5.69l-.11.22" transform="translate(-2.61 -2.81)"/><g class="cls-5"><g class="cls-5"><path class="cls-6" d="M149.8,24h4.75c.07-.63.11-1.25.11-1.59,0-7.32-4.32-12.05-11-12.05a10.49,10.49,0,0,0-9.64,5.4s-.26.46-.39.71l-.38-.71a10.2,10.2,0,0,0-9.49-5.4,11,11,0,0,0-7.62,2.77l-.73.67V10.37h-1.47a9.12,9.12,0,0,0-4.74,1.15l-.66.39V10.83H90.67V12l-.62-.31a8.37,8.37,0,0,0-3.76-.87c-3.92,0-7.26,2.53-8.72,6.6l-.08.21-.76-.14V10.83H75.34l.54-.71a4.44,4.44,0,0,0,.93-2.73,4.59,4.59,0,0,0-4.59-4.58A4.5,4.5,0,0,0,67.7,7.39a4.5,4.5,0,0,0,.9,2.74l.52.7H66.55V3.26H55.62v6.85H58.2V12a7.38,7.38,0,0,0-4.3-1.14,8.89,8.89,0,0,0-8,5.09l-.38.75-.39-.75a10.18,10.18,0,0,0-9.57-5.55,11.47,11.47,0,0,0-7.61,2.76c0-.13,0-.27,0-.41,0-6.37-3.78-9.46-11.54-9.46H2.61v7.05H5.38V25.25H2.61v7.24H17.44V25.25H14.66V22.76h2.63a12.08,12.08,0,0,0,7.23-1.91c0,.25,0,.51,0,.77,0,6.82,4.47,11.4,11,11.4,4.2,0,7.7-1.71,9.61-4.67l.4-.61c.09.18.34.64.34.64A8.6,8.6,0,0,0,53.71,33a7.93,7.93,0,0,0,3.12-.53l.06,0,23.13,0-2.67,3.1,1.34.95a15.34,15.34,0,0,0,8.88,2.53c4.06,0,7.37-1.19,9.34-3.36a7.33,7.33,0,0,0,1.6-2.91l.09-.31h13.31V25.4H109V23.51c0-2.22.56-3.79,3.32-4.24l.57-.1c0,.17-.08.59-.08.59a15.29,15.29,0,0,0-.13,1.94c0,6.77,4.44,11.32,11,11.32,4.33,0,7.9-1.8,9.78-4.94l.36-.62.38.62A10.6,10.6,0,0,0,143.65,33c3.55,0,9.22-1.68,10.66-7.59-1.22-.38-3.66-1.14-4.51-1.42M15.1,15.33h-.26V10.5h.26c2,0,2.91.72,2.91,2.42s-.82,2.41-2.91,2.41m20.4,1.84a2.28,2.28,0,0,1,2.12,1.31H33.41a2.21,2.21,0,0,1,2.09-1.31M39,24.23A3,3,0,0,1,36.22,26,2.74,2.74,0,0,1,33.44,24h5.7l-.12.22m16.74,1.41c-.88,0-2.34-.49-2.34-3.79s1.46-3.76,2.34-3.76S58,18.58,58,21.85s-1.42,3.79-2.26,3.79m12.61-.23H66.59V17.72h1.78Zm19.78.23c-.87,0-2.34-.49-2.34-3.79s1.47-3.76,2.34-3.76,2.3.49,2.3,3.76-1.61,3.79-2.3,3.79m12.51-.23H99V17.72h1.68Zm23-8.24a2.3,2.3,0,0,1,2.13,1.31h-4.22a2.22,2.22,0,0,1,2.09-1.31m3.53,7.06A3,3,0,0,1,124.43,26,2.73,2.73,0,0,1,121.66,24h5.69l-.11.22m16.38-7.06a2.28,2.28,0,0,1,2.13,1.31h-4.22a2.23,2.23,0,0,1,2.09-1.31m3.53,7.06A3,3,0,0,1,144.34,26,2.74,2.74,0,0,1,141.57,24h5.69l-.11.22" transform="translate(-2.61 -2.81)"/></g></g><path class="cls-7" d="M69.37,7.35a2.83,2.83,0,0,0,2.86,2.89,2.92,2.92,0,0,0,2.94-2.89,3,3,0,0,0-2.94-2.92,2.86,2.86,0,0,0-2.86,2.92" transform="translate(-2.61 -2.81)"/><path class="cls-7" d="M4.33,4.88V8.62H7.11V26.87H4.33V30.8H15.88V26.87H13.1v-5.8h3.37c4.1,0,6.82-1,8.31-2.94a7.28,7.28,0,0,0,1.15-2.46,11.34,11.34,0,0,0,.31-2.79c0-5.53-3-8-9.77-8ZM13.1,8.62h1.38c3.81,0,5.43,1.27,5.43,4.26s-1.62,4.26-5.43,4.26H13.1Z" transform="translate(-2.61 -2.81)"/><path class="cls-7" d="M134.34,21.66c0,5.87,3.69,9.67,9.4,9.67,4.18,0,7.37-1.82,8.8-5-.35-.1-3.8-1.21-4-1.29a4.48,4.48,0,0,1-4.17,2.46c-2.77,0-4.45-1.75-4.6-4.82v-.18H153.1v-.13c0-6.4-3.59-10.38-9.36-10.38s-9.4,3.79-9.4,9.66m5.43-2.17a3.87,3.87,0,0,1,7.74,0l0,.19h-7.77Z" transform="translate(-2.61 -2.81)"/><path class="cls-7" d="M27.84,15.81a9.76,9.76,0,0,0-1.13,2.49,13.13,13.13,0,0,0-.49,3.36c0,5.87,3.69,9.67,9.39,9.67,4.19,0,7.38-1.82,8.8-5-.35-.1-3.79-1.21-4-1.29a4.48,4.48,0,0,1-4.18,2.46c-2.77,0-4.44-1.75-4.59-4.82l0-.18H45v-.13C45,16,41.39,12,35.61,12a9,9,0,0,0-7.77,3.81m3.81,3.68a3.87,3.87,0,0,1,7.74,0l0,.19H31.64Z" transform="translate(-2.61 -2.81)"/><path class="cls-7" d="M57.35,4.88V8.54h2.44v6.82l-.3-.31A7.4,7.4,0,0,0,54,12.45c-4.61,0-7.82,4-7.82,9.74,0,5.47,3.07,9.14,7.64,9.14a6.76,6.76,0,0,0,5.68-2.92l.31-.42V30.8h18V27H75.17V12.45H67.52v3.66H70V27H65V4.88Zm-5.8,16.93c0-3.5,1.56-5.58,4.16-5.58s4.08,2.08,4.08,5.58-1.56,5.63-4.08,5.63-4.16-2.16-4.16-5.63" transform="translate(-2.61 -2.81)"/><path class="cls-7" d="M107.31,16.76,107,16.7V12.45H92.4v3.16l-.3-.34a7.47,7.47,0,0,0-5.73-2.82c-4.46,0-7.82,4-7.82,9.33,0,5.56,2.93,9,7.63,9A6.85,6.85,0,0,0,91.86,28l.29-.35.1,1.67c0,2.85-1.5,4.23-4.61,4.23a12.93,12.93,0,0,1-5.2-1.29l-2.56,3a13.82,13.82,0,0,0,7.76,2.13c3.6,0,6.49-1,8.14-2.82,1.35-1.51,1.61-3.25,1.61-5.94V16.11h4.86V27H99.81V30.8h10.54V27h-2.89V23.48c0-4,2-5.87,6.38-6V12c-3.43.05-5.45,1.51-6.53,4.75m-23.37,5c0-3.5,1.55-5.58,4.16-5.58s4.11,2.14,4.11,5.58-1.57,5.63-4.11,5.63-4.16-2.16-4.16-5.63" transform="translate(-2.61 -2.81)"/><path class="cls-7" d="M114.44,21.66c0,5.87,3.69,9.67,9.39,9.67,4.19,0,7.38-1.82,8.8-5-.35-.1-3.79-1.21-4-1.29a4.45,4.45,0,0,1-4.17,2.46c-2.77,0-4.44-1.75-4.6-4.82v-.18h13.37v-.13c0-6.4-3.58-10.38-9.36-10.38s-9.39,3.79-9.39,9.66m5.43-2.17a3.87,3.87,0,0,1,7.74,0v.19h-7.76Z" transform="translate(-2.61 -2.81)"/><path class="cls-8" d="M154.79,12.41a1.75,1.75,0,0,1,.4-.6,1.68,1.68,0,0,1,.61-.39,2.15,2.15,0,0,1,.73-.13,2.2,2.2,0,0,1,.73.13,1.73,1.73,0,0,1,.6.39,1.94,1.94,0,0,1,.41.6,1.81,1.81,0,0,1,.15.74,1.86,1.86,0,0,1-.15.75,1.94,1.94,0,0,1-.41.6,1.91,1.91,0,0,1-.6.4,2,2,0,0,1-.73.14,1.94,1.94,0,0,1-.73-.14,1.85,1.85,0,0,1-.61-.4,1.75,1.75,0,0,1-.4-.6,1.86,1.86,0,0,1-.14-.75,1.81,1.81,0,0,1,.14-.74m.3,1.38a1.64,1.64,0,0,0,.32.51,1.53,1.53,0,0,0,.5.34,1.44,1.44,0,0,0,.62.13,1.55,1.55,0,0,0,1.1-.47,1.5,1.5,0,0,0,.33-.51,1.69,1.69,0,0,0,.12-.64,1.61,1.61,0,0,0-.12-.63,1.5,1.5,0,0,0-.33-.51,1.49,1.49,0,0,0-1.1-.46,1.59,1.59,0,0,0-.62.12,1.7,1.7,0,0,0-.5.34,1.64,1.64,0,0,0-.32.51,1.61,1.61,0,0,0-.12.63,1.69,1.69,0,0,0,.12.64m1.56-1.74a1,1,0,0,1,.58.16.58.58,0,0,1,.18.47.54.54,0,0,1-.16.44.71.71,0,0,1-.41.16l.63,1h-.37l-.6-.95h-.36v.95h-.35V12.05Zm-.16,1h.22a.48.48,0,0,0,.18,0,.24.24,0,0,0,.13-.11.28.28,0,0,0,0-.2.34.34,0,0,0,0-.18.52.52,0,0,0-.11-.1l-.16-.05h-.62V13Z" transform="translate(-2.61 -2.81)"/></g></g></g></g></svg>