<svg xmlns="http://www.w3.org/2000/svg" viewBox="0 0 278.15 77.19"><defs><style>.cls-1{fill:#abadaf;fill-rule:evenodd;}</style></defs><g id="Layer_2" data-name="Layer 2"><g id="Layer_1-2" data-name="Layer 1"><path class="cls-1" d="M119.38,35.2a2.74,2.74,0,0,1-2.24.52,1.3,1.3,0,0,1-.34-2.17c15.53-8.57,32.58-6,42.37.16.22.14,1.15,1.09.43,1.89a1.8,1.8,0,0,1-2,0c-13.88-7.22-26.51-6.8-38.18-.45"/><path class="cls-1" d="M119.66,26.59A44.35,44.35,0,0,1,134,23.13a51.25,51.25,0,0,1,12.27.59A44.34,44.34,0,0,1,158,27.47a16.71,16.71,0,0,1,3.7,2.1,1.76,1.76,0,0,1,.6,2.12c-.39,1.35-2,1.23-2.91.68-13.34-7.73-29.38-6.92-42.82,0-.82.42-2.24.48-2.68-.64-.63-1.61.73-2.68,2-3.51.19-.13-.18.11,0,0a25.44,25.44,0,0,1,3.79-1.6"/><path class="cls-1" d="M108.25,16.59a4.85,4.85,0,1,0-4.85-4.85,4.85,4.85,0,0,0,4.85,4.85"/><path class="cls-1" d="M113.28,26.81A4.84,4.84,0,1,0,108.44,22a4.84,4.84,0,0,0,4.84,4.84"/><path class="cls-1" d="M125,22.72a4.84,4.84,0,1,0-4.84-4.84A4.84,4.84,0,0,0,125,22.72"/><path class="cls-1" d="M122.48,11.47a4.84,4.84,0,1,0-4.84-4.84,4.83,4.83,0,0,0,4.84,4.84"/><path class="cls-1" d="M137.56,20.68a4.85,4.85,0,1,0-4.84-4.85,4.84,4.84,0,0,0,4.84,4.85"/><path class="cls-1" d="M137.56,9.69a4.85,4.85,0,1,0-4.84-4.85,4.84,4.84,0,0,0,4.84,4.85"/><path class="cls-1" d="M150.34,22.21a4.84,4.84,0,1,0-4.84-4.84,4.84,4.84,0,0,0,4.84,4.84"/><path class="cls-1" d="M152.64,11.47a4.84,4.84,0,1,0-4.84-4.84,4.83,4.83,0,0,0,4.84,4.84"/><path class="cls-1" d="M162.48,26.81A4.84,4.84,0,1,0,157.64,22a4.84,4.84,0,0,0,4.84,4.84"/><path class="cls-1" d="M167.08,16.59a4.85,4.85,0,1,0-4.84-4.85,4.85,4.85,0,0,0,4.84,4.85"/><path class="cls-1" d="M61.71,41.86c1.87.72,2.76,2.21,4,3.49,2.12,2.23,4,4.48,6.25,6.54a.62.62,0,0,0,.67,0c2.92-3.47,5.26-7,8.85-9.79a3.71,3.71,0,0,1,5.74,2.17,4,4,0,0,1-.81,3.33C83,52.1,79.67,55.81,76.25,60.05c-.1,4.66,0,8.61,0,13.51C76.25,75.49,74,77,72.41,77a3.59,3.59,0,0,1-3.14-1.75,4.43,4.43,0,0,1-.58-1.84c-.18-4.42-.38-8.85-.37-13.28C63.41,53.85,56.91,48.34,56.64,46c-.3-2.64,1.66-5.49,5.07-4.17"/><path class="cls-1" d="M119.79,69.08V45.37c0-6-8.33-5.06-8.05-.14V74.74s0,2.46,3,2.23h13.14s3.77.08,4-3.66a4.12,4.12,0,0,0-3.12-3.93l-8.52,0a.56.56,0,0,1-.42-.71Z"/><path class="cls-1" d="M106.86,73.1c-.32,3.28-2.71,4-4.16,3.87-.21,0,.15,0,0,0-1-.19-3-.57-3.48-2.9a38.59,38.59,0,0,1-.39-4.1c0-.08-9.73,0-9.75,0-1.69,2.21-3.37,4.89-4.93,6.4a2.73,2.73,0,0,1-2,.65,4.19,4.19,0,0,1-3.76-2.45,3.13,3.13,0,0,1,0-3C82.93,65,87,59.46,91.77,53.07c2.61-3.54,4.93-6.67,7.6-10.08a4.17,4.17,0,0,1,3.82-1.82c-.09,0,3.38-.08,3.67,3.1V73.09L97.15,62.22a16.25,16.25,0,0,0,1.71,0c.06-1.87,0-4.09,0-5.89-1.4,1.84-2.54,3.46-3.88,5.26-.13.18-.21.57.18.6.71,0,1.65,0,2,0Z"/><path class="cls-1" d="M60,59.34A17.85,17.85,0,1,1,42.19,41.5,17.85,17.85,0,0,1,60,59.34ZM42.25,49.76a9.58,9.58,0,1,0,9.58,9.58,9.58,9.58,0,0,0-9.58-9.58"/><path class="cls-1" d="M142.57,57.08a17.77,17.77,0,0,1,10.62-14,16.7,16.7,0,0,1,19.59,4.62,3.42,3.42,0,0,1-.24,4.24,3.49,3.49,0,0,1-4,1.46c-2.4-.93-4.05-3.08-6.71-3.63a9.52,9.52,0,0,0-11.44,7.85c-.79,5.3,2.25,10.39,7.64,11.42,3.78.71,6.75-1.33,9.86-3.52a3.43,3.43,0,0,1,4.86,1.33c.54,1.12,1,2.31.29,3.51-2.55,4.49-7.71,6.11-12.49,6.57-3.65.35-7-.92-10.13-2.83a17.21,17.21,0,0,1-7.87-17"/><path class="cls-1" d="M206.26,73.52s-.46,3.13,3.89,3.51A3.79,3.79,0,0,0,214,73.52V56.87c0-.18.32-.39.42-.22l10.4,18.66A4.44,4.44,0,0,0,228.55,77s4,.35,5.21-3.45l.07-1.21v-28c-1.46-3.94-6.39-4-7.64,0V60.71s0,.57-.32.51c-3.39-5.71-6.36-11.73-9.93-17.59a5.37,5.37,0,0,0-9.33,1,2.9,2.9,0,0,0-.43,1.47V73.33Z"/><path class="cls-1" d="M175.53,73V44.2c.29-3.18,3.76-3.1,3.67-3.1A4.16,4.16,0,0,1,183,42.93c2.68,3.4,5,6.54,7.61,10.07,4.72,6.39,8.83,11.9,13.42,18.49a3.16,3.16,0,0,1,0,3,4.19,4.19,0,0,1-3.76,2.45,2.75,2.75,0,0,1-2-.65c-1.56-1.51-3.24-4.19-4.94-6.4,0,0-9.73-.07-9.74,0a38.59,38.59,0,0,1-.39,4.1c-.46,2.33-2.44,2.71-3.48,2.9-.15,0,.22,0,0,0-1.46.1-3.84-.6-4.17-3.88l11.73-10.91c.39,0,.31-.42.18-.6-1.34-1.8-2.49-3.42-3.88-5.26,0,1.8-.09,4,0,5.89a16.06,16.06,0,0,0,1.7,0c.37-.06,1.31,0,2,0Z"/><path class="cls-1" d="M250.58,73.47s-.46,3.13,3.89,3.51a3.79,3.79,0,0,0,3.87-3.52V56.82c0-.18.32-.4.43-.22l10.4,18.65a4.41,4.41,0,0,0,3.7,1.67s4,.35,5.21-3.46l.07-1.21v-28c-1.46-3.93-6.39-4-7.64,0V60.65s0,.58-.32.51c-3.39-5.71-6.36-11.72-9.93-17.58a5.37,5.37,0,0,0-9.33,1,3,3,0,0,0-.42,1.47V73.27Z"/><path class="cls-1" d="M238.06,45.5V72.85a3.8,3.8,0,0,0,4,4,4,4,0,0,0,4.28-3.9Z"/><path class="cls-1" d="M246.37,73V45.63a3.8,3.8,0,0,0-4-4,4,4,0,0,0-4.28,3.9Z"/><path class="cls-1" d="M3.08,44.62a10.9,10.9,0,0,1,6.91-3,12.19,12.19,0,0,1,6,1c4.72,1.59,7.91,7,7.28,12.41a13.35,13.35,0,0,1-4.63,8.19c2.28,5,6.54,8.34,5.86,10.83a3.42,3.42,0,0,1-2.47,2.85,3.26,3.26,0,0,1-3.19-.39c-4-3.37-6-8.24-9.38-11.72-.83-.86-1.2-.48-1.2,0,0,4.08.05,7.12-.16,9.12a4.53,4.53,0,0,1-2,3A3.81,3.81,0,0,1,.7,74.2C.63,73.77,0,71.92,0,63.48c0-4.17,0-5.08,0-11.71A9.88,9.88,0,0,1,3.08,44.62ZM11.6,57.19a3.8,3.8,0,1,0,0-7.58,3.8,3.8,0,1,0,0,7.58"/><path class="cls-1" d="M95.91,62.25h10.32v7.36H95.91Z"/><path class="cls-1" d="M100.06,67.14h6.8v6h-6.8Z"/><path class="cls-1" d="M177.78,62.2h11.31v7.47H177.78Z"/><path class="cls-1" d="M175.53,66h6.8V73h-6.8Z"/><path class="cls-1" d="M238.06,45.5h8.31V73h-8.31Z"/></g></g></svg>