<svg xmlns="http://www.w3.org/2000/svg" viewBox="0 0 294.81 42.74"><defs><style>.cls-1{fill:#abadaf;}.cls-2{fill:#fff;}</style></defs><g id="Layer_2" data-name="Layer 2"><g id="Layer_1-2" data-name="Layer 1"><path class="cls-1" d="M27.43,22.91H24.51c-4.85,0-9.69.05-14.53-.07-.69,0-1.92-.85-2-1.37-.2-2.74-.1-5.51-.1-8.65H28.5V9H0V42H29v-4H7.93c0-3.37,0-6.39,0-9.42,0-1.34.58-1.7,1.78-1.68,2.88,0,5.75,0,8.62,0h9.12ZM200.05,8.83c-2.27,0-4.15.06-6,0-1.34-.05-1.7.59-1.7,1.78,0,7.55,0,15.1.08,22.64,0,4.12,2.29,6.79,6,8.12a23.55,23.55,0,0,0,15.44.18,11,11,0,0,0,3.94-2.41c3.41-3.18,4.22-10.22,1.89-14.95-2-4-7-6.32-12.47-5.28a53.66,53.66,0,0,0-7.2,2.44Zm-127,22.24.66-.3c3,2.87,6.27,5.52,8.92,8.69,3.42,4.09,7.59,2.2,11.64,2.15L81.16,29.13l12.25-9.72c-8.35-.61-8.35-.61-14.39,4.12-.9.71-1.79,1.44-2.7,2.14S74.44,27.06,73,28.16V9H65.57V42h7.5Zm208.18-6.35a11.76,11.76,0,0,0-11.8-11.9A11.92,11.92,0,0,0,257.6,25a11.79,11.79,0,0,0,12,11.73A11.6,11.6,0,0,0,281.25,24.72ZM159.9,19.41c0,1,0,1.92,0,2.8,0,4.92-.16,9.86.29,14.75.14,1.55,1.74,3.38,3.17,4.32,3.94,2.55,10.8,1.61,14.27-1.55.51-.47,1-.93,1.81-1.63.17,1.54.29,2.69.41,3.8h7.3V19.43h-7.5c0,3.18,0,6.2,0,9.22-.1,4.93-3.31,8.83-7.51,9.23-3.07.29-4.31-.69-4.45-3.76-.12-2.7,0-5.41-.06-8.12,0-2.18,0-4.35,0-6.59ZM52.06,19.34c0,3.43.06,6.61,0,9.79-.09,3.66-1.7,6.65-5.08,8.05-4.13,1.72-7,1-6.93-4.25,0-1.89,0-3.77,0-5.66v-7.8H32.51a6.6,6.6,0,0,0-.15.94c0,4.51,0,9,0,13.53,0,5.75,2.82,8.51,8.59,8.7A12.88,12.88,0,0,0,51.86,38l.39,4h7.31V19.34ZM154.35,42c0-5.62.09-10.94,0-16.27a6.51,6.51,0,0,0-5.39-6.47c-5.27-1.31-10-.41-14.1,4-.17-1.56-.3-2.7-.44-3.9h-7.25V42h7.46c0-3.36-.06-6.54,0-9.72a8.9,8.9,0,0,1,5.8-8.35c4.11-1.41,6.14,0,6.22,4.35,0,2.13,0,4.26,0,6.4V42Zm-33,0c0-5.87,0-11.44,0-17a4.8,4.8,0,0,0-3.19-4.59,23.63,23.63,0,0,0-18.85.35,4.54,4.54,0,0,0-2.92,5c2,0,4,.05,6,0a1.81,1.81,0,0,0,1.32-.77c1.56-3.11,4.36-2.83,7.06-2.54,2.36.26,3.48,2.13,3.42,4.88s-2.21,1.51-3.46,1.79c-4.06.88-8.24,1.31-12.18,2.53a4.93,4.93,0,0,0-3.58,6c.52,2.74,2.7,3.87,5,4.43,4.82,1.13,9.58,1.18,13.91-2.28l.46,2.25Zm128.15,0c0-5.92.05-11.57,0-17.22a4.82,4.82,0,0,0-3.35-4.48,24.12,24.12,0,0,0-18.43.32,4.86,4.86,0,0,0-3.23,5.17c1.8,0,3.52.1,5.21,0a3.35,3.35,0,0,0,2.2-.95,7,7,0,0,1,8.1-2.05c2.12,1,2.48,2.94,2.27,5s-2,1.14-3.11,1.35c-3.92.77-7.95,1.1-11.77,2.18-3.22.92-4.53,3.21-4.35,5.8.16,2.34,1.92,4.23,5.07,5,4.83,1.11,9.58,1.2,13.93-2.28l.5,2.38c1.73,0,3.37,0,5,0C248.1,42.11,248.66,42,249.54,42Zm13.35-30.73a5.42,5.42,0,0,0,5.75-5.43A5.78,5.78,0,0,0,263.16,0a5.53,5.53,0,0,0-5.67,5.56A5.24,5.24,0,0,0,262.89,11.25Zm24.29,9.37a5.55,5.55,0,0,0,5.52-5.69A5.73,5.73,0,0,0,287,9.37a5.67,5.67,0,0,0-5.5,5.77A5.45,5.45,0,0,0,287.18,20.62Zm7.63,7.93a5.55,5.55,0,1,0-11.09-.16,5.48,5.48,0,0,0,5.45,5.73A5.54,5.54,0,0,0,294.81,28.55ZM282.17,6.07a5.38,5.38,0,0,0-5.4-5.72,5.62,5.62,0,1,0-.22,11.23A5.38,5.38,0,0,0,282.17,6.07Z"/><path class="cls-1" d="M27.43,22.91v3.94H18.31c-2.87,0-5.74,0-8.62,0-1.2,0-1.81.34-1.78,1.68.06,3,0,6.05,0,9.42H29v4H0V9H28.5v3.81H7.93c0,3.14-.1,5.91.1,8.65,0,.52,1.26,1.35,2,1.37,4.84.12,9.68.07,14.53.07Z"/><path class="cls-1" d="M200.05,8.83v12.5a53.66,53.66,0,0,1,7.2-2.44c5.43-1,10.49,1.24,12.47,5.28,2.33,4.73,1.52,11.77-1.89,14.95a11,11,0,0,1-3.94,2.41,23.55,23.55,0,0,1-15.44-.18c-3.74-1.33-6-4-6-8.12-.07-7.54,0-15.09-.08-22.64,0-1.19.36-1.83,1.7-1.78C195.9,8.89,197.78,8.83,200.05,8.83Zm12.79,21.8a35.59,35.59,0,0,0-.38-3.57c-.66-3.28-2.46-5-5.32-5.15a5.67,5.67,0,0,0-6.28,4.36,24.3,24.3,0,0,0-.59,7.23c.18,3.66,2,5.42,5.46,5.71s5.75-1.39,6.61-4.86A28.69,28.69,0,0,0,212.84,30.63Z"/><path class="cls-1" d="M73.07,31.07V42h-7.5V9H73V28.16c1.49-1.1,2.44-1.78,3.37-2.49s1.8-1.43,2.7-2.14c6-4.73,6-4.73,14.39-4.12L81.16,29.13,94.29,41.61c-4.05,0-8.22,1.94-11.64-2.15-2.65-3.17-5.93-5.82-8.92-8.69Z"/><path class="cls-1" d="M281.25,24.72a11.6,11.6,0,0,1-11.65,12A11.79,11.79,0,0,1,257.6,25a11.92,11.92,0,0,1,11.85-12.17A11.76,11.76,0,0,1,281.25,24.72Z"/><path class="cls-1" d="M159.9,19.41h7.71c0,2.24,0,4.41,0,6.59,0,2.71-.06,5.42.06,8.12.14,3.07,1.38,4.05,4.45,3.76,4.2-.4,7.41-4.3,7.51-9.23.06-3,0-6,0-9.22h7.5V41.9h-7.3c-.12-1.11-.24-2.26-.41-3.8-.78.7-1.3,1.16-1.81,1.63-3.47,3.16-10.33,4.1-14.27,1.55-1.43-.94-3-2.77-3.17-4.32-.45-4.89-.24-9.83-.29-14.75C159.89,21.33,159.9,20.45,159.9,19.41Z"/><path class="cls-1" d="M52.06,19.34h7.5V42H52.25l-.39-4a12.88,12.88,0,0,1-10.94,4.64c-5.77-.19-8.57-3-8.59-8.7,0-4.51,0-9,0-13.53a6.6,6.6,0,0,1,.15-.94h7.54v7.8c0,1.89,0,3.77,0,5.66-.09,5.3,2.8,6,6.93,4.25,3.38-1.4,5-4.39,5.08-8C52.12,26,52.06,22.77,52.06,19.34Z"/><path class="cls-1" d="M154.35,42h-7.72V34.63c0-2.14,0-4.27,0-6.4-.08-4.35-2.11-5.76-6.22-4.35a8.9,8.9,0,0,0-5.8,8.35c-.08,3.18,0,6.36,0,9.72h-7.46V19.41h7.25c.14,1.2.27,2.34.44,3.9,4.06-4.46,8.83-5.36,14.1-4a6.51,6.51,0,0,1,5.39,6.47C154.44,31.06,154.35,36.38,154.35,42Z"/><path class="cls-1" d="M121.39,42h-7l-.46-2.25C109.58,43.2,104.82,43.15,100,42c-2.35-.56-4.53-1.69-5-4.43a4.93,4.93,0,0,1,3.58-6c3.94-1.22,8.12-1.65,12.18-2.53,1.25-.28,3.39,1,3.46-1.79s-1.06-4.62-3.42-4.88c-2.7-.29-5.5-.57-7.06,2.54a1.81,1.81,0,0,1-1.32.77c-2,.09-3.91,0-6,0a4.54,4.54,0,0,1,2.92-5,23.63,23.63,0,0,1,18.85-.35A4.8,4.8,0,0,1,121.37,25C121.42,30.55,121.39,36.12,121.39,42Zm-15.17-2.75c4.13-.05,7-2.23,7.64-5.45.1-.57-.5-1.84-.73-1.83-3.43.15-7,.11-9.82,2.45a2.4,2.4,0,0,0,.48,4.1A10.4,10.4,0,0,0,106.22,39.24Z"/><path class="cls-1" d="M249.54,42c-.88.06-1.44.13-2,.13-1.63,0-3.27,0-5,0l-.5-2.38c-4.35,3.48-9.1,3.39-13.93,2.28-3.15-.73-4.91-2.62-5.07-5-.18-2.59,1.13-4.88,4.35-5.8,3.82-1.08,7.85-1.41,11.77-2.18,1.09-.21,2.89.79,3.11-1.35s-.15-4-2.27-5a7,7,0,0,0-8.1,2.05,3.35,3.35,0,0,1-2.2.95c-1.69.14-3.41,0-5.21,0a4.86,4.86,0,0,1,3.23-5.17,24.12,24.12,0,0,1,18.43-.32,4.82,4.82,0,0,1,3.35,4.48C249.59,30.41,249.54,36.06,249.54,42Zm-15.26-2.75c4.25,0,7.31-2.33,7.79-5.7.07-.51-.52-1.59-.77-1.58-3.41.15-6.93.12-9.76,2.43a2.37,2.37,0,0,0,.5,4.19A10.16,10.16,0,0,0,234.28,39.23Z"/><path class="cls-1" d="M262.89,11.25a5.24,5.24,0,0,1-5.4-5.69A5.53,5.53,0,0,1,263.16,0a5.78,5.78,0,0,1,5.48,5.82A5.42,5.42,0,0,1,262.89,11.25Z"/><path class="cls-1" d="M287.18,20.62a5.45,5.45,0,0,1-5.71-5.48A5.67,5.67,0,0,1,287,9.37a5.73,5.73,0,0,1,5.73,5.56A5.55,5.55,0,0,1,287.18,20.62Z"/><path class="cls-1" d="M294.81,28.55a5.54,5.54,0,0,1-5.64,5.57,5.48,5.48,0,0,1-5.45-5.73,5.55,5.55,0,1,1,11.09.16Z"/><path class="cls-1" d="M282.17,6.07a5.38,5.38,0,0,1-5.62,5.51A5.62,5.62,0,1,1,276.77.35,5.38,5.38,0,0,1,282.17,6.07Z"/><path class="cls-2" d="M212.84,30.63a28.69,28.69,0,0,1-.5,3.72c-.86,3.47-3.23,5.16-6.61,4.86s-5.28-2.05-5.46-5.71a24.3,24.3,0,0,1,.59-7.23,5.67,5.67,0,0,1,6.28-4.36c2.86.17,4.66,1.87,5.32,5.15A35.59,35.59,0,0,1,212.84,30.63Z"/><path class="cls-2" d="M106.22,39.24a10.4,10.4,0,0,1-2.43-.73,2.4,2.4,0,0,1-.48-4.1c2.85-2.34,6.39-2.3,9.82-2.45.23,0,.83,1.26.73,1.83C113.25,37,110.35,39.19,106.22,39.24Z"/><path class="cls-2" d="M234.28,39.23a10.16,10.16,0,0,1-2.24-.66,2.37,2.37,0,0,1-.5-4.19c2.83-2.31,6.35-2.28,9.76-2.43.25,0,.84,1.07.77,1.58C241.59,36.9,238.53,39.26,234.28,39.23Z"/></g></g></svg>